SplineFontDB: 3.2
FontName: CMUOSerif-Italic
FullName: CMUO Serif Italic
FamilyName: CMUO Serif
Weight: Medium
Copyright: Modified by Jihu S. Kim from CMU fonts.\n\nConverted by Andrey V. Panov from TeX fonts. Some glyphs are copied from Blue Sky fonts released by AMS.
Version: 1.0
ItalicAngle: -14.04
UnderlinePosition: -150
UnderlineWidth: 50
Ascent: 800
Descent: 200
InvalidEm: 0
LayerCount: 2
Layer: 0 0 "+tLe6dAAA" 1
Layer: 1 0 "+xV66dAAA" 0
XUID: [1021 774 1001095470 3805775]
StyleMap: 0x0001
FSType: 0
OS2Version: 3
OS2_WeightWidthSlopeOnly: 0
OS2_UseTypoMetrics: 0
CreationTime: 1245312225
ModificationTime: 1590876250
PfmFamily: 17
TTFWeight: 500
TTFWidth: 5
LineGap: 200
VLineGap: 0
Panose: 2 0 6 3 0 0 0 0 0 0
OS2TypoAscent: 800
OS2TypoAOffset: 0
OS2TypoDescent: -200
OS2TypoDOffset: 0
OS2TypoLinegap: 200
OS2WinAscent: 930
OS2WinAOffset: 0
OS2WinDescent: 250
OS2WinDOffset: 0
HheadAscent: 930
HheadAOffset: 0
HheadDescent: -250
HheadDOffset: 0
OS2SubXSize: 650
OS2SubYSize: 700
OS2SubXOff: 33
OS2SubYOff: 140
OS2SupXSize: 650
OS2SupYSize: 700
OS2SupXOff: -116
OS2SupYOff: 480
OS2StrikeYSize: 49
OS2StrikeYPos: 258
OS2CapHeight: 677
OS2XHeight: 430
OS2Vendor: 'PfEd'
OS2CodePages: 0000011f.00000000
OS2UnicodeRanges: e10002ff.5201e1eb.00020004.00000000
Lookup: 4 0 1 "'liga' +1FzJAAAA +1WnHTMeQ in oesol lookup 16" { "'liga' +1FzJAAAA +1WnHTMeQ in oesol lookup 16 subtable"  } ['liga' ('DFLT' <'dflt' > 'cyrl' <'MKD ' 'SRB ' 'dflt' > 'grek' <'dflt' > 'latn' <'AZE ' 'NLD ' 'TRK ' 'VIT ' 'dflt' > 'thai' <'dflt' > 'yi  ' <'dflt' > ) ]
Lookup: 1 0 0 "'case' +swDBjK1svYQA +x5DWFQAA lookup 0" { "'case' +swDBjK1svYQA +x5DWFQAA lookup 0 subtable"  } ['case' ('cyrl' <'dflt' > 'grek' <'dflt' > 'latn' <'dflt' > ) ]
Lookup: 1 0 0 "'locl' +rW2sAAAA,+ycDF7QAA +rODHINYV in +0KS5tMeQ lookup 1" { "'locl' +rW2sAAAA,+ycDF7QAA +rODHINYV in +0KS5tMeQ lookup 1 subtable"  } ['locl' ('cyrl' <'MKD ' 'SRB ' > ) ]

StartChar: .notdef
Encoding: 0 0 0
Width: 760
Flags: MW
TeX: 765 -10
HStem: 10 60<105 655 105 750> 705 60<105 105 105 655>
VStem: 10 60<112 112 112 663> 690 60<112 663 663 663>
LayerCount: 2
Fore
SplineSet
10 10 m 1
 10 765 l 1
 750 765 l 1
 750 10 l 1
 10 10 l 1
70 112 m 1
 346 388 l 1
 70 663 l 1
 70 112 l 1
105 70 m 1
 655 70 l 1
 380 346 l 1
 105 70 l 1
105 705 m 1
 380 429 l 1
 655 705 l 1
 105 705 l 1
414 388 m 1
 690 112 l 1
 690 663 l 1
 414 388 l 1
EndSplineSet
EndChar

StartChar: exclam
Encoding: 33 33 2
Width: 307
GlyphClass: 2
Flags: MW
TeX: 688 0
ItalicCorrection: 124
HStem: 0 106<161 173> 696 20G<321.5 340.5>
VStem: 112 108<48 60.5> 188 34<196.5 207> 264 109<652 688.5>
LayerCount: 2
Fore
SplineSet
112 43 m 0xe8
 112 78 146 106 176 106 c 0
 200 106 220 89 220 63 c 0
 220 33 190 0 156 0 c 0
 130 0 112 19 112 43 c 0xe8
188 201 m 0xd8
 188 204 188 208 189 211 c 2
 264 652 l 2
 274 711 314 716 329 716 c 0
 352 716 373 701 373 676 c 0
 373 666 369 656 366 646 c 2
 222 207 l 2
 219 198 215 187 202 187 c 0
 193 187 188 192 188 201 c 0xd8
EndSplineSet
EndChar

StartChar: quotedbl
Encoding: 34 34 3
Width: 511
GlyphClass: 2
Flags: MW
TeX: 688 0
ItalicCorrection: 86
HStem: 685 20G<350 359.5 503 504 504 514>
VStem: 254 24<353 353 353 356> 409 24<353 353 353 357>
LayerCount: 2
Fore
SplineSet
254 352 m 0
 254 360 302 665 306 675 c 0
 313 692 331 704 350 705 c 0
 369 705 385 693 385 673 c 0
 385 662 381 650 377 640 c 2
 278 353 l 2
 276 347 272 338 264 338 c 0
 260 338 254 341 254 352 c 0
409 354 m 0
 409 360 455 661 461 675 c 0
 468 692 484 704 503 705 c 2
 504 705 l 2
 524 705 539 691 539 673 c 0
 539 662 534 650 531 640 c 2
 433 353 l 2
 431 347 427 338 419 338 c 0
 412 338 409 344 409 354 c 0
EndSplineSet
EndChar

StartChar: numbersign
Encoding: 35 35 4
Width: 818
GlyphClass: 2
Flags: MW
TeX: 688 194
ItalicCorrection: 66
HStem: 142 22<134 305 141 294 331 512 141 319 549 750 750 752> 336 22<188 191 191 391 188 416 428 610 647 800> 672 20G<574.5 581.5 793.5 800.5>
LayerCount: 2
Fore
SplineSet
116 153 m 0
 116 164 130 164 141 164 c 2
 305 164 l 1
 391 336 l 1
 191 336 l 2
 180 336 165 336 165 347 c 0
 165 358 177 358 188 358 c 2
 403 358 l 1
 403 358 555 663 564 679 c 0
 567 684 571 692 578 692 c 0
 585 692 592 686 584 669 c 2
 428 358 l 1
 622 358 l 1
 622 358 773 663 782 679 c 0
 785 684 790 692 797 692 c 0
 804 692 810 686 802 669 c 2
 647 358 l 1
 801 358 l 2
 812 358 824 357 824 347 c 0
 824 336 811 336 800 336 c 2
 635 336 l 1
 549 164 l 1
 750 164 l 2
 761 164 776 164 776 153 c 0
 776 143 766 142 752 142 c 2
 537 142 l 1
 388 -157 l 2
 380 -173 372 -192 362 -192 c 0
 356 -192 353 -189 353 -184 c 0
 353 -170 370 -141 386 -110 c 2
 512 142 l 1
 319 142 l 1
 170 -157 l 2
 162 -173 154 -192 144 -192 c 0
 138 -192 135 -189 135 -184 c 0
 135 -170 151 -141 167 -110 c 2
 294 142 l 1
 139 142 l 2
 129 142 116 143 116 153 c 0
331 164 m 1
 524 164 l 1
 610 336 l 1
 416 336 l 1
 331 164 l 1
EndSplineSet
EndChar

StartChar: dollar
Encoding: 36 36 5
Width: 511
GlyphClass: 2
Flags: MW
TeX: 749 55
ItalicCorrection: 135
HStem: -10 30 143 79<147 151 145 180> 324 83<320 340> 486 79<506 540>
VStem: 113 32<84.5 127 127 143 84.5 146.5> 199 56<464.5 521.5> 432 56<189.5 255.5> 540 31<565 580.5>
LayerCount: 2
Fore
SplineSet
113 123 m 0
 113 170 125 222 169 222 c 0
 191 222 202 207 202 189 c 0
 202 167 185 143 151 143 c 2
 145 143 l 1
 145 127 l 2
 145 42 203 24 244 20 c 1
 320 324 l 1
 303 328 199 348 199 468 c 0
 199 575 289 691 415 705 c 1
 422 734 424 749 439 749 c 0
 449 749 453 745 453 737 c 0
 453 729 449 718 446 705 c 1
 520 699 571 657 571 578 c 0
 571 499 539 486 517 486 c 0
 495 486 483 502 483 519 c 0
 483 541 500 565 534 565 c 2
 540 565 l 1
 540 596 539 664 439 674 c 1
 370 398 l 1
 385 394 488 376 488 248 c 0
 488 131 395 5 267 -11 c 1
 261 -40 258 -55 243 -55 c 0
 233 -55 230 -49 230 -41 c 0
 230 -31 234 -18 236 -10 c 1
 156 -3 113 46 113 123 c 0
255 506 m 0
 255 423 329 410 340 407 c 1
 407 673 l 1
 311 656 255 573 255 506 c 0
276 21 m 1
 362 35 432 126 432 211 c 0
 432 300 361 312 349 315 c 1
 276 21 l 1
EndSplineSet
EndChar

StartChar: percent
Encoding: 37 37 6
Width: 817
GlyphClass: 2
Flags: MW
TeX: 749 55
ItalicCorrection: 136
HStem: -56 22<588 641.5 588 654.5> 325 22<659.5 721.5> 347 22<282 334 282 344> 621 22<576.5 623> 728 22<352 413 349.5 415>
VStem: 205 51<439 485.5 435 545> 449 30<568 630.5 559.5 652> 513 51<39 79.5 38.5 140.5> 757 31<163.5 245 160.5 254>
LayerCount: 2
Fore
SplineSet
145 -36 m 0xbf80
 145 -28 149 -24 156 -16 c 2
 729 649 l 1
 729 650 l 1
 681 628 639 621 607 621 c 0
 546 621 499 645 476 663 c 1
 479 649 479 637 479 624 c 0
 479 495 388 347 300 347 c 0
 245 347 205 398 205 480 c 0
 205 610 304 750 395 750 c 0
 431 750 447 729 455 718 c 0
 469 699 511 643 608 643 c 0
 684 643 759 682 802 732 c 0
 813 745 817 750 827 750 c 0
 837 750 846 741 846 730 c 0
 846 722 842 718 835 709 c 2
 186 -43 l 2
 176 -55 171 -56 165 -56 c 0
 155 -56 145 -47 145 -36 c 0xbf80
256 449 m 0
 256 421 262 369 302 369 c 0
 366 369 449 507 449 629 c 0
 449 675 435 728 395 728 c 0
 309 728 256 522 256 449 c 0
513 77 m 0
 513 204 610 347 704 347 c 0xdf80
 770 347 788 269 788 221 c 0
 788 100 701 -56 608 -56 c 0
 550 -56 513 1 513 77 c 0
564 46 m 0
 564 31 566 -34 610 -34 c 0
 673 -34 757 101 757 226 c 0
 757 282 739 325 704 325 c 0
 615 325 564 113 564 46 c 0
EndSplineSet
EndChar

StartChar: ampersand
Encoding: 38 38 7
Width: 766
GlyphClass: 2
Flags: MW
TeX: 688 0
ItalicCorrection: 96
HStem: -22 22<343.5 514 343.5 521> 242 78<558.5 567.5> 310 22<321 354.5 321 360> 439 22<352 375> 522 81<470.5 499 470.5 502> 616 78 694 22<377.5 439>
VStem: 126 76<124 184 95.5 194.5> 222 47 400 30<388 418.5> 490 31<306 339 306 348> 499 31 702 32<268 329> 724 80<654.5 662>
LayerCount: 2
Fore
SplineSet
126 176 m 0xdfc8
 126 213 147 305 219 383 c 0
 220 385 222 387 222 389 c 0
 222 390 222 391 220 396 c 0
 211 424 211 443 211 456 c 0
 211 582 317 716 424 716 c 0
 493 716 530 662 530 601 c 0
 530 583 527 522 477 522 c 0
 451 522 442 541 442 554 c 0
 442 555 442 603 499 603 c 1x9fd8
 498 676 454 694 424 694 c 0
 331 694 272 530 269 427 c 1
 302 449 337 461 367 461 c 0
 403 461 430 439 430 401 c 0
 430 355 386 310 334 310 c 0
 287 310 256 339 253 342 c 1
 230 301 202 212 202 156 c 0
 202 35 304 0 383 0 c 0
 645 0 702 228 702 308 c 0
 702 350 692 394 650 448 c 1
 558 391 521 368 521 310 c 0xbfe8
 521 302 521 296 524 288 c 1
 531 306 548 320 569 320 c 0
 584 320 601 312 601 289 c 0
 601 265 582 242 553 242 c 0
 518 242 490 269 490 313 c 0
 490 383 557 425 606 455 c 0
 654 485 723 529 758 616 c 1
 736 617 724 628 724 647 c 0
 724 677 750 694 771 694 c 0
 787 694 804 684 804 663 c 0xdfe4
 804 646 773 536 677 467 c 1
 712 421 734 371 734 311 c 0
 734 211 660 -22 382 -22 c 0
 217 -22 126 72 126 176 c 0xdfc8
276 379 m 1
 286 352 306 332 336 332 c 0xbfc0
 373 332 400 370 400 406 c 0
 400 431 383 439 367 439 c 0
 324 439 286 392 276 379 c 1
EndSplineSet
EndChar

StartChar: quotesingle
Encoding: 39 39 8
Width: 307
GlyphClass: 2
Flags: MW
TeX: 694 0
ItalicCorrection: 111
HStem: 685 20G<324 325 325 334.5>
VStem: 229 24<353 353 353 355> 274 86<641 683>
LayerCount: 2
Fore
SplineSet
229 352 m 0
 229 358 232 374 233 383 c 2
 274 641 l 2
 276 651 277 703 324 705 c 2
 325 705 l 2
 344 705 360 693 360 673 c 0
 360 662 355 650 352 640 c 2
 253 353 l 2
 251 347 247 338 240 338 c 0
 236 338 229 341 229 352 c 0
EndSplineSet
EndChar

StartChar: parenleft
Encoding: 40 40 9
Width: 408
GlyphClass: 2
Flags: MW
TeX: 749 249
ItalicCorrection: 161
VStem: 152 50<17.5 79 -24 100.5>
LayerCount: 2
Fore
SplineSet
152 47 m 0
 152 154 183 346 293 527 c 0
 380 669 495 750 506 750 c 0
 512 750 516 747 516 740 c 0
 516 737 515 736 501 722 c 0
 261 518 202 147 202 11 c 0
 202 -59 210 -144 264 -226 c 0
 271 -236 271 -238 271 -240 c 0
 271 -246 267 -250 261 -250 c 0
 247 -250 204 -192 179 -125 c 0
 161 -75 152 -12 152 47 c 0
EndSplineSet
EndChar

StartChar: parenright
Encoding: 41 41 10
Width: 408
GlyphClass: 2
Flags: MW
TeX: 749 249
ItalicCorrection: 36
VStem: 332 50<421 482.5 399.5 524>
LayerCount: 2
Fore
SplineSet
18 -240 m 0
 18 -237 19 -236 33 -222 c 0
 273 -18 332 353 332 489 c 0
 332 559 324 644 270 726 c 0
 263 736 263 738 263 740 c 0
 263 746 267 750 273 750 c 0
 287 750 330 692 355 625 c 0
 373 575 382 512 382 453 c 0
 382 346 351 154 241 -27 c 0
 154 -169 39 -250 28 -250 c 0
 22 -250 18 -247 18 -240 c 0
EndSplineSet
EndChar

StartChar: asterisk
Encoding: 42 42 11
Width: 511
GlyphClass: 2
Flags: MW
TeX: 749 0
ItalicCorrection: 149
VStem: 315 53<332 353> 410 53<716 737.5>
LayerCount: 2
Fore
SplineSet
195 435 m 0
 195 444 198 455 219 465 c 2
 369 535 l 1
 256 604 l 2
 245 611 242 613 242 622 c 0
 242 637 257 654 274 654 c 0
 282 654 284 652 293 643 c 2
 383 555 l 1
 410 716 l 2
 411 723 416 750 443 750 c 0
 453 750 463 743 463 732 c 0
 463 728 460 720 459 716 c 2
 406 555 l 1
 546 648 l 2
 549 650 555 654 563 654 c 0
 582 654 583 637 583 634 c 0
 583 617 569 608 559 604 c 2
 409 534 l 1
 522 466 l 2
 530 461 537 457 537 447 c 0
 537 431 520 415 505 415 c 0
 498 415 495 416 485 426 c 2
 395 514 l 1
 368 353 l 2
 367 345 362 319 336 319 c 0
 323 319 315 327 315 337 c 0
 315 342 318 349 319 353 c 2
 373 514 l 1
 232 421 l 2
 227 418 223 415 215 415 c 0
 203 415 195 423 195 435 c 0
EndSplineSet
EndChar

StartChar: plus
Encoding: 43 43 12
Width: 766
GlyphClass: 2
Flags: MW
TeX: 556 56
ItalicCorrection: 36
HStem: 239 22<174.5 437 176 431 460 715 176 454>
VStem: 507 22<542 542>
LayerCount: 2
Fore
SplineSet
141 250 m 0
 141 260 153 262 164 262 c 0
 169 262 173 261 176 261 c 2
 437 261 l 1
 438 267 505 535 507 542 c 0
 509 548 513 554 519 554 c 0
 527 554 529 549 529 542 c 0
 529 533 525 522 524 517 c 2
 460 261 l 1
 715 261 l 2
 718 261 723 262 727 262 c 0
 738 262 750 260 750 250 c 0
 750 239 738 239 715 239 c 2
 454 239 l 1
 389 -22 l 2
 384 -41 382 -54 372 -54 c 0
 364 -54 362 -49 362 -42 c 0
 362 -29 409 144 431 239 c 1
 176 239 l 2
 173 239 167 238 163 238 c 0
 152 238 141 240 141 250 c 0
EndSplineSet
EndChar

StartChar: comma
Encoding: 44 44 13
Width: 306
GlyphClass: 2
Flags: MW
TeX: 105 194
HStem: -193 21G<79.5 92> 0 106<158 167>
VStem: 113 111<26 56.5>
LayerCount: 2
Fore
SplineSet
73 -183 m 0
 73 -179 74 -178 86 -166 c 0
 133 -126 183 -62 198 15 c 1
 193 11 177 0 157 0 c 0
 136 0 113 10 113 42 c 0
 113 71 138 106 178 106 c 0
 210 106 224 80 224 47 c 0
 224 -72 101 -193 83 -193 c 0
 76 -193 73 -186 73 -183 c 0
EndSplineSet
EndChar

StartChar: hyphen
Encoding: 45 45 14
Width: 358
GlyphClass: 2
Flags: MW
TeX: 430 0
ItalicCorrection: 28
HStem: 187 56<102 315 116 308>
VStem: 86 251<194.5 235.5>
LayerCount: 2
Fore
SplineSet
86 201 m 1
 86 201 90 236 103 241 c 0
 107 243 111 243 116 243 c 2
 315 243 l 2
 326 243 337 242 337 229 c 0
 337 228 334 196 323 190 c 0
 319 188 313 187 308 187 c 2
 108 187 l 2
 96 187 86 188 86 201 c 1
EndSplineSet
EndChar

StartChar: period
Encoding: 46 46 15
Width: 307
GlyphClass: 2
Flags: MW
TeX: 105 0
HStem: 0 106<159 172>
VStem: 112 107<48 58>
LayerCount: 2
Fore
SplineSet
112 43 m 0
 112 73 142 106 176 106 c 0
 202 106 219 87 219 63 c 0
 219 33 189 0 155 0 c 0
 129 0 112 19 112 43 c 0
EndSplineSet
EndChar

StartChar: slash
Encoding: 47 47 16
Width: 511
GlyphClass: 2
Flags: W
TeX: 749 249
ItalicCorrection: 161
LayerCount: 2
Fore
SplineSet
18 -238 m 0
 18 -231 23 -223 27 -217 c 2
 570 700 l 2
 585 725 595 748 606 748 c 0
 612 748 616 742 616 737 c 0
 616 732 612 726 609 721 c 2
 66 -196 l 2
 36 -247 35 -248 27 -248 c 0
 21 -248 18 -244 18 -238 c 0
EndSplineSet
EndChar

StartChar: zero
Encoding: 48 48 17
Width: 511
GlyphClass: 2
Flags: MW
TeX: 641 0
ItalicCorrection: 135
HStem: -22 22<240 282 240 284> 644 22<399 436.5>
VStem: 117 64<132.5 139 59 192.5> 493 62<513 516 455.5 582>
LayerCount: 2
Fore
SplineSet
117 148 m 0
 117 237 160 412 209 505 c 0
 269 619 349 666 421 666 c 0
 550 666 555 536 555 496 c 0
 555 415 517 257 476 164 c 0
 411 19 317 -22 251 -22 c 0
 117 -22 117 117 117 148 c 0
181 98 m 0
 181 20 224 0 256 0 c 0
 308 0 358 51 380 98 c 0
 423 193 493 476 493 550 c 0
 493 614 457 644 416 644 c 0
 382 644 328 622 291 547 c 0
 256 475 181 180 181 98 c 0
EndSplineSet
Substitution2: "'onum' +xiy03MKk0MDHfMIrx5AA lookup 15 subtable" zerooldstyle
EndChar

StartChar: one
Encoding: 49 49 18
Width: 511
GlyphClass: 2
Flags: MW
TeX: 641 0
ItalicCorrection: 135
HStem: 0 31<145 153 153 153.5 383 391 391 399> 506 31<254 254> 646 20G<446 452>
LayerCount: 2
Fore
SplineSet
117 12 m 0
 117 31 128 31 145 31 c 2
 153 31 l 2
 231 31 239 41 247 73 c 2
 365 547 l 1
 318 512 269 506 254 506 c 0
 250 506 238 506 238 518 c 0
 238 535 249 536 254 537 c 0
 283 540 353 547 430 650 c 0
 442 665 443 666 449 666 c 0
 455 666 461 662 461 654 c 0
 461 652 459 644 458 641 c 2
 315 70 l 2
 314 66 312 57 312 51 c 0
 312 37 318 36 340 33 c 0
 353 32 370 31 383 31 c 2
 391 31 l 2
 407 31 417 31 417 19 c 0
 417 0 404 0 397 0 c 0
 353 0 307 3 263 3 c 0
 220 3 175 0 132 0 c 0
 128 0 117 0 117 12 c 0
EndSplineSet
Substitution2: "'onum' +xiy03MKk0MDHfMIrx5AA lookup 15 subtable" oneoldstyle
EndChar

StartChar: two
Encoding: 50 50 19
Width: 511
GlyphClass: 2
Flags: MW
TeX: 641 0
ItalicCorrection: 135
HStem: -22 70<349 396.5 349 411.5> 55 22<168.5 188> 336 22<211 247.5 211 255.5> 644 22<331 412.5>
VStem: 84 32 165 30<389 423.5 377 431.5> 315 22<478.5 499> 480 35 480 71<461.5 554.5 432.5 575.5>
LayerCount: 2
Fore
SplineSet
84 -12 m 0xff
 84 -11 95 59 165 143 c 0
 207 195 249 219 294 246 c 0
 393 305 480 389 480 534 c 0
 480 617 433 644 392 644 c 0
 270 644 195 456 195 391 c 0
 195 363 205 358 217 358 c 0
 278 358 315 464 315 493 c 0
 315 505 311 518 305 530 c 0
 304 532 304 534 304 536 c 0
 304 542 309 547 315 547 c 0
 328 547 337 512 337 494 c 0
 337 456 295 336 216 336 c 0
 171 336 165 379 165 399 c 0
 165 464 247 666 395 666 c 0
 473 666 551 612 551 497 c 0xfe80
 551 368 460 306 306 219 c 0
 275 201 202 160 152 74 c 1
 154 75 163 77 174 77 c 0
 205 77 244 68 280 60 c 0
 296 56 335 48 363 48 c 0
 430 48 469 115 483 156 c 0
 487 172 488 173 500 173 c 0
 507 173 515 173 515 163 c 0
 515 152 469 -22 354 -22 c 0
 314 -22 283 0 257 18 c 0
 232 35 204 55 172 55 c 0
 142 55 124 19 116 -9 c 0
 113 -20 111 -22 99 -22 c 0
 94 -22 84 -22 84 -12 c 0xff
EndSplineSet
Substitution2: "'onum' +xiy03MKk0MDHfMIrx5AA lookup 15 subtable" twooldstyle
EndChar

StartChar: three
Encoding: 51 51 20
Width: 511
GlyphClass: 2
Flags: MW
TeX: 641 0
ItalicCorrection: 135
HStem: -22 22<203 250.5 203 291> 104 80 319 31<294.5 327 304 327 327 331> 412 22<245 269.5 245 273.5> 644 22<368.5 435.5>
VStem: 95 31 199 30<462 510.5 462 518.5> 316 22<479 503.5> 408 72<143 276.5> 502 60<546 574.5 494 590>
LayerCount: 2
Fore
SplineSet
95 106 m 0
 95 124 97 184 148 184 c 0
 171 184 182 168 182 152 c 0
 182 137 169 100 126 104 c 1
 128 30 178 0 228 0 c 0
 273 0 319 25 347 59 c 0
 399 119 408 218 408 236 c 0
 408 317 350 319 331 319 c 2
 303 319 l 2
 286 319 278 319 278 329 c 0
 278 350 287 350 304 350 c 2
 327 350 l 2
 492 350 502 538 502 554 c 0
 502 626 454 644 417 644 c 0
 320 644 229 550 229 471 c 0
 229 453 235 434 255 434 c 0
 284 434 316 462 316 496 c 0
 316 511 309 524 308 525 c 0
 305 531 304 533 304 536 c 0
 304 542 309 547 315 547 c 0
 327 547 338 516 338 497 c 0
 338 447 292 412 255 412 c 0
 218 412 199 441 199 476 c 0
 199 561 300 666 419 666 c 0
 497 666 562 617 562 532 c 0
 562 456 504 365 400 330 c 1
 476 295 480 222 480 203 c 0
 480 83 354 -22 228 -22 c 0
 143 -22 95 38 95 106 c 0
EndSplineSet
Substitution2: "'onum' +xiy03MKk0MDHfMIrx5AA lookup 15 subtable" threeoldstyle
EndChar

StartChar: four
Encoding: 52 52 21
Width: 511
GlyphClass: 2
Flags: MW
TeX: 641 194
ItalicCorrection: 135
HStem: -194 21G<281 295.5> -15 31<381.5 393.5 381.5 395> 1 21G<55 62> 36 31<165 177> 646 20G<430.5 450>
VStem: 403 69
LayerCount: 2
Fore
SplineSet
44 18 m 0xbc
 44 34 76 51 83 54 c 0
 87 57 176 127 255 255 c 0
 326 371 370 491 403 616 c 0
 410 643 416 666 445 666 c 0
 455 666 472 661 472 640 c 0
 472 639 414 316 144 66 c 1
 157 67 159 67 171 67 c 0
 193 67 210 67 247 56 c 0
 276 46 235 59 308 33 c 1
 309 39 347 189 350 199 c 0
 354 216 360 242 390 242 c 0
 393 242 417 241 417 215 c 0
 417 212 417 210 413 195 c 2
 369 17 l 1
 374 16 378 16 385 16 c 0
 402 16 427 20 445 27 c 0
 455 31 457 31 459 31 c 0
 468 31 474 19 474 14 c 0
 474 -2 409 -15 381 -15 c 0xdc
 375 -15 367 -15 361 -14 c 1
 324 -160 l 2
 318 -183 305 -194 286 -194 c 0
 276 -194 259 -189 259 -168 c 0
 259 -164 259 -162 263 -147 c 2
 300 2 l 1
 278 10 254 20 241 25 c 0
 206 36 186 36 168 36 c 0
 109 36 100 29 91 21 c 0
 80 13 65 1 59 1 c 0
 51 1 44 14 44 18 c 0xbc
EndSplineSet
Substitution2: "'onum' +xiy03MKk0MDHfMIrx5AA lookup 15 subtable" fouroldstyle
EndChar

StartChar: five
Encoding: 53 53 22
Width: 511
GlyphClass: 2
Flags: MW
TeX: 641 0
ItalicCorrection: 135
HStem: -22 28<218 254.5 218 300> 122 86<145.5 165> 398 22<350.5 385.5> 558 76<395 424> 570 95<287.5 294.5>
VStem: 107 31 426 72<281.5 304.5 189 336>
LayerCount: 2
Fore
SplineSet
107 117 m 0xf6
 107 149 113 208 165 208 c 0
 188 208 201 194 201 174 c 0
 201 151 182 122 148 122 c 0
 143 122 141 122 138 123 c 1
 139 26 200 6 236 6 c 0
 273 6 332 28 376 109 c 0
 397 149 426 254 426 309 c 0
 426 363 406 398 365 398 c 0
 336 398 281 389 230 329 c 0
 223 322 221 319 214 319 c 0
 208 319 201 321 201 331 c 0
 201 333 202 341 203 344 c 2
 279 648 l 2
 282 659 284 665 291 665 c 0xee
 295 665 299 663 305 660 c 0
 334 644 373 634 417 634 c 0xf6
 456 634 501 642 546 662 c 0
 551 664 555 665 558 665 c 0xee
 561 665 567 663 567 656 c 0
 567 641 479 558 369 558 c 0xf6
 349 558 326 560 307 567 c 0
 297 570 295 570 294 570 c 0xee
 293 570 292 569 289 558 c 2
 243 374 l 1
 280 403 321 420 367 420 c 0
 454 420 498 344 498 265 c 0
 498 113 364 -22 236 -22 c 0
 150 -22 107 44 107 117 c 0xf6
EndSplineSet
Substitution2: "'onum' +xiy03MKk0MDHfMIrx5AA lookup 15 subtable" fiveoldstyle
EndChar

StartChar: six
Encoding: 54 54 23
Width: 511
GlyphClass: 2
Flags: MW
TeX: 641 0
ItalicCorrection: 135
HStem: -22 28<226.5 284 226.5 317> 404 22<336.5 371> 521 80<511 533> 641 25<439.5 481>
VStem: 120 65<82.5 193> 435 72<294 295 195 332.5> 482 86<546 612>
LayerCount: 2
Fore
SplineSet
120 158 m 0xfc
 120 228 142 387 227 507 c 0
 299 609 389 666 471 666 c 0
 531 666 568 637 568 587 c 0
 568 549 550 521 516 521 c 0
 490 521 482 539 482 553 c 0xfa
 482 560 487 601 535 601 c 1
 525 637 492 641 470 641 c 0
 409 641 356 593 325 554 c 0
 279 495 255 429 232 339 c 1
 262 383 306 426 367 426 c 0
 480 426 507 320 507 270 c 0
 507 120 380 -22 254 -22 c 0
 120 -22 120 131 120 158 c 0xfc
185 97 m 0
 185 68 197 6 256 6 c 0
 312 6 354 49 380 96 c 0
 400 135 435 271 435 317 c 0xfc
 435 348 426 368 417 380 c 0
 400 404 378 404 364 404 c 0
 231 404 185 176 185 97 c 0
EndSplineSet
Substitution2: "'onum' +xiy03MKk0MDHfMIrx5AA lookup 15 subtable" sixoldstyle
EndChar

StartChar: seven
Encoding: 55 55 24
Width: 511
GlyphClass: 2
Flags: MW
TeX: 641 0
ItalicCorrection: 135
HStem: -22 21G<294.5 322.5> 527 22<459.5 476> 596 70<377.5 387.5>
VStem: 268 91
LayerCount: 2
Fore
SplineSet
144 432 m 0
 144 433 144 435 150 447 c 2
 246 651 l 2
 253 665 254 666 265 666 c 0
 270 666 280 666 280 656 c 0
 280 655 280 653 257 603 c 1
 315 658 364 666 391 666 c 0
 432 666 436 636 440 598 c 0
 443 564 446 549 468 549 c 0
 509 549 546 589 583 643 c 2
 598 663 l 2
 602 666 606 666 611 666 c 0
 617 666 625 666 625 656 c 0
 625 654 625 652 616 639 c 0
 588 596 542 527 490 415 c 0
 432 291 390 164 359 44 c 0
 351 10 342 -22 303 -22 c 0
 286 -22 268 -11 268 11 c 0
 268 15 287 122 378 304 c 0
 411 370 412 372 513 538 c 1
 499 531 484 527 468 527 c 0
 451 527 435 532 419 561 c 0
 402 589 397 596 378 596 c 0
 342 596 250 575 175 430 c 0
 171 423 170 422 159 422 c 0
 152 422 144 422 144 432 c 0
EndSplineSet
Substitution2: "'onum' +xiy03MKk0MDHfMIrx5AA lookup 15 subtable" sevenoldstyle
EndChar

StartChar: eight
Encoding: 56 56 25
Width: 511
GlyphClass: 2
Flags: MW
TeX: 641 0
ItalicCorrection: 135
HStem: -22 28<223 301 223 315> 641 25<378.5 443.5>
VStem: 97 50<81 137.5> 210 55<497 513> 435 59<150.5 188.5> 509 45<511 579>
LayerCount: 2
Fore
SplineSet
97 115 m 0
 97 160 116 258 286 337 c 1
 241 377 240 378 234 386 c 0
 224 399 210 427 210 463 c 0
 210 563 310 666 420 666 c 0
 490 666 554 624 554 548 c 0
 554 474 496 408 397 360 c 1
 420 340 459 306 465 299 c 0
 485 272 494 240 494 208 c 0
 494 93 378 -22 252 -22 c 0
 167 -22 97 31 97 115 c 0
147 113 m 0
 147 49 191 6 255 6 c 0
 347 6 435 86 435 166 c 0
 435 211 412 230 387 252 c 2
 305 321 l 1
 206 274 147 186 147 113 c 0
265 509 m 0
 265 485 275 463 293 448 c 2
 369 384 l 2
 376 377 377 377 378 377 c 0
 384 377 509 445 509 550 c 0
 509 608 470 641 417 641 c 0
 340 641 265 575 265 509 c 0
EndSplineSet
Substitution2: "'onum' +xiy03MKk0MDHfMIrx5AA lookup 15 subtable" eightoldstyle
EndChar

StartChar: nine
Encoding: 57 57 26
Width: 511
GlyphClass: 2
Flags: MW
TeX: 641 0
ItalicCorrection: 135
HStem: -22 28<200 245 200 260> 42 81 219 22<272.5 335> 641 25<385.5 446.5>
VStem: 104 86<31.5 98> 165 72<321 450> 488 65<466 571.5>
LayerCount: 2
Fore
SplineSet
104 58 m 0xfa
 104 94 122 123 156 123 c 0
 182 123 190 105 190 91 c 0xfa
 190 86 187 46 139 42 c 1
 152 13 186 6 214 6 c 0
 276 6 324 58 345 84 c 0
 389 140 414 200 440 306 c 1
 409 259 365 219 305 219 c 0
 190 219 165 331 165 376 c 0xf6
 165 524 292 666 423 666 c 0
 553 666 553 515 553 488 c 0
 553 444 539 267 439 126 c 0
 392 59 308 -22 212 -22 c 0
 150 -22 104 5 104 58 c 0xfa
237 328 m 0xf6
 237 314 237 241 308 241 c 0
 445 241 488 478 488 550 c 0
 488 593 472 641 421 641 c 0
 350 641 307 573 295 551 c 0
 267 501 237 366 237 328 c 0xf6
EndSplineSet
Substitution2: "'onum' +xiy03MKk0MDHfMIrx5AA lookup 15 subtable" nineoldstyle
EndChar

StartChar: colon
Encoding: 58 58 27
Width: 306
GlyphClass: 2
Flags: MW
TeX: 430 0
ItalicCorrection: 58
HStem: 0 106<162 174> 325 106<242 255>
VStem: 113 109<48 59.5> 194 109<372.5 383.5>
LayerCount: 2
Fore
SplineSet
113 43 m 0xe0
 113 76 146 106 178 106 c 0
 206 106 222 85 222 63 c 0
 222 33 191 0 157 0 c 0
 131 0 113 17 113 43 c 0xe0
194 368 m 0xd0
 194 399 225 431 259 431 c 0
 287 431 303 411 303 388 c 0
 303 357 272 325 238 325 c 0
 210 325 194 345 194 368 c 0xd0
EndSplineSet
EndChar

StartChar: semicolon
Encoding: 59 59 28
Width: 307
GlyphClass: 2
Flags: MW
TeX: 430 194
ItalicCorrection: 58
HStem: -193 21<79.5 92> 0 106<158 167> 325 106<241 254>
VStem: 113 111<26 56.5> 194 107<373 383>
LayerCount: 2
Fore
SplineSet
194 368 m 0x28
 194 398 224 431 258 431 c 0
 284 431 301 412 301 388 c 0
 301 358 271 325 237 325 c 0
 211 325 194 344 194 368 c 0x28
73 -183 m 0xd0
 73 -179 74 -178 86 -166 c 0
 133 -126 183 -62 198 15 c 1
 193 11 177 0 157 0 c 0
 136 0 113 10 113 42 c 0
 113 71 138 106 178 106 c 0
 210 106 224 80 224 47 c 0
 224 -72 101 -193 83 -193 c 0
 76 -193 73 -186 73 -183 c 0xd0
EndSplineSet
EndChar

StartChar: less
Encoding: 60 60 29
Width: 766
GlyphClass: 2
Flags: MW
TeX: 533 39
ItalicCorrection: 83
VStem: 166 35<248 249 248 255>
LayerCount: 2
Fore
SplineSet
166 250 m 0
 166 260 183 266 194 271 c 2
 765 524 l 2
 774 528 777 529 780 529 c 0
 786 529 791 524 791 519 c 0
 791 509 778 505 765 499 c 2
 261 276 l 2
 241 267 221 257 201 249 c 1
 201 248 l 1
 211 243 220 238 230 232 c 2
 641 -3 l 2
 652 -10 656 -15 656 -20 c 0
 656 -25 651 -29 646 -29 c 0
 639 -29 632 -24 627 -21 c 2
 192 227 l 2
 178 235 166 241 166 250 c 0
EndSplineSet
EndChar

StartChar: equal
Encoding: 61 61 30
Width: 766
GlyphClass: 2
Flags: MW
TeX: 366 -133
ItalicCorrection: 66
HStem: 142 22<133 699 141 697> 336 22<210.5 214 214 748>
LayerCount: 2
Fore
SplineSet
116 153 m 0
 116 163 129 164 141 164 c 2
 699 164 l 2
 706 164 713 165 719 162 c 0
 725 159 727 151 722 146 c 0
 719 143 717 142 697 142 c 2
 138 142 l 2
 128 142 116 143 116 153 c 0
165 347 m 0
 165 356 174 358 185 358 c 2
 754 358 l 2
 762 358 773 357 773 347 c 0
 773 336 759 336 748 336 c 2
 214 336 l 2
 207 336 199 335 192 335 c 2
 189 335 l 2
 179 335 165 336 165 347 c 0
EndSplineSet
EndChar

StartChar: greater
Encoding: 62 62 31
Width: 766
GlyphClass: 2
Flags: MW
TeX: 533 39
ItalicCorrection: 11
VStem: 689 35<251 252 252 252>
LayerCount: 2
Fore
SplineSet
99 -19 m 0
 99 -9 112 -5 125 1 c 2
 629 224 l 2
 649 233 669 243 689 251 c 1
 689 252 l 1
 666 264 644 277 621 290 c 2
 249 502 l 2
 237 509 234 515 234 520 c 0
 234 525 239 529 244 529 c 0
 249 529 255 525 259 523 c 2
 698 273 l 2
 712 265 724 259 724 250 c 0
 724 240 707 234 696 229 c 2
 138 -18 l 2
 129 -22 118 -29 110 -29 c 0
 104 -29 99 -24 99 -19 c 0
EndSplineSet
EndChar

StartChar: question
Encoding: 63 63 32
Width: 511
GlyphClass: 2
Flags: MW
TeX: 688 0
ItalicCorrection: 122
HStem: 0 106<263.5 276> 187 22<297 321.5 297 339.5> 431 81<239 241> 694 22<390 454>
VStem: 194 83<467 484.5> 215 109<47.5 60> 246 35<240.5 262.5 235 288.5> 386 32 516 35<570.5 627.5 544 635>
LayerCount: 2
Fore
SplineSet
194 463 m 0xf980
 194 506 278 716 431 716 c 0
 504 716 551 663 551 592 c 0
 551 496 482 441 441 409 c 2
 363 346 l 2
 299 296 281 282 281 243 c 0
 281 227 288 209 306 209 c 0
 337 209 372 237 386 277 c 0
 390 290 391 292 403 292 c 0
 408 292 418 292 418 282 c 0
 418 258 373 187 306 187 c 0
 264 187 246 224 246 257 c 0xf380
 246 320 290 354 315 375 c 2
 436 470 l 2
 465 494 516 535 516 606 c 0
 516 664 477 694 431 694 c 0
 349 694 275 612 239 512 c 1
 269 512 277 494 277 480 c 0
 277 454 254 431 228 431 c 0
 215 431 194 437 194 463 c 0xf980
215 43 m 0xf580
 215 77 248 106 279 106 c 0
 309 106 324 83 324 63 c 0
 324 32 293 0 259 0 c 0
 234 0 215 18 215 43 c 0xf580
EndSplineSet
EndChar

StartChar: at
Encoding: 64 64 33
Width: 766
GlyphClass: 2
Flags: MW
TeX: 688 0
ItalicCorrection: 95
HStem: -11 22<320 395> 128 22<388.5 450 629 663.5> 544 22<479.5 559> 683 22<466.5 618.5>
VStem: 151 31<182.5 358 182.5 364> 279 61<247 335.5 247 357.5> 759 30<424 514.5>
LayerCount: 2
Fore
SplineSet
151 248 m 0
 151 480 356 705 557 705 c 0
 684 705 789 611 789 445 c 0
 789 354 747 244 746 241 c 0
 731 200 699 128 628 128 c 0
 607 128 556 136 553 193 c 1
 533 174 483 128 417 128 c 0
 341 128 279 188 279 286 c 0
 279 429 403 566 522 566 c 0
 601 566 627 501 635 481 c 1
 661 481 l 2
 677 481 684 481 684 471 c 0
 684 470 683 461 682 458 c 2
 617 195 l 2
 616 189 614 181 614 175 c 0
 614 150 626 150 632 150 c 0
 721 150 759 400 759 448 c 0
 759 581 681 683 556 683 c 0
 377 683 182 470 182 246 c 0
 182 119 251 11 389 11 c 0
 478 11 566 34 647 71 c 0
 663 78 665 78 681 78 c 0
 700 78 706 78 706 68 c 0
 706 52 584 17 558 11 c 0
 471 -11 402 -11 388 -11 c 0
 230 -11 151 113 151 248 c 0
340 270 m 0
 340 224 357 150 420 150 c 0
 488 150 561 232 570 268 c 2
 610 430 l 2
 610 432 613 443 613 444 c 0
 613 458 596 544 522 544 c 0
 437 544 340 401 340 270 c 0
EndSplineSet
EndChar

StartChar: A
Encoding: 65 65 34
Width: 743
GlyphClass: 2
Flags: MW
TeX: 688 0
HStem: 0 31<663 669 663 678> 230 30<307 515 307 517 289 515> 696 20G<539.5 558.5>
VStem: 59 145<8.5 75.5>
AnchorPoint: "Anchor-5" 546 705 basechar 0
AnchorPoint: "Anchor-4" 370 0 basechar 0
AnchorPoint: "Anchor-1" 587 0 basechar 0
LayerCount: 2
Fore
SplineSet
59 14 m 0
 59 54 120 -5 190 113 c 2
 517 689 l 2
 523 698 530 716 549 716 c 0
 568 716 567 700 568 688 c 2
 611 67 l 2
 613 36 623 32 663 31 c 0
 675 31 690 32 690 17 c 0
 690 10 686 0 670 0 c 0
 650 0 629 3 567 3 c 0
 490 3 465 0 455 0 c 0
 445 0 440 7 440 14 c 0
 440 44 488 19 520 46 c 0
 527 52 528 61 528 73 c 0
 528 88 523 135 517 230 c 1
 289 230 l 1
 225 118 204 86 204 65 c 0
 204 23 259 40 259 19 c 0
 259 12 257 0 239 0 c 0
 230 0 203 3 150 3 c 0
 117 3 93 0 81 0 c 0
 65 0 59 3 59 14 c 0
307 260 m 1
 515 260 l 1
 493 587 l 1
 307 260 l 1
EndSplineSet
EndChar

StartChar: B
Encoding: 66 66 35
Width: 703
GlyphClass: 2
Flags: MW
TeX: 688 0
ItalicCorrection: 102
HStem: 0 31<84 90 90 126 274 398 398 420> 344 22<323 455 455 489 317 455> 652 31<255 270.5 417.5 434 434 552>
VStem: 588 89<183.5 245> 646 88<510.5 568.5>
AnchorPoint: "Anchor-5" 497 705 basechar 0
AnchorPoint: "Anchor-4" 321 0 basechar 0
LayerCount: 2
Fore
SplineSet
65 12 m 0xf0
 65 31 76 31 92 31 c 0
 160 31 166 39 174 73 c 2
 309 616 l 2
 313 630 313 632 313 635 c 0
 313 652 286 652 255 652 c 0
 236 652 228 652 228 664 c 0
 228 683 239 683 255 683 c 2
 566 683 l 2
 675 683 734 619 734 547 c 0xe8
 734 470 660 384 538 357 c 1
 610 348 677 302 677 219 c 0
 677 115 562 0 420 0 c 2
 90 0 l 2
 74 0 65 0 65 12 c 0xf0
243 41 m 0
 243 34 243 31 274 31 c 2
 398 31 l 2
 508 31 588 135 588 232 c 0xf0
 588 258 582 344 489 344 c 2
 317 344 l 1
 247 63 l 2
 246 57 243 47 243 41 c 0
323 366 m 1
 455 366 l 2
 569 366 646 468 646 553 c 0xe8
 646 584 636 652 552 652 c 2
 434 652 l 2
 401 652 394 652 385 616 c 2
 323 366 l 1
EndSplineSet
EndChar

StartChar: C
Encoding: 67 67 36
Width: 715
GlyphClass: 2
Flags: MW
TeX: 688 0
ItalicCorrection: 145
HStem: -22 31<367 450.5 367 492.5> 674 31<540.5 596 468 632>
VStem: 150 87<163 238 136 362.5> 668 31 716 33<425 438> 721 91
AnchorPoint: "Anchor-5" 571 705 basechar 0
AnchorPoint: "Anchor-4" 401 0 basechar 0
LayerCount: 2
Fore
SplineSet
150 245 m 0xf4
 150 480 365 705 571 705 c 0
 621 705 679 689 722 620 c 1
 785 694 l 2
 794 705 799 705 801 705 c 0
 811 705 812 697 812 695 c 0xf4
 812 691 811 685 810 681 c 2
 749 438 l 2
 745 421 742 420 731 420 c 0
 726 420 716 420 716 430 c 0xf8
 716 433 721 465 721 491 c 0
 721 578 685 674 579 674 c 0
 502 674 410 628 342 536 c 0
 262 426 237 269 237 207 c 0
 237 65 325 9 409 9 c 0
 492 9 617 73 668 242 c 0
 671 250 678 250 684 250 c 0
 689 250 699 250 699 240 c 0
 699 192 590 -22 395 -22 c 0
 257 -22 150 81 150 245 c 0xf4
EndSplineSet
EndChar

StartChar: D
Encoding: 68 68 37
Width: 755
GlyphClass: 2
Flags: MW
TeX: 688 0
ItalicCorrection: 94
HStem: 0 31<82 88 88 124 275 378 378 395> 652 31<253 268.5 418.5 435 435 532>
VStem: 692 83<446.5 509.5 325.5 541.5>
AnchorPoint: "Anchor-5" 522 705 basechar 0
AnchorPoint: "Anchor-4" 346 0 basechar 0
LayerCount: 2
Fore
SplineSet
63 12 m 0
 63 31 74 31 90 31 c 0
 158 31 164 39 172 73 c 2
 307 616 l 2
 311 630 311 632 311 635 c 0
 311 652 284 652 253 652 c 0
 234 652 226 652 226 664 c 0
 226 683 237 683 253 683 c 2
 565 683 l 2
 694 683 775 581 775 438 c 0
 775 213 584 0 395 0 c 2
 88 0 l 2
 72 0 63 0 63 12 c 0
244 41 m 0
 244 34 244 31 275 31 c 2
 378 31 l 2
 458 31 529 73 578 130 c 0
 663 230 692 417 692 476 c 0
 692 607 613 652 532 652 c 2
 435 652 l 2
 402 652 395 651 386 616 c 2
 248 63 l 2
 247 57 244 47 244 41 c 0
EndSplineSet
EndChar

StartChar: E
Encoding: 69 69 38
Width: 678
GlyphClass: 2
Flags: MW
TeX: 688 0
ItalicCorrection: 120
HStem: 0 31<81 87 87 123 277 399 399 478.5> 338 31<327 406 319 408> 649 31<251 280 419.5 436 436 561>
AnchorPoint: "Anchor-5" 518 705 basechar 0
AnchorPoint: "Anchor-4" 341 0 basechar 0
AnchorPoint: "Anchor-1" 341 0 basechar 0
LayerCount: 2
Fore
SplineSet
62 12 m 0
 62 31 73 31 89 31 c 0
 157 31 163 39 171 73 c 2
 305 609 l 2
 309 624 309 631 309 632 c 0
 309 641 309 649 251 649 c 0
 231 649 224 649 224 662 c 0
 224 680 234 680 251 680 c 2
 718 680 l 2
 739 680 745 680 742 654 c 2
 719 477 l 2
 717 459 716 455 702 455 c 0
 698 455 687 455 687 467 c 0
 687 470 688 479 689 484 c 0
 692 508 694 521 694 548 c 0
 694 619 669 649 561 649 c 2
 436 649 l 2
 403 649 396 648 388 615 c 2
 327 369 l 1
 408 369 l 2
 489 369 508 391 527 462 c 0
 533 483 533 486 546 486 c 0
 550 486 562 486 562 474 c 0
 562 472 560 464 559 461 c 2
 504 241 l 2
 500 223 497 221 486 221 c 0
 480 221 470 221 470 233 c 0
 470 236 472 242 472 244 c 0
 480 273 481 288 481 295 c 0
 481 322 474 338 406 338 c 2
 319 338 l 1
 250 63 l 2
 249 57 246 47 246 41 c 0
 246 34 246 31 277 31 c 2
 399 31 l 2
 558 31 593 96 651 234 c 0
 660 257 661 258 672 258 c 0
 675 258 687 258 687 247 c 0
 687 246 684 237 683 235 c 2
 594 16 l 2
 587 1 586 0 566 0 c 2
 87 0 l 2
 71 0 62 0 62 12 c 0
EndSplineSet
EndChar

StartChar: F
Encoding: 70 70 39
Width: 652
GlyphClass: 2
Flags: MW
TeX: 688 0
ItalicCorrection: 133
HStem: 0 31<81 96 322 332 332 340> 325 31<324 399 316 402> 649 31<251 280 419.5 436 436 553>
VStem: 675 32<461 477>
AnchorPoint: "Anchor-5" 499 705 basechar 0
AnchorPoint: "Anchor-4" 323 0 basechar 0
LayerCount: 2
Fore
SplineSet
62 12 m 0
 62 31 73 31 89 31 c 0
 157 31 163 39 171 73 c 2
 305 609 l 2
 309 624 309 631 309 632 c 0
 309 641 309 649 251 649 c 0
 231 649 224 649 224 662 c 0
 224 680 234 680 251 680 c 2
 706 680 l 2
 727 680 733 680 730 654 c 2
 707 477 l 2
 705 459 704 455 690 455 c 0
 686 455 675 455 675 467 c 2
 676 483 l 2
 679 506 682 525 682 549 c 0
 682 618 660 649 553 649 c 2
 436 649 l 2
 403 649 396 648 388 615 c 2
 324 356 l 1
 402 356 l 2
 485 356 501 381 519 452 c 0
 524 470 525 473 538 473 c 0
 541 473 553 473 553 462 c 0
 553 457 552 452 551 448 c 2
 496 228 l 2
 491 209 488 208 477 208 c 0
 473 208 462 208 462 220 c 0
 462 223 463 227 465 234 c 0
 469 250 473 266 473 283 c 0
 473 310 464 325 399 325 c 2
 316 325 l 1
 253 73 l 2
 249 58 249 56 249 52 c 0
 249 39 249 31 322 31 c 2
 332 31 l 2
 348 31 357 31 357 19 c 0
 357 0 345 0 336 0 c 0
 291 0 244 3 198 3 c 0
 158 3 116 0 76 0 c 0
 73 0 62 0 62 12 c 0
EndSplineSet
EndChar

StartChar: G
Encoding: 71 71 40
Width: 773
GlyphClass: 2
Flags: MW
TeX: 688 0
ItalicCorrection: 87
HStem: -22 31<366.5 433 366.5 442> 1 21G<626.5 635.5> 242 31<524.5 532 532 540 739.5 750.5> 674 31<540.5 596 468 632>
VStem: 150 87<164.5 237 141.5 362.5> 716 33<425 438> 721 91
AnchorPoint: "Anchor-5" 571 705 basechar 0
AnchorPoint: "Anchor-4" 402 0 basechar 0
LayerCount: 2
Fore
SplineSet
150 245 m 0xba
 150 480 365 705 571 705 c 0
 621 705 679 689 722 620 c 1
 785 694 l 2
 794 705 799 705 801 705 c 0
 811 705 812 697 812 695 c 0xba
 812 691 811 685 810 681 c 2
 749 438 l 2
 745 421 742 420 731 420 c 0
 726 420 716 420 716 430 c 0xbc
 716 433 721 465 721 491 c 0
 721 578 685 674 579 674 c 0
 502 674 410 628 342 536 c 0
 261 425 237 266 237 208 c 0
 237 75 319 9 414 9 c 0xba
 452 9 507 21 550 60 c 0
 580 88 582 99 604 188 c 0
 612 216 612 218 612 222 c 0
 612 236 604 237 583 240 c 0
 570 241 553 242 540 242 c 2
 532 242 l 2
 517 242 506 242 506 253 c 0
 506 273 519 273 527 273 c 0
 570 273 615 270 658 270 c 0
 690 270 724 273 755 273 c 0
 764 273 768 268 768 260 c 0
 768 242 757 242 744 242 c 0
 700 242 698 232 692 209 c 2
 644 18 l 2
 641 7 639 1 632 1 c 0x7a
 621 1 599 37 590 61 c 1
 561 24 488 -22 396 -22 c 0
 254 -22 150 84 150 245 c 0xba
EndSplineSet
EndChar

StartChar: H
Encoding: 72 72 41
Width: 743
GlyphClass: 2
Flags: MW
TeX: 688 0
ItalicCorrection: 163
HStem: 0 31<81 95 294.5 316 437 451 650.5 672> 340 31<327 593 319 601> 652 31<242.5 263.5 241 267.5 463 476.5 598.5 619.5 819 832.5>
AnchorPoint: "Anchor-5" 547 705 basechar 0
AnchorPoint: "Anchor-4" 371 0 basechar 0
LayerCount: 2
Fore
SplineSet
62 12 m 0
 62 31 73 31 89 31 c 0
 157 31 163 39 171 73 c 2
 306 616 l 2
 310 630 310 632 310 635 c 0
 310 652 283 652 252 652 c 0
 233 652 225 652 225 664 c 0
 225 683 238 683 244 683 c 0
 283 683 324 680 364 680 c 0
 403 680 444 683 482 683 c 0
 489 683 496 681 496 670 c 0
 496 652 487 652 466 652 c 0
 403 652 395 644 387 612 c 2
 327 371 l 1
 601 371 l 1
 662 616 l 2
 666 630 666 632 666 635 c 0
 666 652 639 652 608 652 c 0
 589 652 581 652 581 664 c 0
 581 683 594 683 600 683 c 0
 639 683 680 680 720 680 c 0
 759 680 800 683 838 683 c 0
 845 683 852 681 852 670 c 0
 852 652 843 652 822 652 c 0
 759 652 751 644 743 612 c 2
 608 71 l 2
 604 56 604 49 604 48 c 0
 604 39 604 31 662 31 c 0
 682 31 689 31 689 18 c 0
 689 0 677 0 670 0 c 0
 631 0 590 3 550 3 c 0
 511 3 470 0 432 0 c 0
 429 0 418 0 418 12 c 0
 418 31 429 31 445 31 c 0
 513 31 519 39 527 73 c 2
 593 340 l 1
 319 340 l 1
 252 68 l 2
 248 54 248 52 248 48 c 0
 248 39 248 31 306 31 c 0
 326 31 333 31 333 18 c 0
 333 0 321 0 314 0 c 0
 275 0 234 3 194 3 c 0
 155 3 114 0 76 0 c 0
 73 0 62 0 62 12 c 0
EndSplineSet
EndChar

StartChar: I
Encoding: 73 73 42
Width: 385
GlyphClass: 2
Flags: MW
TeX: 688 0
ItalicCorrection: 158
HStem: 0 31<76.5 91 298 320> 652 31<237 259.5 235.5 264 467 480.5>
AnchorPoint: "Anchor-5" 370 705 basechar 0
AnchorPoint: "Anchor-4" 193 0 basechar 0
AnchorPoint: "Anchor-1" 193 0 basechar 0
LayerCount: 2
Fore
SplineSet
57 13 m 0
 57 31 66 31 87 31 c 0
 154 31 163 39 171 72 c 2
 307 616 l 2
 308 619 310 632 310 635 c 0
 310 652 281 652 247 652 c 0
 227 652 220 652 220 665 c 0
 220 683 232 683 239 683 c 0
 280 683 323 680 364 680 c 0
 405 680 447 683 487 683 c 0
 491 683 501 683 501 671 c 0
 501 652 491 652 470 652 c 0
 401 652 395 643 387 611 c 2
 252 71 l 2
 248 56 248 50 248 49 c 0
 248 38 248 31 310 31 c 0
 330 31 338 31 338 19 c 0
 338 0 325 0 318 0 c 0
 278 0 235 3 194 3 c 0
 153 3 111 0 71 0 c 0
 64 0 57 2 57 13 c 0
EndSplineSet
EndChar

StartChar: J
Encoding: 74 74 43
Width: 525
GlyphClass: 2
Flags: MW
TeX: 688 0
ItalicCorrection: 140
HStem: -22 22<189.5 237.5 189.5 259> 65 98<154.5 156> 652 31<365 373 373 385 591.5 603.5>
VStem: 94 103<111.5 124.5>
AnchorPoint: "Anchor-5" 520 705 basechar 0
AnchorPoint: "Anchor-4" 262 0 basechar 0
LayerCount: 2
Fore
SplineSet
94 86 m 0
 94 163 153 163 156 163 c 0
 177 163 197 150 197 124 c 0
 197 99 175 65 137 65 c 0
 130 65 128 65 126 66 c 1
 134 25 169 0 210 0 c 0
 265 0 322 70 341 145 c 2
 457 611 l 2
 461 625 461 627 461 631 c 0
 461 646 453 647 431 650 c 0
 413 652 402 652 385 652 c 2
 373 652 l 2
 357 652 348 652 348 664 c 0
 348 683 360 683 369 683 c 0
 413 683 460 680 505 680 c 0
 539 680 575 683 608 683 c 0
 616 683 622 680 622 671 c 0
 622 652 611 652 596 652 c 0
 551 652 544 644 537 616 c 2
 420 144 l 2
 398 53 306 -22 212 -22 c 0
 148 -22 94 18 94 86 c 0
EndSplineSet
EndChar

StartChar: K
Encoding: 75 75 44
Width: 768
GlyphClass: 2
Flags: MW
TeX: 688 0
ItalicCorrection: 145
HStem: 0 31<81 95 294.5 316 490.5 500.5 691 695.5> 652 31<242.5 263.5 241 267.5 463 476.5>
AnchorPoint: "Anchor-5" 558 705 basechar 0
AnchorPoint: "Anchor-4" 382 0 basechar 0
LayerCount: 2
Fore
SplineSet
62 12 m 0
 62 31 73 31 89 31 c 0
 157 31 163 39 171 73 c 2
 306 616 l 2
 310 630 310 632 310 635 c 0
 310 652 283 652 252 652 c 0
 233 652 225 652 225 664 c 0
 225 683 238 683 244 683 c 0
 283 683 324 680 364 680 c 0
 403 680 444 683 482 683 c 0
 489 683 496 681 496 670 c 0
 496 652 487 652 466 652 c 0
 403 652 395 644 387 612 c 2
 308 293 l 1
 660 586 l 2
 676 599 693 614 693 632 c 0
 693 646 681 651 667 652 c 0
 662 652 653 653 653 664 c 0
 653 683 666 683 672 683 c 0
 706 683 744 680 779 680 c 0
 802 680 827 683 848 683 c 0
 855 683 859 678 859 671 c 0
 859 654 849 653 841 652 c 0
 775 646 707 589 684 570 c 2
 500 417 l 1
 631 70 l 2
 643 39 655 32 691 31 c 0
 700 31 709 31 709 19 c 0
 709 4 701 0 692 0 c 0
 663 0 631 3 601 3 c 0
 564 3 525 0 489 0 c 0
 482 0 475 2 475 13 c 0
 475 31 487 31 494 31 c 0
 507 31 545 32 545 64 c 0
 545 67 545 69 539 84 c 2
 435 363 l 1
 296 248 l 1
 261 104 l 2
 256 86 248 54 248 48 c 0
 248 39 248 31 306 31 c 0
 326 31 333 31 333 18 c 0
 333 0 321 0 314 0 c 0
 275 0 234 3 194 3 c 0
 155 3 114 0 76 0 c 0
 73 0 62 0 62 12 c 0
EndSplineSet
EndChar

StartChar: L
Encoding: 76 76 45
Width: 627
GlyphClass: 2
Flags: MW
TeX: 688 0
HStem: 0 31<81 87 87 123 277 358 358 436> 652 31<242.5 264 241 267.5 482.5 492>
AnchorPoint: "Anchor-5" 486 705 basechar 0
AnchorPoint: "Anchor-4" 310 0 basechar 0
LayerCount: 2
Fore
SplineSet
62 12 m 0
 62 31 73 31 89 31 c 0
 157 31 163 39 171 73 c 2
 306 616 l 2
 310 630 310 632 310 635 c 0
 310 652 283 652 252 652 c 0
 233 652 225 652 225 664 c 0
 225 683 238 683 244 683 c 0
 284 683 326 680 367 680 c 0
 413 680 460 683 505 683 c 0
 509 683 520 683 520 671 c 0
 520 652 509 652 492 652 c 2
 482 652 l 2
 401 652 395 642 386 607 c 2
 250 63 l 2
 249 57 246 47 246 41 c 0
 246 34 246 31 277 31 c 2
 358 31 l 2
 514 31 557 147 589 236 c 0
 596 255 597 258 609 258 c 0
 612 258 624 258 624 246 c 0
 624 245 620 234 620 233 c 2
 544 18 l 2
 538 1 537 0 515 0 c 2
 87 0 l 2
 71 0 62 0 62 12 c 0
EndSplineSet
EndChar

StartChar: M
Encoding: 77 77 46
Width: 896
GlyphClass: 2
Flags: MW
TeX: 688 0
ItalicCorrection: 163
HStem: 0 31<81 85 81 94 271 275 595 608.5 801.5 822> 652 31<256 271.5 940.5 977 977 982.5>
AnchorPoint: "Anchor-5" 624 705 basechar 0
AnchorPoint: "Anchor-4" 448 0 basechar 0
LayerCount: 2
Fore
SplineSet
66 12 m 0
 66 30 77 31 85 31 c 0
 130 33 168 45 182 101 c 2
 310 616 l 2
 314 630 314 632 314 635 c 0
 314 652 287 652 256 652 c 0
 237 652 229 652 229 664 c 0
 229 683 240 683 256 683 c 2
 389 683 l 2
 413 683 415 683 417 661 c 2
 473 100 l 1
 813 665 l 2
 824 683 827 683 849 683 c 2
 977 683 l 2
 994 683 1002 683 1002 670 c 0
 1002 652 993 652 972 652 c 0
 909 652 901 644 893 612 c 2
 758 71 l 2
 754 56 754 49 754 48 c 0
 754 39 754 31 812 31 c 0
 832 31 839 31 839 18 c 0
 839 0 827 0 820 0 c 0
 783 0 742 3 704 3 c 0
 666 3 627 0 590 0 c 0
 587 0 576 0 576 12 c 0
 576 31 587 31 603 31 c 0
 671 31 677 39 685 73 c 2
 826 639 l 1
 825 639 l 1
 452 18 l 2
 446 7 441 0 428 0 c 0
 413 0 413 7 411 24 c 2
 350 630 l 1
 349 630 l 1
 216 99 l 2
 212 83 212 77 212 74 c 0
 212 59 214 33 271 31 c 0
 283 31 290 30 290 18 c 0
 290 0 278 0 272 0 c 0
 241 0 206 3 174 3 c 0
 143 3 109 0 79 0 c 0
 72 0 66 3 66 12 c 0
EndSplineSet
EndChar

StartChar: N
Encoding: 78 78 47
Width: 743
GlyphClass: 2
Flags: MW
TeX: 688 0
ItalicCorrection: 163
HStem: 0 31<77 81 77 90 267 271> 652 31<252 255.5 643.5 646 837 838.5>
AnchorPoint: "Anchor-5" 547 705 basechar 0
AnchorPoint: "Anchor-4" 371 0 basechar 0
LayerCount: 2
Fore
SplineSet
62 12 m 0
 62 30 73 31 81 31 c 0
 127 33 164 46 178 101 c 2
 310 631 l 2
 313 641 313 643 313 644 c 0
 313 652 259 652 252 652 c 0
 233 652 225 652 225 664 c 0
 225 683 236 683 252 683 c 2
 377 683 l 2
 398 683 399 682 405 666 c 2
 592 146 l 1
 702 585 l 2
 704 593 706 600 706 609 c 0
 706 630 698 650 646 652 c 0
 637 652 628 653 628 664 c 0
 628 683 641 683 646 683 c 0
 677 683 711 680 743 680 c 0
 775 680 808 683 839 683 c 0
 848 683 852 678 852 670 c 0
 852 653 840 652 837 652 c 0
 808 651 752 648 736 584 c 2
 596 20 l 2
 591 1 587 0 576 0 c 0
 562 0 561 2 556 17 c 2
 341 614 l 1
 212 99 l 2
 208 83 208 77 208 74 c 0
 208 59 210 33 267 31 c 0
 279 31 286 30 286 18 c 0
 286 0 274 0 268 0 c 0
 237 0 202 3 170 3 c 0
 139 3 105 0 75 0 c 0
 68 0 62 3 62 12 c 0
EndSplineSet
EndChar

StartChar: O
Encoding: 79 79 48
Width: 766
GlyphClass: 2
Flags: MW
TeX: 688 0
ItalicCorrection: 94
HStem: -22 26<339.5 422.5 339.5 478> 680 25<509.5 592>
VStem: 148 90<160.5 228 145.5 352> 703 85<442 526 323.5 553>
AnchorPoint: "Anchor-5" 560 705 basechar 0
AnchorPoint: "Anchor-4" 384 0 basechar 0
AnchorPoint: "Anchor-1" 384 0 basechar 0
LayerCount: 2
Fore
SplineSet
148 236 m 0
 148 468 355 705 560 705 c 0
 686 705 788 608 788 444 c 0
 788 203 578 -22 378 -22 c 0
 242 -22 148 85 148 236 c 0
238 205 m 0
 238 86 294 4 385 4 c 0
 460 4 549 63 614 174 c 0
 667 265 703 398 703 486 c 0
 703 620 631 680 553 680 c 0
 466 680 375 607 322 513 c 0
 252 391 238 251 238 205 c 0
EndSplineSet
EndChar

StartChar: P
Encoding: 80 80 49
Width: 678
GlyphClass: 2
Flags: MW
TeX: 688 0
ItalicCorrection: 102
HStem: 0 31<82 96 295.5 317> 316 26<318 444 444 469 314 444> 652 31<253 268.5 418.5 435 435 521>
VStem: 642 88<552 577 476.5 594>
AnchorPoint: "Anchor-5" 483 705 basechar 0
AnchorPoint: "Anchor-4" 307 0 basechar 0
LayerCount: 2
Fore
SplineSet
63 12 m 0
 63 31 74 31 90 31 c 0
 158 31 164 39 172 73 c 2
 307 616 l 2
 311 630 311 632 311 635 c 0
 311 652 284 652 253 652 c 0
 234 652 226 652 226 664 c 0
 226 683 237 683 253 683 c 2
 553 683 l 2
 662 683 730 619 730 535 c 0
 730 418 595 316 469 316 c 2
 314 316 l 1
 253 68 l 2
 249 54 249 52 249 48 c 0
 249 39 249 31 307 31 c 0
 327 31 334 31 334 18 c 0
 334 0 322 0 315 0 c 0
 276 0 235 3 195 3 c 0
 156 3 115 0 77 0 c 0
 74 0 63 0 63 12 c 0
318 342 m 1
 444 342 l 2
 504 342 554 361 589 400 c 0
 627 444 642 542 642 562 c 0
 642 626 591 652 521 652 c 2
 435 652 l 2
 402 652 395 652 386 616 c 2
 318 342 l 1
EndSplineSet
EndChar

StartChar: Q
Encoding: 81 81 50
Width: 766
GlyphClass: 2
Flags: MW
TeX: 688 194
ItalicCorrection: 94
HStem: -194 94<545 580.5 545 596> -22 25<379.5 395.5> 126 22<398 447> 680 25<516 599>
VStem: 148 85<166 234 166 352> 322 22<35 61 23 67> 672 23<4.29497e+09 4.29497e+09> 704 84<436 526 354.5 539.5>
AnchorPoint: "Anchor-5" 560 705 basechar 0
AnchorPoint: "Anchor-4" 334 -194 basechar 0
LayerCount: 2
Fore
SplineSet
148 236 m 0
 148 468 355 705 560 705 c 0
 686 705 788 608 788 444 c 0
 788 265 667 78 502 6 c 1
 504 -85 528 -100 562 -100 c 0
 599 -100 649 -72 672 -2 c 0
 674 5 676 11 684 11 c 0
 690 11 695 6 695 -1 c 0
 695 -3 654 -194 538 -194 c 0
 480 -194 459 -157 459 -102 c 0
 459 -88 461 -59 469 -7 c 1
 448 -14 413 -22 378 -22 c 0
 242 -22 148 85 148 236 c 0
233 202 m 0
 233 130 256 48 327 15 c 1
 325 20 322 27 322 43 c 0
 322 91 364 148 419 148 c 0
 491 148 497 74 499 42 c 1
 660 144 704 392 704 480 c 0
 704 599 645 680 553 680 c 0
 479 680 394 625 333 532 c 0
 258 417 233 266 233 202 c 0
344 43 m 0
 344 3 374 3 385 3 c 0
 417 3 449 14 473 26 c 1
 474 34 474 46 474 54 c 0
 474 80 474 126 420 126 c 0
 376 126 344 79 344 43 c 0
EndSplineSet
EndChar

StartChar: R
Encoding: 82 82 51
Width: 729
GlyphClass: 2
Flags: MW
TeX: 688 0
ItalicCorrection: 38
HStem: -22 22<598 628.5> 0 31<82 96 292.5 314> 331 22<321 422 422 423 315 422> 652 31<253 268.5 456.5 498>
VStem: 485 95<47 72 43 93.5> 517 77<236 251 212.5 279> 628 90<555 574.5 498.5 605> 691 32
AnchorPoint: "Anchor-5" 483 705 basechar 0
AnchorPoint: "Anchor-4" 307 0 basechar 0
LayerCount: 2
Fore
SplineSet
63 12 m 0xf4
 63 31 74 31 90 31 c 0
 158 31 164 39 172 73 c 2
 307 616 l 2
 311 630 311 632 311 635 c 0
 311 652 284 652 253 652 c 0
 234 652 226 652 226 664 c 0
 226 683 237 683 253 683 c 2
 517 683 l 2
 642 683 718 614 718 535 c 0
 718 462 650 375 508 339 c 1
 559 321 594 279 594 223 c 0xf6
 594 202 589 158 586 135 c 0
 583 109 580 85 580 59 c 0
 580 27 583 0 613 0 c 0
 644 0 674 32 691 88 c 0
 694 100 695 105 708 105 c 0
 721 105 723 99 723 92 c 0
 723 84 693 -22 609 -22 c 0
 546 -22 485 10 485 84 c 0xf9
 485 103 489 117 500 164 c 0
 514 220 517 229 517 243 c 0
 517 315 465 331 423 331 c 2
 315 331 l 1
 250 68 l 2
 246 54 246 52 246 48 c 0
 246 39 246 31 304 31 c 0
 324 31 331 31 331 18 c 0
 331 0 319 0 312 0 c 0
 273 0 232 3 193 3 c 0
 155 3 115 0 77 0 c 0
 74 0 63 0 63 12 c 0xf4
321 353 m 1
 422 353 l 2
 490 353 540 376 570 405 c 0
 624 459 628 552 628 558 c 0
 628 652 530 652 466 652 c 0
 447 652 415 652 408 650 c 0
 401 648 393 646 386 616 c 2
 321 353 l 1
EndSplineSet
EndChar

StartChar: S
Encoding: 83 83 52
Width: 562
GlyphClass: 2
Flags: MW
TeX: 688 0
ItalicCorrection: 119
HStem: -22 31<275 347.5 265.5 364> 677 28<386.5 441 369.5 476>
VStem: 74 79 199 68<485.5 524.5> 470 68<175 218> 545 33<461 474> 551 81
AnchorPoint: "Anchor-5" 431 705 basechar 0
AnchorPoint: "Anchor-4" 307 0 basechar 0
LayerCount: 2
Fore
SplineSet
74 -12 m 0xfa
 74 -9 75 -6 77 1 c 2
 129 210 l 2
 133 225 135 227 147 227 c 0
 153 227 162 227 162 216 c 0
 162 214 161 212 161 210 c 0
 158 199 153 172 153 149 c 0
 153 45 228 9 303 9 c 0
 392 9 470 109 470 200 c 0
 470 236 459 258 448 272 c 0
 431 290 423 293 371 308 c 2
 322 322 l 2
 307 326 285 332 279 335 c 0
 221 362 199 415 199 467 c 0
 199 582 308 705 431 705 c 0
 451 705 522 704 561 637 c 1
 606 693 l 2
 615 704 616 705 621 705 c 0
 631 705 632 697 632 695 c 0xfa
 632 691 631 685 630 681 c 2
 578 474 l 2
 574 457 571 456 560 456 c 0
 555 456 545 456 545 466 c 2xfc
 546 480 l 2
 550 502 551 509 551 535 c 0
 551 609 523 677 429 677 c 0
 344 677 267 588 267 506 c 0
 267 465 284 433 318 418 c 0
 323 416 354 407 373 402 c 0
 468 374 480 371 505 340 c 0
 531 308 538 267 538 238 c 0
 538 112 427 -22 301 -22 c 0
 249 -22 185 -7 148 47 c 1
 138 34 112 2 101 -10 c 0
 93 -20 92 -22 85 -22 c 0
 79 -22 74 -18 74 -12 c 0xfa
EndSplineSet
EndChar

StartChar: T
Encoding: 84 84 53
Width: 715
GlyphClass: 2
Flags: MW
TeX: 688 0
ItalicCorrection: 133
HStem: 0 31<215 229.5 497 512 512 519.5> 646 31<353.5 418 418 452 618.5 679>
VStem: 754 52
AnchorPoint: "Anchor-5" 535 705 basechar 0
AnchorPoint: "Anchor-4" 358 0 basechar 0
LayerCount: 2
Fore
SplineSet
175 463 m 0
 175 465 175 467 180 480 c 2
 239 659 l 2
 245 677 248 677 268 677 c 2
 781 677 l 2
 797 677 806 677 806 665 c 0
 806 661 806 656 805 652 c 2
 775 473 l 2
 772 455 770 452 757 452 c 0
 752 452 742 452 742 465 c 0
 742 467 742 469 744 480 c 0
 754 539 754 558 754 570 c 0
 754 632 731 646 627 646 c 0
 610 646 583 646 575 644 c 0
 567 643 559 641 552 611 c 2
 418 73 l 2
 414 59 414 57 414 54 c 0
 414 40 419 36 447 33 c 0
 450 33 481 31 497 31 c 2
 512 31 l 2
 527 31 537 31 537 20 c 0
 537 0 525 0 516 0 c 0
 465 0 411 3 359 3 c 0
 308 3 255 0 204 0 c 0
 199 0 187 0 187 12 c 0
 187 31 198 31 215 31 c 2
 231 31 l 2
 319 31 328 41 337 76 c 2
 471 613 l 2
 473 619 475 628 475 635 c 0
 475 642 475 646 452 646 c 2
 418 646 l 2
 289 646 261 625 214 484 c 0
 204 458 203 457 201 455 c 0
 198 452 194 452 190 452 c 0
 187 452 175 452 175 463 c 0
EndSplineSet
EndChar

StartChar: U
Encoding: 85 85 54
Width: 743
GlyphClass: 2
Flags: MW
TeX: 688 0
ItalicCorrection: 163
HStem: -22 31<358 431 358 443.5> 652 31<242.5 263.5 241 267.5 463 476.5 646.5 649 837 838.5>
VStem: 202 75<106 145 88.5 171>
AnchorPoint: "Anchor-5" 547 705 basechar 0
AnchorPoint: "Anchor-4" 386 0 basechar 0
AnchorPoint: "Anchor-1" 386 0 basechar 0
LayerCount: 2
Fore
SplineSet
202 166 m 0
 202 176 202 198 210 230 c 2
 306 616 l 2
 310 630 310 632 310 635 c 0
 310 652 283 652 252 652 c 0
 233 652 225 652 225 664 c 0
 225 683 238 683 244 683 c 0
 283 683 324 680 364 680 c 0
 403 680 444 683 482 683 c 0
 489 683 496 681 496 670 c 0
 496 652 487 652 466 652 c 0
 403 652 395 644 387 612 c 2
 287 210 l 2
 282 188 277 156 277 134 c 0
 277 43 332 9 384 9 c 0
 478 9 584 100 616 229 c 2
 705 585 l 2
 707 593 709 600 709 609 c 0
 709 630 701 650 649 652 c 0
 640 652 631 653 631 664 c 0
 631 683 644 683 649 683 c 0
 680 683 713 680 745 680 c 0
 776 680 809 683 839 683 c 0
 848 683 852 678 852 670 c 0
 852 653 840 652 837 652 c 0
 808 651 752 648 736 584 c 2
 645 218 l 2
 618 108 507 -22 380 -22 c 0
 286 -22 202 46 202 166 c 0
EndSplineSet
EndChar

StartChar: V
Encoding: 86 86 55
Width: 743
GlyphClass: 2
Flags: MW
TeX: 688 0
ItalicCorrection: 183
HStem: -22 21G<358 372> 652 31<226 243.5 224.5 258 428 440>
VStem: 725 143<613.5 673>
AnchorPoint: "Anchor-5" 547 705 basechar 0
AnchorPoint: "Anchor-4" 372 0 basechar 0
LayerCount: 2
Fore
SplineSet
209 664 m 0
 209 683 222 683 227 683 c 0
 260 683 295 680 329 680 c 0
 367 680 407 683 444 683 c 0
 447 683 458 683 458 671 c 0
 458 652 447 652 433 652 c 0
 423 652 370 651 370 621 c 2
 421 97 l 1
 710 580 l 2
 714 587 725 607 725 620 c 0
 725 644 701 651 685 652 c 0
 677 653 669 653 669 664 c 0
 669 683 681 683 687 683 c 0
 716 683 749 680 779 680 c 0
 804 680 831 683 855 683 c 0
 866 683 868 674 868 672 c 0
 868 653 857 653 849 652 c 0
 812 649 777 638 737 571 c 2
 394 -3 l 2
 383 -21 378 -22 366 -22 c 0
 350 -22 349 -17 347 2 c 2
 287 618 l 2
 285 643 283 652 233 652 c 0
 219 652 209 652 209 664 c 0
EndSplineSet
EndChar

StartChar: W
Encoding: 87 87 56
Width: 998
GlyphClass: 2
Flags: MW
TeX: 688 0
ItalicCorrection: 183
HStem: -22 21G<316.5 331.5 656.5 669> 652 31<225 241.5 224 254.5 426 433 565 582.5 772 776>
VStem: 278 83<605 620> 306 77 622 79<560 623.5> 647 77
AnchorPoint: "Anchor-5" 676 705 basechar 0
AnchorPoint: "Anchor-4" 499 0 basechar 0
LayerCount: 2
Fore
SplineSet
208 664 m 0xe0
 208 683 222 683 226 683 c 0
 257 683 292 680 324 680 c 0
 361 680 400 683 437 683 c 0
 440 683 451 683 451 671 c 0
 451 652 440 652 426 652 c 0
 359 651 360 626 361 605 c 2xe0
 383 116 l 1
 616 544 l 2
 622 554 622 556 622 564 c 0
 622 565 619 627 618 631 c 0
 616 646 612 652 570 652 c 0
 560 652 549 652 549 664 c 0
 549 683 563 683 567 683 c 0
 598 683 633 680 665 680 c 0
 702 680 741 683 778 683 c 0
 784 683 792 681 792 672 c 0
 792 652 780 652 772 652 c 0
 707 651 701 632 701 615 c 0xd8
 701 611 701 609 702 608 c 2
 724 116 l 1
 977 582 l 2
 983 593 988 602 988 614 c 0
 988 645 954 651 937 652 c 0
 930 652 921 653 921 664 c 0
 921 683 934 683 940 683 c 0
 972 683 1007 680 1039 680 c 0
 1063 680 1089 683 1112 683 c 0
 1124 683 1124 673 1124 672 c 0
 1124 662 1120 653 1110 652 c 0
 1062 648 1038 632 1004 570 c 2
 691 -4 l 2
 681 -22 673 -22 665 -22 c 0
 648 -22 648 -16 647 3 c 2
 625 501 l 1
 350 -2 l 2
 342 -17 339 -22 324 -22 c 0
 309 -22 307 -18 306 3 c 2xd4
 278 620 l 2
 277 644 277 652 232 652 c 0
 218 652 208 652 208 664 c 0xe0
EndSplineSet
EndChar

StartChar: X
Encoding: 88 88 57
Width: 743
GlyphClass: 2
Flags: MW
TeX: 688 0
ItalicCorrection: 158
HStem: 0 31<237.5 261 665.5 684> 652 31<243 261.5 242 277 462 464.5>
AnchorPoint: "Anchor-5" 548 705 basechar 0
AnchorPoint: "Anchor-4" 372 0 basechar 0
LayerCount: 2
Fore
SplineSet
51 12 m 0
 51 13 52 30 63 31 c 0
 96 33 152 36 211 104 c 2
 419 341 l 1
 316 620 l 2
 308 642 304 652 250 652 c 0
 236 652 226 652 226 664 c 0
 226 683 239 683 245 683 c 0
 278 683 313 680 347 680 c 0
 386 680 426 683 464 683 c 0
 471 683 478 681 478 670 c 0
 478 653 467 652 462 652 c 0
 425 649 405 630 405 623 c 0
 405 622 409 612 409 611 c 2
 482 412 l 1
 630 582 l 2
 648 603 651 614 651 622 c 0
 651 649 622 651 615 652 c 0
 612 652 603 653 603 664 c 0
 603 683 615 683 621 683 c 0
 654 683 691 680 725 680 c 0
 754 680 784 683 812 683 c 0
 818 683 825 680 825 671 c 0
 825 653 815 653 804 652 c 0
 728 647 691 606 667 580 c 1
 655 570 l 1
 492 383 l 1
 611 61 l 2
 618 42 622 31 676 31 c 0
 692 31 700 31 700 18 c 0
 700 0 688 0 682 0 c 0
 649 0 613 3 579 3 c 0
 541 3 501 0 463 0 c 0
 460 0 448 0 448 12 c 0
 448 27 457 30 464 31 c 0
 500 33 521 51 521 61 c 0
 521 64 519 69 518 73 c 2
 430 312 l 1
 238 93 l 1
 237 91 l 2
 236 89 235 87 233 85 c 0
 226 75 225 65 225 61 c 0
 225 51 230 34 260 31 c 0
 262 31 273 30 273 20 c 0
 273 0 259 0 254 0 c 0
 221 0 185 3 151 3 c 0
 122 3 91 0 63 0 c 0
 53 0 51 8 51 12 c 0
EndSplineSet
EndChar

StartChar: Y
Encoding: 89 89 58
Width: 743
GlyphClass: 2
Flags: MW
TeX: 688 0
ItalicCorrection: 193
HStem: 0 31<259 266 259 274 471 491.5> 652 31<219 237.5 218 249.5 427.5 439.5>
AnchorPoint: "Anchor-5" 547 705 basechar 0
AnchorPoint: "Anchor-4" 371 0 basechar 0
LayerCount: 2
Fore
SplineSet
202 664 m 0
 202 683 215 683 221 683 c 0
 254 683 291 680 325 680 c 0
 364 680 404 683 442 683 c 0
 446 683 456 683 456 671 c 0
 456 652 445 652 434 652 c 0
 421 652 378 651 378 628 c 0
 378 627 378 625 382 615 c 2
 477 315 l 1
 696 582 l 2
 698 585 721 612 721 629 c 0
 721 645 707 651 690 652 c 0
 684 652 675 653 675 664 c 0
 675 683 687 683 693 683 c 0
 723 683 755 680 786 680 c 0
 811 680 838 683 862 683 c 0
 874 683 874 673 874 672 c 0
 874 653 864 653 855 652 c 0
 807 648 769 627 722 570 c 2
 486 283 l 2
 479 275 479 273 474 256 c 0
 464 214 455 181 443 133 c 0
 436 104 424 56 424 48 c 0
 424 31 451 31 482 31 c 0
 501 31 509 31 509 19 c 0
 509 0 496 0 490 0 c 0
 452 0 410 3 371 3 c 0
 333 3 293 0 255 0 c 0
 252 0 241 0 241 12 c 0
 241 31 252 31 266 31 c 0
 340 32 341 35 354 90 c 0
 359 109 400 268 400 273 c 0
 400 277 398 283 396 288 c 2
 290 622 l 2
 283 645 273 652 226 652 c 0
 212 652 202 652 202 664 c 0
EndSplineSet
EndChar

StartChar: Z
Encoding: 90 90 59
Width: 613
GlyphClass: 2
Flags: MW
TeX: 688 0
ItalicCorrection: 145
HStem: 0 34<91 103 177 324 324 411> 652 31<389 468 468 608>
VStem: 208 33
AnchorPoint: "Anchor-5" 485 705 basechar 0
AnchorPoint: "Anchor-4" 309 0 basechar 0
LayerCount: 2
Fore
SplineSet
80 9 m 0
 80 21 86 28 91 34 c 2
 608 652 l 1
 468 652 l 2
 310 652 270 567 241 476 c 0
 236 462 235 458 223 458 c 0
 220 458 208 458 208 469 c 0
 208 470 210 480 211 482 c 2
 265 663 l 2
 271 682 272 683 294 683 c 2
 681 683 l 2
 698 683 704 683 704 674 c 0
 704 669 703 661 692 648 c 2
 177 34 l 1
 324 34 l 2
 498 34 532 127 569 242 c 0
 577 266 578 267 589 267 c 0
 595 267 605 267 605 255 c 0
 605 254 601 241 600 239 c 2
 532 18 l 2
 526 0 525 0 503 0 c 2
 103 0 l 2
 87 0 80 0 80 9 c 0
EndSplineSet
EndChar

StartChar: bracketleft
Encoding: 91 91 60
Width: 307
GlyphClass: 2
Flags: MW
TeX: 749 249
ItalicCorrection: 187
HStem: -250 23<127 174 174 177> 727 23<365 420 365 365>
LayerCount: 2
Fore
SplineSet
63 -236 m 0
 63 -232 64 -227 65 -223 c 2
 298 709 l 2
 306 743 306 750 329 750 c 2
 421 750 l 2
 430 750 443 749 443 739 c 0
 443 729 431 727 420 727 c 2
 365 727 l 1
 127 -227 l 1
 174 -227 l 2
 186 -227 198 -228 198 -238 c 0
 198 -249 186 -250 177 -250 c 2
 85 -250 l 2
 73 -250 63 -248 63 -236 c 0
EndSplineSet
EndChar

StartChar: backslash
Encoding: 92 92 61
Width: 511
GlyphClass: 2
Flags: MW
TeX: 749 249
VStem: 262 23<723 723 723 732 723 736> 350 23<-239 -223>
LayerCount: 2
Fore
SplineSet
262 722 m 1
 262 732 l 2
 262 740 264 748 272 748 c 0
 283 748 284 735 285 723 c 2
 373 -223 l 1
 373 -233 l 2
 373 -245 367 -248 363 -248 c 0
 352 -248 351 -235 350 -223 c 2
 262 722 l 1
EndSplineSet
EndChar

StartChar: bracketright
Encoding: 93 93 62
Width: 307
GlyphClass: 2
Flags: MW
TeX: 749 249
ItalicCorrection: 105
HStem: -250 23<5.5 67 12 67 12 103> 727 23<255 256 256 305>
LayerCount: 2
Fore
SplineSet
-11 -239 m 0
 -11 -229 1 -227 12 -227 c 2
 67 -227 l 1
 305 727 l 1
 256 727 l 2
 245 727 233 728 233 738 c 0
 233 748 246 750 255 750 c 2
 347 750 l 2
 359 750 369 748 369 736 c 0
 369 732 368 728 367 724 c 2
 133 -210 l 2
 125 -243 126 -250 103 -250 c 2
 10 -250 l 2
 1 -250 -11 -249 -11 -239 c 0
EndSplineSet
EndChar

StartChar: asciicircum
Encoding: 94 94 63
Width: 613
GlyphClass: 2
Flags: MW
TeX: 688 0
ItalicCorrection: 66
HStem: 575 51<452 461 452 461>
LayerCount: 2
Fore
SplineSet
248 476 m 0
 248 485 257 491 269 499 c 0
 442 618 451 626 460 626 c 2
 461 626 l 2
 470 626 469 624 589 498 c 0
 594 492 603 485 603 477 c 0
 603 470 595 461 587 461 c 2
 586 461 l 2
 578 461 577 463 453 575 c 1
 452 575 l 1
 281 469 l 2
 276 466 269 461 262 461 c 0
 254 461 248 470 248 476 c 0
EndSplineSet
EndChar

StartChar: underscore
Encoding: 95 95 64
Width: 766
GlyphClass: 2
Flags: MW
TeX: 0 232
HStem: -233 40<66.5 580 79 580 580 581>
LayerCount: 2
Fore
SplineSet
50 -213 m 0
 50 -205 54 -193 79 -193 c 2
 580 -193 l 2
 606 -193 609 -205 609 -213 c 0
 609 -234 584 -233 581 -233 c 2
 79 -233 l 2
 54 -233 50 -221 50 -213 c 0
EndSplineSet
EndChar

StartChar: grave
Encoding: 96 96 65
Width: 511
GlyphClass: 2
Flags: MW
TeX: 641 0
HStem: 499 152<304.5 403 304.5 404>
VStem: 274 147<510 624.5>
LayerCount: 2
Fore
SplineSet
274 614 m 0
 274 635 297 651 312 651 c 0
 331 651 340 632 347 623 c 0
 408 538 421 524 421 515 c 0
 421 505 411 499 404 499 c 2
 403 499 l 2
 396 499 395 501 290 587 c 0
 283 594 274 601 274 614 c 0
EndSplineSet
EndChar

StartChar: a
Encoding: 97 97 66
Width: 511
GlyphClass: 2
Flags: MW
TeX: 430 0
ItalicCorrection: 76
HStem: -11 22<207.5 247 421 450.5> 420 22<316.5 353 281.5 359>
VStem: 108 68<101.5 125 85 217> 420 67
AnchorPoint: "Anchor-5" 337 442 basechar 0
AnchorPoint: "Anchor-4" 226 0 basechar 0
AnchorPoint: "Anchor-3" 685 694 basechar 0
AnchorPoint: "Anchor-2" 462 -194 basechar 0
AnchorPoint: "Anchor-1" 435 0 basechar 0
LayerCount: 2
Fore
SplineSet
108 144 m 0
 108 290 226 442 337 442 c 0
 369 442 401 426 420 383 c 1
 421 388 428 422 460 422 c 0
 470 422 487 417 487 396 c 0
 487 391 487 389 483 375 c 2
 415 103 l 2
 408 75 408 59 408 52 c 0
 408 38 408 11 434 11 c 0
 468 11 487 74 501 130 c 0
 507 152 508 153 520 153 c 0
 527 153 535 153 535 143 c 0
 535 141 523 83 505 45 c 0
 490 14 469 -11 432 -11 c 0
 397 -11 360 10 349 59 c 1
 309 10 265 -11 229 -11 c 0
 154 -11 108 59 108 144 c 0
176 100 m 0
 176 70 184 11 231 11 c 0
 286 11 348 92 356 124 c 2
 403 313 l 2
 405 319 406 324 406 326 c 0
 406 368 381 420 337 420 c 0
 296 420 250 370 225 309 c 0
 207 267 176 150 176 100 c 0
EndSplineSet
EndChar

StartChar: b
Encoding: 98 98 67
Width: 460
GlyphClass: 2
Flags: MW
TeX: 688 0
ItalicCorrection: 63
HStem: -11 22<217.5 255.5 217.5 286> 420 22<320 359.5> 674 20G<290.5 296>
VStem: 115 57<99 129 69.5 160> 392 67<310 339.5 212.5 347>
AnchorPoint: "Anchor-5" 406 694 basechar 0
AnchorPoint: "Anchor-4" 233 0 basechar 0
AnchorPoint: "Anchor-3" 634 694 basechar 0
AnchorPoint: "Anchor-2" 411 -194 basechar 0
LayerCount: 2
Fore
SplineSet
115 141 m 0
 115 179 125 220 126 223 c 2
 225 618 l 2
 225 619 228 632 228 635 c 0
 228 645 226 652 178 652 c 0
 164 652 154 652 154 663 c 0
 154 682 165 683 177 684 c 2
 276 692 l 2
 279 693 289 694 292 694 c 0
 300 694 306 691 306 682 c 0
 306 680 304 672 303 669 c 2
 233 389 l 1
 267 421 301 442 339 442 c 0
 399 442 459 393 459 286 c 0
 459 139 342 -11 230 -11 c 0
 157 -11 115 57 115 141 c 0
172 107 m 0
 172 32 205 11 230 11 c 0
 281 11 324 81 336 106 c 0
 365 170 392 289 392 331 c 0
 392 363 382 420 337 420 c 0
 299 420 261 386 232 346 c 0
 217 326 217 324 210 300 c 0
 181 186 172 151 172 107 c 0
EndSplineSet
EndChar

StartChar: c
Encoding: 99 99 68
Width: 460
GlyphClass: 2
Flags: MW
TeX: 430 0
ItalicCorrection: 56
HStem: -11 22<232 267.5 232 321> 296 81 420 22<341.5 369.5>
VStem: 110 70<104.5 140.5 85 227> 385 85<320 380.5>
AnchorPoint: "Anchor-5" 362 442 basechar 0
AnchorPoint: "Anchor-4" 260 0 basechar 0
AnchorPoint: "Anchor-3" 634 694 basechar 0
AnchorPoint: "Anchor-2" 411 -194 basechar 0
LayerCount: 2
Fore
SplineSet
110 154 m 0
 110 300 239 442 363 442 c 0
 427 442 470 405 470 356 c 0
 470 318 446 296 419 296 c 0
 396 296 385 312 385 328 c 0
 385 330 385 371 435 377 c 1
 420 418 375 420 364 420 c 0
 319 420 269 385 233 320 c 0
 207 272 180 167 180 114 c 0
 180 56 205 11 259 11 c 0
 276 11 365 15 439 109 c 0
 447 119 448 120 452 120 c 0
 460 120 468 109 468 104 c 0
 468 89 385 -11 257 -11 c 0
 169 -11 110 55 110 154 c 0
EndSplineSet
EndChar

StartChar: d
Encoding: 100 100 69
Width: 511
GlyphClass: 2
Flags: MW
TeX: 688 0
ItalicCorrection: 103
HStem: -11 22<207.5 247 421 450.5> 420 22<316.5 341> 674 20G<544.5 550>
VStem: 108 68<101.5 125 85 217>
AnchorPoint: "Anchor-5" 399 694 basechar 0
AnchorPoint: "Anchor-4" 282 0 basechar 0
AnchorPoint: "Anchor-3" 685 694 basechar 0
AnchorPoint: "Anchor-2" 462 -194 basechar 0
LayerCount: 2
Fore
SplineSet
108 144 m 0
 108 290 226 442 337 442 c 0
 379 442 406 415 421 384 c 1
 479 618 l 2
 479 619 482 632 482 635 c 0
 482 645 480 652 432 652 c 0
 418 652 408 652 408 663 c 0
 408 682 419 683 431 684 c 2
 530 692 l 2
 533 693 543 694 546 694 c 0
 554 694 560 691 560 682 c 0
 560 680 558 672 557 669 c 2
 414 98 l 2
 408 74 408 59 408 52 c 0
 408 38 408 11 434 11 c 0
 468 11 487 74 501 130 c 0
 507 152 508 153 520 153 c 0
 527 153 535 153 535 143 c 0
 535 141 523 83 505 45 c 0
 490 14 469 -11 432 -11 c 0
 397 -11 360 10 349 59 c 1
 309 10 265 -11 229 -11 c 0
 154 -11 108 59 108 144 c 0
176 100 m 0
 176 70 184 11 231 11 c 0
 286 11 347 91 355 122 c 2
 403 314 l 2
 405 320 406 324 406 327 c 0
 406 346 396 375 386 391 c 0
 368 419 345 420 337 420 c 0
 296 420 250 370 225 309 c 0
 207 267 176 150 176 100 c 0
EndSplineSet
EndChar

StartChar: e
Encoding: 101 101 70
Width: 460
GlyphClass: 2
Flags: MW
TeX: 430 0
ItalicCorrection: 75
HStem: -11 22<226.5 267.5 226.5 321> 231 22<206 227 227 239 200 227> 420 22<357 382>
VStem: 114 69<119 140 101.5 252.5> 425 38<353.5 376>
AnchorPoint: "Anchor-5" 362 442 basechar 0
AnchorPoint: "Anchor-4" 260 0 basechar 0
AnchorPoint: "Anchor-3" 634 694 basechar 0
AnchorPoint: "Anchor-2" 411 -194 basechar 0
AnchorPoint: "Anchor-1" 260 0 basechar 0
LayerCount: 2
Fore
SplineSet
114 164 m 0
 114 341 257 442 362 442 c 0
 426 442 463 403 463 357 c 0
 463 350 463 285 384 253 c 0
 336 234 269 231 239 231 c 2
 200 231 l 1
 193 204 183 159 183 121 c 0
 183 82 194 11 259 11 c 0
 276 11 365 15 439 109 c 0
 447 119 448 120 452 120 c 0
 460 120 468 109 468 104 c 0
 468 89 385 -11 257 -11 c 0
 162 -11 114 74 114 164 c 0
206 253 m 1
 227 253 l 2
 260 253 425 253 425 359 c 0
 425 393 402 420 362 420 c 0
 352 420 249 417 206 253 c 1
EndSplineSet
EndChar

StartChar: f
Encoding: 102 102 71
Width: 306
GlyphClass: 2
Flags: MW
TeX: 688 194
ItalicCorrection: 211
HStem: -205 22<50 73 50 107> -165 81 400 31<143.5 219 153 213 283 359> 584 81 683 22<352 374>
VStem: -25 84<-126 -121.5> 368 84<621.5 626>
AnchorPoint: "Anchor-5" 350 694 basechar 0
AnchorPoint: "Anchor-4" 81 -194 basechar 0
AnchorPoint: "Anchor-3" 480 694 basechar 0
AnchorPoint: "Anchor-2" 257 -194 basechar 0
LayerCount: 2
Fore
SplineSet
-25 -139 m 0
 -25 -104 0 -84 25 -84 c 0
 41 -84 59 -94 59 -116 c 0
 59 -136 45 -160 15 -165 c 1
 26 -180 45 -183 55 -183 c 0
 91 -183 104 -131 112 -97 c 0
 118 -76 128 -35 140 27 c 2
 213 400 l 1
 151 400 l 2
 136 400 126 400 126 411 c 0
 126 431 137 431 153 431 c 2
 219 431 l 1
 240 541 l 2
 247 575 272 705 370 705 c 0
 411 705 452 682 452 639 c 0
 452 604 427 584 402 584 c 0
 386 584 368 594 368 616 c 0
 368 636 382 660 412 665 c 1
 399 681 378 683 370 683 c 0
 334 683 323 630 315 593 c 0
 300 523 297 505 283 431 c 1
 361 431 l 2
 378 431 386 431 386 418 c 0
 386 400 376 400 359 400 c 2
 277 400 l 1
 207 41 l 2
 200 5 159 -205 55 -205 c 0
 18 -205 -25 -184 -25 -139 c 0
EndSplineSet
EndChar

StartChar: g
Encoding: 103 103 72
Width: 460
GlyphClass: 2
Flags: MW
TeX: 430 194
ItalicCorrection: 88
HStem: -205 22<169.5 183.5 169.5 226.5> 0 22<207 257.5> 420 22<317.5 358.5 281 367>
VStem: 53 84<-134.5 -127.5> 110 68<110.5 133 103.5 223.5> 421 66
AnchorPoint: "Anchor-5" 336 442 basechar 0
AnchorPoint: "Anchor-4" 177 -194 basechar 0
AnchorPoint: "Anchor-3" 634 694 basechar 0
AnchorPoint: "Anchor-2" 411 -194 basechar 0
LayerCount: 2
Fore
SplineSet
53 -147 m 0xf4
 53 -108 84 -94 102 -94 c 0
 128 -94 137 -113 137 -126 c 0xf4
 137 -143 125 -164 105 -172 c 1
 132 -183 163 -183 176 -183 c 0
 191 -183 231 -183 271 -136 c 0
 299 -102 305 -81 317 -31 c 2
 338 53 l 1
 326 41 283 0 232 0 c 0
 157 0 110 68 110 153 c 0xec
 110 294 225 442 337 442 c 0
 380 442 407 414 421 385 c 1
 425 414 448 422 460 422 c 0
 470 422 487 417 487 396 c 0
 487 392 487 390 483 375 c 2
 374 -63 l 2
 355 -139 279 -205 174 -205 c 0
 90 -205 53 -187 53 -147 c 0xf4
178 109 m 0xec
 178 98 180 22 234 22 c 0
 289 22 350 100 358 132 c 2
 403 314 l 1
 406 328 l 2
 406 336 397 420 337 420 c 0
 298 420 254 375 229 321 c 0
 208 274 178 157 178 109 c 0xec
EndSplineSet
EndChar

StartChar: h
Encoding: 104 104 73
Width: 511
GlyphClass: 2
Flags: MW
TeX: 688 0
ItalicCorrection: 76
HStem: -11 22<399.5 439 399.5 454.5> 420 22<329.5 382> 674 20G<290.5 296>
VStem: 332 56<47 52.5 33 79.5> 406 61<323 364.5> 503 32
AnchorPoint: "Anchor-5" 402 694 basechar 0
AnchorPoint: "Anchor-4" 228 0 basechar 0
AnchorPoint: "Anchor-3" 685 694 basechar 0
AnchorPoint: "Anchor-2" 462 -194 basechar 0
LayerCount: 2
Fore
SplineSet
75 15 m 0
 75 17 76 26 77 28 c 2
 225 618 l 2
 225 619 228 632 228 635 c 0
 228 645 226 652 178 652 c 0
 164 652 154 652 154 663 c 0
 154 682 165 683 177 684 c 2
 276 692 l 2
 279 693 289 694 292 694 c 0
 300 694 306 691 306 682 c 0
 306 680 304 672 303 669 c 2
 230 377 l 1
 261 407 296 442 363 442 c 0
 412 442 467 420 467 338 c 0
 467 280 426 168 406 115 c 0
 398 91 388 65 388 40 c 0
 388 26 389 11 410 11 c 0
 468 11 495 109 503 136 c 0
 507 151 507 153 520 153 c 0
 527 153 535 153 535 143 c 0
 535 138 501 -11 408 -11 c 0
 360 -11 332 25 332 69 c 0
 332 90 335 99 348 133 c 0
 362 173 406 292 406 354 c 0
 406 375 404 420 360 420 c 0
 290 420 247 357 227 325 c 0
 209 293 208 291 199 255 c 0
 194 233 188 212 183 190 c 0
 176 162 144 32 140 17 c 0
 137 6 124 -11 103 -11 c 0
 84 -11 75 4 75 15 c 0
EndSplineSet
EndChar

StartChar: i
Encoding: 105 105 74
Width: 306
GlyphClass: 2
Flags: MW
TeX: 661 0
ItalicCorrection: 101
HStem: -11 22<202 235 202 251> 420 22<180 214.5> 575 81<281.5 288>
VStem: 83 33 128 56<49.5 52 25.5 79> 231 55<380 389.5 352.5 403.5> 244 82<608.5 622> 299 32
AnchorPoint: "Anchor-5" 313 636 basechar 0
AnchorPoint: "Anchor-4" 154 0 basechar 0
AnchorPoint: "Anchor-3" 480 694 basechar 0
AnchorPoint: "Anchor-2" 257 -194 basechar 0
AnchorPoint: "Anchor-1" 207 0 basechar 0
LayerCount: 2
Fore
SplineSet
244 608 m 0xfa
 244 636 271 656 292 656 c 0
 306 656 326 648 326 623 c 0
 326 594 298 575 278 575 c 0
 264 575 244 583 244 608 c 0xfa
83 288 m 0xdd
 83 293 117 442 211 442 c 0
 248 442 286 417 286 362 c 0
 286 343 284 335 274 306 c 2
 210 135 l 2
 197 98 184 65 184 39 c 0
 184 12 198 11 206 11 c 0
 264 11 291 107 299 136 c 0
 303 151 303 153 316 153 c 0
 323 153 331 153 331 143 c 0
 331 139 298 -11 204 -11 c 0
 152 -11 128 30 128 69 c 0
 128 89 132 100 146 138 c 0
 158 171 170 204 183 237 c 2
 213 320 l 2
 220 339 231 368 231 392 c 0
 231 415 220 420 209 420 c 0
 151 420 125 327 116 294 c 0
 112 280 111 278 98 278 c 0
 93 278 83 278 83 288 c 0xdd
EndSplineSet
EndChar

StartChar: j
Encoding: 106 106 75
Width: 306
GlyphClass: 2
Flags: MW
TeX: 661 194
ItalicCorrection: 144
HStem: -205 22<36 76 36 84> -174 80 420 22<208 246.5> 575 81<310.5 320>
VStem: -35 84<-128.5 -127.5> 83 34 261 60<372 375.5 345 389> 274 83<609.5 620>
AnchorPoint: "Anchor-4" 84 -194 basechar 0
AnchorPoint: "Anchor-3" 480 694 basechar 0
AnchorPoint: "Anchor-2" 257 -194 basechar 0
LayerCount: 2
Fore
SplineSet
-35 -147 m 0xfe
 -35 -108 -4 -94 14 -94 c 0
 40 -94 49 -113 49 -126 c 0
 49 -131 46 -163 11 -174 c 1
 13 -175 27 -183 45 -183 c 0
 107 -183 146 -105 159 -52 c 2
 254 329 l 2
 258 345 261 364 261 380 c 0
 261 398 259 420 234 420 c 0
 182 420 142 358 117 295 c 0
 111 279 111 278 98 278 c 0
 93 278 83 278 83 288 c 0
 83 295 136 442 235 442 c 0
 291 442 321 399 321 352 c 0
 321 338 317 322 316 319 c 2
 223 -55 l 2
 202 -140 122 -205 46 -205 c 0
 2 -205 -35 -184 -35 -147 c 0xfe
274 608 m 0xfd
 274 632 298 656 323 656 c 0
 335 656 357 650 357 622 c 0
 357 597 332 575 308 575 c 0
 284 575 274 595 274 608 c 0xfd
EndSplineSet
EndChar

StartChar: k
Encoding: 107 107 76
Width: 460
GlyphClass: 2
Flags: MW
TeX: 688 0
ItalicCorrection: 107
HStem: -11 22<360.5 393> 326 82 420 22<412.5 446.5> 674 20G<290.5 296>
VStem: 287 58<50 65.5 44 91> 294 64<141.5 174> 417 85<351.5 395> 450 34
AnchorPoint: "Anchor-5" 391 694 basechar 0
AnchorPoint: "Anchor-4" 218 0 basechar 0
AnchorPoint: "Anchor-3" 634 694 basechar 0
AnchorPoint: "Anchor-2" 411 -194 basechar 0
LayerCount: 2
Fore
SplineSet
75 15 m 0xf4
 75 17 76 26 77 28 c 2
 225 618 l 2
 225 619 228 632 228 635 c 0
 228 645 226 652 178 652 c 0
 164 652 154 652 154 663 c 0
 154 682 165 683 177 684 c 2
 276 692 l 2
 279 693 289 694 292 694 c 0
 300 694 306 691 306 682 c 0
 306 680 304 672 303 669 c 2
 201 261 l 1
 236 278 252 294 309 360 c 0
 343 400 386 442 439 442 c 0
 484 442 502 408 502 382 c 0
 502 344 474 326 452 326 c 0
 426 326 417 345 417 358 c 0
 417 366 422 401 464 408 c 1
 463 409 456 420 437 420 c 0
 387 420 348 374 296 315 c 0
 269 284 248 263 225 249 c 1
 288 240 358 213 358 145 c 0xf6
 358 132 358 131 353 110 c 0
 352 105 345 77 345 54 c 0
 345 34 347 11 374 11 c 0
 418 11 437 79 450 130 c 0
 456 152 457 153 469 153 c 0
 476 153 484 153 484 143 c 0
 484 140 470 79 448 41 c 0
 437 22 415 -11 371 -11 c 0
 334 -11 287 14 287 86 c 0xf9
 287 96 287 103 291 120 c 0
 294 134 294 138 294 145 c 0
 294 203 230 224 193 229 c 1
 142 26 l 2
 140 17 133 -11 103 -11 c 0
 84 -11 75 4 75 15 c 0xf4
EndSplineSet
EndChar

StartChar: l
Encoding: 108 108 77
Width: 255
GlyphClass: 2
Flags: MW
TeX: 688 0
ItalicCorrection: 103
HStem: -11 22<167 194 167 197> 674 20G<290.5 296>
VStem: 94 60<52.5 55.5 45 86.5> 251 29<141.5 148>
AnchorPoint: "Anchor-5" 276 694 basechar 0
AnchorPoint: "Anchor-4" 102 0 basechar 0
AnchorPoint: "Anchor-3" 429 694 basechar 0
AnchorPoint: "Anchor-2" 206 -194 basechar 0
LayerCount: 2
Fore
SplineSet
94 79 m 0
 94 94 99 114 100 118 c 2
 225 618 l 2
 225 619 228 632 228 635 c 0
 228 645 226 652 178 652 c 0
 164 652 154 652 154 663 c 0
 154 682 165 683 177 684 c 2
 276 692 l 2
 279 693 289 694 292 694 c 0
 300 694 306 691 306 682 c 0
 306 680 304 672 303 669 c 2
 160 98 l 2
 154 74 154 59 154 52 c 0
 154 38 154 11 180 11 c 0
 208 11 227 53 244 123 c 2
 251 148 l 2
 254 153 260 153 265 153 c 0
 272 153 280 153 280 143 c 0
 280 140 266 76 249 41 c 0
 236 16 216 -11 178 -11 c 0
 130 -11 94 26 94 79 c 0
EndSplineSet
EndChar

StartChar: m
Encoding: 109 109 78
Width: 817
GlyphClass: 2
Flags: MW
TeX: 430 0
ItalicCorrection: 76
HStem: -11 22<706.5 746 706.5 761.5> 420 22<169.5 198 384 435 634 690>
VStem: 83 34 639 56<47 52.5 33 79.5> 713 61<323 361.5> 810 32
AnchorPoint: "Anchor-5" 518 442 basechar 0
AnchorPoint: "Anchor-4" 408 0 basechar 0
AnchorPoint: "Anchor-3" 991 694 basechar 0
AnchorPoint: "Anchor-2" 768 -194 basechar 0
LayerCount: 2
Fore
SplineSet
83 288 m 0
 83 290 96 349 115 389 c 0
 131 419 151 442 187 442 c 0
 230 442 264 412 271 363 c 1
 305 409 354 442 414 442 c 0
 459 442 511 423 519 354 c 1
 549 398 599 442 669 442 c 0
 716 442 774 422 774 338 c 0
 774 280 733 168 713 115 c 0
 705 91 695 65 695 40 c 0
 695 26 696 11 717 11 c 0
 775 11 802 109 810 136 c 0
 814 151 814 153 827 153 c 0
 834 153 842 153 842 143 c 0
 842 138 808 -11 715 -11 c 0
 667 -11 639 25 639 69 c 0
 639 90 642 99 655 133 c 0
 669 173 713 292 713 354 c 0
 713 369 713 420 667 420 c 0
 598 420 555 362 526 312 c 0
 514 291 514 289 501 240 c 0
 496 218 490 197 485 175 c 2
 445 15 l 2
 438 -4 421 -11 409 -11 c 0
 389 -11 381 4 381 15 c 0
 381 18 382 23 384 29 c 2
 449 289 l 2
 451 298 458 327 458 354 c 0
 458 369 458 420 412 420 c 0
 343 420 300 362 271 312 c 0
 259 291 259 289 246 240 c 0
 241 218 235 197 230 175 c 2
 190 15 l 2
 183 -4 166 -11 154 -11 c 0
 134 -11 126 4 126 15 c 0
 126 18 127 23 129 29 c 2
 204 329 l 2
 208 345 211 364 211 380 c 0
 211 391 211 420 185 420 c 0
 154 420 135 371 117 301 c 0
 112 279 111 278 98 278 c 0
 93 278 83 278 83 288 c 0
EndSplineSet
EndChar

StartChar: n
Encoding: 110 110 79
Width: 562
GlyphClass: 2
Flags: MW
TeX: 430 0
ItalicCorrection: 76
HStem: -11 22<450.5 490 450.5 505.5> 420 22<169.5 198 373 433>
VStem: 83 34 383 56<47 52.5 33 79.5> 457 61<323 364.5> 554 32
AnchorPoint: "Anchor-5" 390 442 basechar 0
AnchorPoint: "Anchor-4" 280 0 basechar 0
AnchorPoint: "Anchor-3" 736 694 basechar 0
AnchorPoint: "Anchor-2" 513 -194 basechar 0
LayerCount: 2
Fore
SplineSet
83 288 m 0
 83 290 96 349 115 389 c 0
 131 419 151 442 187 442 c 0
 230 442 264 412 271 363 c 1
 284 382 332 442 414 442 c 0
 463 442 518 420 518 338 c 0
 518 280 477 168 457 115 c 0
 449 91 439 65 439 40 c 0
 439 26 440 11 461 11 c 0
 519 11 546 109 554 136 c 0
 558 151 558 153 571 153 c 0
 578 153 586 153 586 143 c 0
 586 138 552 -11 459 -11 c 0
 411 -11 383 25 383 69 c 0
 383 90 386 99 399 133 c 0
 413 173 457 292 457 354 c 0
 457 375 455 420 411 420 c 0
 335 420 290 345 276 321 c 0
 259 292 259 291 246 240 c 0
 241 218 235 197 230 175 c 2
 190 15 l 2
 183 -4 166 -11 154 -11 c 0
 134 -11 126 4 126 15 c 0
 126 18 127 23 129 29 c 2
 204 329 l 2
 208 345 211 364 211 380 c 0
 211 391 211 420 185 420 c 0
 154 420 135 371 117 301 c 0
 112 279 111 278 98 278 c 0
 93 278 83 278 83 288 c 0
EndSplineSet
EndChar

StartChar: o
Encoding: 111 111 80
Width: 511
GlyphClass: 2
Flags: MW
TeX: 430 0
ItalicCorrection: 63
HStem: -11 22<236.5 280.5 236.5 318> 420 22<342.5 386.5>
VStem: 110 70<102.5 139 78 227> 439 70<295.5 325.5 204.5 346.5>
AnchorPoint: "Anchor-5" 362 442 basechar 0
AnchorPoint: "Anchor-4" 259 0 basechar 0
AnchorPoint: "Anchor-3" 685 694 basechar 0
AnchorPoint: "Anchor-2" 462 -194 basechar 0
AnchorPoint: "Anchor-1" 259 0 basechar 0
LayerCount: 2
Fore
SplineSet
110 154 m 0
 110 300 239 442 363 442 c 0
 450 442 509 373 509 278 c 0
 509 131 380 -11 256 -11 c 0
 173 -11 110 51 110 154 c 0
180 114 m 0
 180 42 217 11 256 11 c 0
 305 11 356 56 385 111 c 0
 417 171 439 274 439 317 c 0
 439 376 411 420 362 420 c 0
 323 420 275 390 238 329 c 0
 206 275 180 164 180 114 c 0
EndSplineSet
EndChar

StartChar: p
Encoding: 112 112 81
Width: 511
GlyphClass: 2
Flags: MW
TeX: 430 194
ItalicCorrection: 63
HStem: -194 31<30.5 35 30.5 39.5 191.5 209> -11 22<256 306.5 252 336.5> 420 22<169.5 198 365.5 410.5>
VStem: 83 34 443 67<310 339.5 211.5 347>
AnchorPoint: "Anchor-5" 394 442 basechar 0
AnchorPoint: "Anchor-4" 235 -194 basechar 0
AnchorPoint: "Anchor-3" 685 694 basechar 0
AnchorPoint: "Anchor-2" 462 -194 basechar 0
LayerCount: 2
Fore
SplineSet
14 -182 m 0
 14 -163 26 -163 35 -163 c 0
 74 -162 82 -159 90 -128 c 2
 204 330 l 2
 211 358 211 374 211 380 c 0
 211 391 211 420 185 420 c 0
 154 420 135 371 117 301 c 0
 112 279 111 278 98 278 c 0
 93 278 83 278 83 288 c 0
 83 290 96 349 115 389 c 0
 131 419 151 442 187 442 c 0
 212 442 257 430 269 372 c 1
 298 406 341 442 390 442 c 0
 450 442 510 393 510 286 c 0
 510 137 391 -11 282 -11 c 0
 230 -11 205 30 198 47 c 1
 162 -99 l 2
 158 -115 151 -141 151 -147 c 0
 151 -157 151 -163 202 -163 c 0
 216 -163 226 -163 226 -175 c 0
 226 -194 213 -194 207 -194 c 0
 176 -194 142 -191 110 -191 c 0
 82 -191 53 -194 26 -194 c 0
 19 -194 14 -189 14 -182 c 0
213 104 m 0
 213 96 223 11 281 11 c 0
 332 11 375 81 387 106 c 0
 416 170 443 289 443 331 c 0
 443 363 433 420 388 420 c 0
 333 420 271 341 263 307 c 2
 216 118 l 2
 214 110 213 107 213 104 c 0
EndSplineSet
EndChar

StartChar: q
Encoding: 113 113 82
Width: 460
GlyphClass: 2
Flags: MW
TeX: 430 194
ItalicCorrection: 88
HStem: -194 31<213.5 220 213.5 225 394 412> -11 22<207.5 249.5> 420 22<316.5 341>
VStem: 108 68<101.5 125 85 217> 406 91
AnchorPoint: "Anchor-5" 336 442 basechar 0
AnchorPoint: "Anchor-4" 177 -194 basechar 0
AnchorPoint: "Anchor-3" 634 694 basechar 0
AnchorPoint: "Anchor-2" 411 -194 basechar 0
LayerCount: 2
Fore
SplineSet
108 144 m 0
 108 290 226 442 337 442 c 0
 385 442 411 407 423 378 c 1
 439 406 475 441 486 441 c 0
 489 441 497 439 497 430 c 0
 497 428 495 420 494 417 c 2
 357 -129 l 2
 356 -135 354 -140 354 -147 c 0
 354 -157 354 -163 405 -163 c 0
 419 -163 429 -163 429 -175 c 0
 429 -194 416 -194 410 -194 c 0
 378 -194 342 -191 309 -191 c 0
 276 -191 241 -194 209 -194 c 0
 202 -194 196 -191 196 -182 c 0
 196 -163 207 -163 220 -163 c 0
 284 -162 285 -158 296 -115 c 2
 335 42 l 1
 307 15 270 -11 229 -11 c 0
 154 -11 108 59 108 144 c 0
176 100 m 0
 176 70 184 11 231 11 c 0
 286 11 347 91 355 122 c 2
 403 314 l 2
 405 320 406 324 406 327 c 0
 406 346 396 375 386 391 c 0
 368 419 345 420 337 420 c 0
 296 420 250 370 225 309 c 0
 207 267 176 150 176 100 c 0
EndSplineSet
EndChar

StartChar: r
Encoding: 114 114 83
Width: 421
GlyphClass: 2
Flags: MW
TeX: 430 0
ItalicCorrection: 107
HStem: -11 21G<144 169> 326 80 420 22<169.5 198 356.5 392.5>
VStem: 83 34 405 84<359.5 360.5>
AnchorPoint: "Anchor-5" 293 442 basechar 0
AnchorPoint: "Anchor-4" 157 0 basechar 0
AnchorPoint: "Anchor-3" 595 694 basechar 0
AnchorPoint: "Anchor-2" 372 -194 basechar 0
LayerCount: 2
Fore
SplineSet
83 288 m 0
 83 290 96 349 115 389 c 0
 131 419 151 442 187 442 c 0
 220 442 259 423 270 370 c 1
 286 392 322 442 391 442 c 0
 424 442 489 431 489 379 c 0
 489 340 458 326 440 326 c 0
 414 326 405 345 405 358 c 0
 405 363 408 395 443 406 c 1
 423 420 395 420 390 420 c 0
 304 420 259 291 258 288 c 2
 193 26 l 2
 191 18 184 -11 154 -11 c 0
 134 -11 126 4 126 15 c 0
 126 18 127 23 129 29 c 2
 204 329 l 2
 208 345 211 364 211 380 c 0
 211 391 211 420 185 420 c 0
 154 420 135 371 117 301 c 0
 112 279 111 278 98 278 c 0
 93 278 83 278 83 288 c 0
EndSplineSet
EndChar

StartChar: s
Encoding: 115 115 84
Width: 408
GlyphClass: 2
Flags: MW
TeX: 430 0
ItalicCorrection: 82
HStem: -11 22<195 257.5 195 280> 67 81 302 69 420 22<271 324.5>
VStem: 76 85<55.5 125.5> 154 56<306.5 320> 336 57<134 150> 346 73<324.5 380>
AnchorPoint: "Anchor-5" 312 442 basechar 0
AnchorPoint: "Anchor-4" 208 0 basechar 0
AnchorPoint: "Anchor-3" 582 694 basechar 0
AnchorPoint: "Anchor-2" 359 -194 basechar 0
LayerCount: 2
Fore
SplineSet
76 86 m 0xfa
 76 131 104 148 127 148 c 0
 148 148 161 135 161 116 c 0
 161 114 161 72 110 67 c 1
 126 16 184 11 206 11 c 0
 309 11 336 91 336 123 c 0xfa
 336 177 291 187 247 197 c 0
 219 203 154 217 154 294 c 0
 154 346 195 442 312 442 c 0
 378 442 419 403 419 357 c 0
 419 314 393 302 376 302 c 0
 352 302 346 319 346 330 c 0
 346 340 354 367 386 371 c 1
 375 410 338 420 311 420 c 0
 231 420 210 352 210 328 c 0xf5
 210 285 246 277 274 271 c 0
 315 262 393 244 393 157 c 0
 393 111 355 -11 205 -11 c 0
 134 -11 76 25 76 86 c 0xfa
EndSplineSet
EndChar

StartChar: t
Encoding: 116 116 85
Width: 332
GlyphClass: 2
Flags: MW
TeX: 614 0
ItalicCorrection: 94
HStem: -11 22<192.5 234.5 192.5 254.5> 400 31<108 204 119 196 268 345>
VStem: 119 60<54 55.5 44 86> 321 35
AnchorPoint: "Anchor-5" 284 626 basechar 0
AnchorPoint: "Anchor-4" 184 0 basechar 0
AnchorPoint: "Anchor-3" 506 694 basechar 0
AnchorPoint: "Anchor-2" 283 -194 basechar 0
LayerCount: 2
Fore
SplineSet
91 412 m 0
 91 431 102 431 119 431 c 2
 204 431 l 1
 243 590 l 2
 247 605 257 626 282 626 c 0
 292 626 309 621 309 600 c 0
 309 595 309 593 305 579 c 2
 268 431 l 1
 348 431 l 2
 364 431 373 431 373 419 c 0
 373 400 362 400 345 400 c 2
 260 400 l 1
 186 103 l 2
 179 75 179 59 179 52 c 0
 179 36 179 11 206 11 c 0
 263 11 303 86 321 134 c 0
 329 152 329 153 341 153 c 0
 348 153 356 153 356 143 c 0
 356 138 305 -11 204 -11 c 0
 152 -11 119 29 119 79 c 0
 119 93 123 109 124 113 c 2
 196 400 l 1
 116 400 l 2
 100 400 91 400 91 412 c 0
EndSplineSet
EndChar

StartChar: u
Encoding: 117 117 86
Width: 536
GlyphClass: 2
Flags: MW
TeX: 430 0
ItalicCorrection: 76
HStem: -11 22<247.5 292 247.5 293.5 448.5 476.5> 411 20G<473 498> 420 22<180 214.5>
VStem: 83 33 155 61<71.5 118.5 71.5 131> 231 56<379 386 351.5 404>
AnchorPoint: "Anchor-5" 379 442 basechar 0
AnchorPoint: "Anchor-4" 269 0 basechar 0
AnchorPoint: "Anchor-3" 710 694 basechar 0
AnchorPoint: "Anchor-2" 487 -194 basechar 0
AnchorPoint: "Anchor-1" 461 0 basechar 0
LayerCount: 2
Fore
SplineSet
83 288 m 0xbc
 83 294 118 442 211 442 c 0xbc
 254 442 287 411 287 361 c 0
 287 342 282 328 274 307 c 0
 249 239 216 149 216 88 c 0
 216 55 225 11 270 11 c 0
 314 11 343 41 362 69 c 0
 371 82 371 84 376 102 c 2
 449 394 l 2
 451 402 458 431 488 431 c 0xdc
 508 431 516 416 516 405 c 0
 516 402 515 397 513 391 c 2
 441 103 l 2
 434 75 434 59 434 52 c 0
 434 38 434 11 460 11 c 0
 494 11 513 74 527 130 c 0
 533 152 534 153 546 153 c 0
 553 153 561 153 561 143 c 0
 561 141 549 83 531 45 c 0
 516 14 495 -11 458 -11 c 0
 439 -11 396 -5 378 49 c 1
 354 19 320 -11 267 -11 c 0
 213 -11 155 18 155 105 c 0
 155 157 181 231 207 301 c 0
 221 340 231 367 231 391 c 0
 231 417 220 420 209 420 c 0
 151 420 124 325 116 294 c 0
 112 280 111 278 98 278 c 0
 93 278 83 278 83 288 c 0xbc
EndSplineSet
EndChar

StartChar: v
Encoding: 118 118 87
Width: 460
GlyphClass: 2
Flags: MW
TeX: 430 0
ItalicCorrection: 107
HStem: -11 22<255 339.5 255 363> 420 22<180 214.5>
VStem: 83 33 156 61<77.5 123 77.5 132.5> 231 56<379 386 351.5 404> 444 49
AnchorPoint: "Anchor-5" 328 442 basechar 0
AnchorPoint: "Anchor-4" 282 0 basechar 0
AnchorPoint: "Anchor-3" 634 694 basechar 0
AnchorPoint: "Anchor-2" 411 -194 basechar 0
LayerCount: 2
Fore
SplineSet
83 288 m 0
 83 294 118 442 211 442 c 0
 254 442 287 411 287 361 c 0
 287 342 281 327 276 311 c 0
 249 239 217 152 217 94 c 0
 217 61 228 11 282 11 c 0
 397 11 444 262 444 290 c 0
 444 311 441 343 417 369 c 0
 411 376 404 383 404 396 c 0
 404 419 429 442 452 442 c 0
 481 442 493 411 493 376 c 0
 493 350 447 -11 279 -11 c 0
 220 -11 156 18 156 109 c 0
 156 156 176 216 207 301 c 0
 221 340 231 367 231 391 c 0
 231 417 220 420 209 420 c 0
 151 420 124 325 116 294 c 0
 112 280 111 278 98 278 c 0
 93 278 83 278 83 288 c 0
EndSplineSet
EndChar

StartChar: w
Encoding: 119 119 88
Width: 664
GlyphClass: 2
Flags: MW
TeX: 430 0
ItalicCorrection: 107
HStem: -11 22<276.5 301 474 522> 411 20G<460.5 485> 420 22<180 214.5>
VStem: 83 33 157 61<95 125 91.5 125.5> 231 56<379 386 351.5 404> 372 61<73 112> 648 49
AnchorPoint: "Anchor-5" 478 442 basechar 0
AnchorPoint: "Anchor-4" 393 0 basechar 0
AnchorPoint: "Anchor-3" 838 694 basechar 0
AnchorPoint: "Anchor-2" 615 -194 basechar 0
LayerCount: 2
Fore
SplineSet
83 288 m 0xbf
 83 294 118 442 211 442 c 0xbf
 254 442 287 411 287 361 c 0
 287 342 282 327 275 308 c 0
 244 226 218 152 218 98 c 0
 218 85 218 11 288 11 c 0
 341 11 372 94 372 105 c 0
 372 119 373 140 380 168 c 2
 437 396 l 2
 439 404 446 431 475 431 c 0xdf
 495 431 503 416 503 405 c 0
 503 401 493 361 487 339 c 2
 445 171 l 2
 434 127 433 103 433 94 c 0
 433 52 449 11 499 11 c 0
 545 11 577 52 599 104 c 0
 616 145 648 250 648 290 c 0
 648 311 645 343 621 369 c 0
 615 376 608 383 608 396 c 0
 608 419 633 442 656 442 c 0
 685 442 697 411 697 376 c 0
 697 323 658 169 628 101 c 0
 598 30 556 -11 496 -11 c 0
 437 -11 397 16 382 53 c 1
 352 2 317 -11 285 -11 c 0
 268 -11 223 -8 191 20 c 0
 165 44 157 78 157 112 c 0
 157 139 157 165 207 301 c 0
 221 340 231 367 231 391 c 0
 231 417 220 420 209 420 c 0
 151 420 124 325 116 294 c 0
 112 280 111 278 98 278 c 0
 93 278 83 278 83 288 c 0xbf
EndSplineSet
EndChar

StartChar: x
Encoding: 120 120 89
Width: 463
GlyphClass: 2
Flags: MW
TeX: 430 0
ItalicCorrection: 120
HStem: -11 22<140.5 165 326 357> 25 80 326 80 420 22<215 249.5 406.5 431.5>
VStem: 53 84<65.5 67.5> 83 33 434 84<351.5 404.5> 455 33
AnchorPoint: "Anchor-5" 342 442 basechar 0
AnchorPoint: "Anchor-4" 232 0 basechar 0
AnchorPoint: "Anchor-3" 637 694 basechar 0
AnchorPoint: "Anchor-2" 414 -194 basechar 0
LayerCount: 2
Fore
SplineSet
53 51 m 0xf9
 53 84 78 105 103 105 c 0
 116 105 137 99 137 73 c 0xf9
 137 58 128 33 98 25 c 1
 115 11 139 11 142 11 c 0
 202 11 223 91 239 156 c 0
 250 202 251 206 262 247 c 0
 271 284 283 333 283 357 c 0
 283 397 264 420 235 420 c 0
 195 420 143 381 116 295 c 0
 111 279 111 278 98 278 c 0
 93 278 83 278 83 288 c 0
 83 311 137 442 237 442 c 0
 262 442 311 434 333 374 c 1
 343 393 376 442 431 442 c 0
 460 442 518 430 518 379 c 0
 518 340 487 326 469 326 c 0
 443 326 434 345 434 358 c 0xf6
 434 359 434 396 474 406 c 1
 458 420 433 420 430 420 c 0
 383 420 356 365 342 313 c 0
 334 280 319 218 308 176 c 0
 300 142 289 99 289 75 c 0
 289 23 316 11 336 11 c 0
 378 11 428 50 455 136 c 0
 460 152 461 153 473 153 c 0
 480 153 488 153 488 143 c 0
 488 123 437 -11 334 -11 c 0
 308 -11 259 0 239 57 c 1
 222 27 189 -11 141 -11 c 0
 95 -11 53 12 53 51 c 0xf9
EndSplineSet
EndChar

StartChar: y
Encoding: 121 121 90
Width: 485
GlyphClass: 2
Flags: MW
TeX: 430 194
ItalicCorrection: 88
HStem: -205 22<171 220 171 247> -137 80 -11 22<247.5 290> 411 20G<473 498> 420 22<180 214.5>
VStem: 83 33 99 34<-142.5 -139.5 -142.5 -91> 155 61<71.5 118.5 71.5 131> 231 56<379 386 351.5 404>
AnchorPoint: "Anchor-5" 379 442 basechar 0
AnchorPoint: "Anchor-4" 181 -194 basechar 0
AnchorPoint: "Anchor-3" 659 694 basechar 0
AnchorPoint: "Anchor-2" 436 -194 basechar 0
LayerCount: 2
Fore
SplineSet
83 288 m 0xed80
 83 294 118 442 211 442 c 0xed80
 254 442 287 411 287 361 c 0
 287 342 282 328 274 307 c 0
 249 239 216 149 216 88 c 0
 216 55 225 11 270 11 c 0
 329 11 369 71 376 100 c 2
 449 394 l 2
 451 402 458 431 488 431 c 0
 508 431 516 416 516 405 c 0
 516 402 514 397 513 391 c 2
 415 -3 l 2
 390 -102 299 -205 195 -205 c 0
 140 -205 99 -171 99 -119 c 0
 99 -63 138 -57 150 -57 c 0
 168 -57 184 -68 184 -89 c 0
 184 -105 172 -132 141 -137 c 0
 134 -138 133 -139 133 -140 c 0xf380
 133 -145 147 -183 195 -183 c 0
 245 -183 319 -139 357 26 c 1
 344 13 313 -11 267 -11 c 0
 213 -11 155 18 155 105 c 0
 155 157 181 231 207 301 c 0
 221 340 231 367 231 391 c 0
 231 417 220 420 209 420 c 0
 151 420 124 325 116 294 c 0
 112 280 111 278 98 278 c 0
 93 278 83 278 83 288 c 0xed80
EndSplineSet
EndChar

StartChar: z
Encoding: 122 122 91
Width: 408
GlyphClass: 2
Flags: MW
TeX: 430 0
ItalicCorrection: 122
HStem: -11 64<282 313.5 282 330.5> 64 22<171.5 183> 345 22<362.5 370> 378 64<232.5 261>
VStem: 144 33 401 32
AnchorPoint: "Anchor-5" 340 442 basechar 0
AnchorPoint: "Anchor-4" 230 0 basechar 0
AnchorPoint: "Anchor-3" 582 694 basechar 0
AnchorPoint: "Anchor-2" 359 -194 basechar 0
LayerCount: 2
Fore
SplineSet
62 -1 m 0
 62 9 110 83 166 138 c 2
 330 301 l 2
 346 317 355 328 370 345 c 1
 355 345 344 345 311 360 c 0
 289 370 271 378 251 378 c 0
 214 378 185 353 177 331 c 0
 172 319 171 317 159 317 c 0
 151 317 144 319 144 328 c 0
 144 348 187 442 261 442 c 0
 293 442 310 419 322 403 c 0
 341 377 351 367 369 367 c 0
 385 367 398 372 431 429 c 0
 437 441 438 442 450 442 c 0
 456 442 464 442 464 432 c 0
 464 423 416 347 357 289 c 2
 212 146 l 2
 184 118 163 93 156 85 c 1
 161 86 169 86 174 86 c 0
 194 86 206 82 236 69 c 0
 256 60 272 53 292 53 c 0
 335 53 383 87 401 137 c 0
 405 150 406 153 418 153 c 0
 421 153 433 153 433 143 c 0
 433 119 379 -11 282 -11 c 0
 251 -11 236 8 220 28 c 0
 202 53 194 64 172 64 c 0
 134 64 107 19 93 -2 c 0
 89 -9 88 -11 77 -11 c 0
 71 -11 62 -11 62 -1 c 0
EndSplineSet
EndChar

StartChar: braceleft
Encoding: 123 123 92
Width: 511
GlyphClass: 2
Flags: MW
TeX: 749 249
ItalicCorrection: 147
HStem: -250 21<317.5 345.5> 717 33
VStem: 191 64<-185 -127.5 -185 -124> 258 64<136 171.5 132.5 177.5>
LayerCount: 2
Fore
SplineSet
155 249 m 0
 155 264 173 260 201 267 c 0
 246 279 294 315 312 363 c 0
 316 374 314 363 374 604 c 0
 380 627 387 671 447 710 c 0
 489 737 544 750 586 750 c 0
 601 750 603 743 603 739 c 0
 603 723 576 730 540 717 c 0
 451 684 441 610 438 600 c 0
 376 352 379 363 374 352 c 0
 351 297 300 267 238 249 c 1
 299 228 322 191 322 152 c 0
 322 113 255 -110 255 -145 c 0
 255 -225 350 -228 352 -229 c 0
 356 -231 358 -235 358 -238 c 0
 358 -244 352 -250 339 -250 c 0
 296 -250 191 -229 191 -143 c 0
 191 -105 258 118 258 154 c 0
 258 201 223 230 182 237 c 0
 172 239 155 237 155 249 c 0
EndSplineSet
EndChar

StartChar: bar
Encoding: 124 124 93
Width: 307
GlyphClass: 2
Flags: W
TeX: 749 249
ItalicCorrection: 105
LayerCount: 2
Fore
SplineSet
76 -228 m 0
 76 -222 78 -216 79 -210 c 2
 312 720 l 2
 313 724 317 749 335 749 c 0
 344 749 354 740 354 728 c 0
 354 721 355 727 314 564 c 2
 119 -218 l 2
 116 -228 112 -249 95 -249 c 0
 83 -249 76 -239 76 -228 c 0
EndSplineSet
EndChar

StartChar: braceright
Encoding: 125 125 94
Width: 511
GlyphClass: 2
Flags: MW
TeX: 749 249
ItalicCorrection: 22
HStem: -250 33 729 21
VStem: 313 64<321 364.5 321 368.5> 380 64<626 684>
LayerCount: 2
Fore
SplineSet
32 -239 m 0
 32 -222 53 -232 94 -217 c 0
 182 -184 194 -111 197 -100 c 0
 259 147 256 137 261 148 c 0
 284 203 335 232 397 251 c 1
 362 262 313 290 313 349 c 0
 313 388 380 608 380 644 c 0
 380 724 285 728 283 729 c 0
 277 732 274 740 279 745 c 0
 283 749 289 750 295 750 c 0
 340 750 444 728 444 642 c 0
 444 603 377 383 377 346 c 0
 377 296 416 269 453 263 c 0
 463 261 480 262 480 250 c 0
 480 235 458 240 433 233 c 0
 385 220 341 186 323 138 c 0
 305 89 263 -114 247 -146 c 0
 211 -220 113 -250 49 -250 c 0
 34 -250 32 -243 32 -239 c 0
EndSplineSet
EndChar

StartChar: asciitilde
Encoding: 126 126 95
Width: 613
GlyphClass: 2
Flags: MW
TeX: 661 0
ItalicCorrection: 115
HStem: 566 36<515.5 556> 632 36<358 404>
LayerCount: 2
Fore
SplineSet
248 577 m 0
 248 590 326 668 390 668 c 0
 455 668 489 602 542 602 c 0
 595 602 643 657 656 664 c 0
 664 668 672 664 672 656 c 0
 672 649 665 643 661 639 c 0
 636 614 582 566 530 566 c 0
 465 566 432 632 376 632 c 0
 319 632 274 569 257 569 c 0
 252 569 248 572 248 577 c 0
EndSplineSet
EndChar

StartChar: exclamdown
Encoding: 161 161 97
Width: 307
GlyphClass: 2
Flags: MW
TeX: 499 194
ItalicCorrection: 75
HStem: -216 529<88.5 231.5> 394 105<258 270>
VStem: 57 110<-187.5 -149> 210 108<440.5 452>
LayerCount: 2
Fore
SplineSet
57 -176 m 0
 57 -164 62 -153 65 -143 c 2
 204 281 l 2
 207 291 211 313 228 313 c 0
 235 313 242 309 242 298 c 0
 242 290 238 271 236 260 c 2
 167 -149 l 2
 166 -158 159 -216 101 -216 c 0
 76 -216 57 -199 57 -176 c 0
210 437 m 0
 210 467 241 499 275 499 c 0
 301 499 318 481 318 457 c 0
 318 424 286 394 254 394 c 0
 228 394 210 413 210 437 c 0
EndSplineSet
EndChar

StartChar: cent
Encoding: 162 162 98
Width: 511
GlyphClass: 2
Flags: MW
TeX: 523 97
ItalicCorrection: 97
HStem: -11 25<293 300 293 300> 293 81 421 26
VStem: 103 75<132 181.5 132 226.5> 451 84<316 371.5>
LayerCount: 2
Fore
SplineSet
103 162 m 0
 103 291 221 436 377 447 c 1
 395 528 397 533 411 533 c 0
 420 533 425 529 425 520 c 0
 425 507 417 484 408 447 c 1
 512 437 535 390 535 353 c 0
 535 310 506 293 485 293 c 0
 468 293 451 306 451 326 c 0
 451 336 457 369 500 374 c 1
 481 405 452 418 402 422 c 1
 300 14 l 1
 373 20 422 63 451 110 c 0
 457 119 462 129 474 129 c 0
 489 129 490 119 484 108 c 0
 468 78 412 -3 294 -11 c 1
 293 -11 l 1
 275 -92 273 -97 259 -97 c 0
 249 -97 246 -92 246 -83 c 0
 246 -69 254 -44 262 -10 c 1
 171 -2 103 63 103 162 c 0
178 142 m 0
 178 122 180 34 269 16 c 1
 370 421 l 1
 226 391 178 221 178 142 c 0
EndSplineSet
EndChar

StartChar: sterling
Encoding: 163 163 99
Width: 769
GlyphClass: 2
Flags: MW
TeX: 688 0
HStem: -11 23<146 165 146 181.5> -11 42<439.5 500 439.5 507> 97 42<178 209.5> 332 31<272.5 338 279 330 403 473> 481 80<641 654> 684 23<556.5 607.5>
VStem: 87 38<30 50 30 58.5> 585 34 667 30<574 610>
LayerCount: 2
Fore
SplineSet
87 38 m 0xbf80
 87 79 139 139 217 139 c 0
 235 139 254 136 276 127 c 1
 287 157 299 209 330 332 c 1
 276 332 l 2
 269 332 260 332 256 339 c 0
 255 341 254 343 254 345 c 0
 254 354 263 363 279 363 c 2
 338 363 l 1
 347 403 379 532 388 554 c 0
 423 642 505 707 582 707 c 0
 651 707 697 654 697 574 c 0
 697 494 665 481 643 481 c 0
 624 481 609 494 609 513 c 0
 609 530 622 561 660 561 c 0
 662 561 664 560 666 560 c 1
 666 565 667 571 667 577 c 0
 667 643 633 684 582 684 c 0
 531 684 481 635 456 564 c 0
 442 525 419 423 403 363 c 1
 483 363 l 2
 493 363 504 362 504 350 c 0
 504 332 488 332 473 332 c 2
 395 332 l 1
 391 313 354 165 348 147 c 0
 342 130 333 114 325 99 c 1
 366 73 411 31 468 31 c 0
 532 31 572 91 585 124 c 0
 590 136 591 148 605 148 c 0
 612 148 619 144 619 135 c 0
 619 112 562 -11 452 -11 c 0x7f80
 390 -11 350 24 297 61 c 1
 296 61 l 1
 263 25 210 -11 153 -11 c 0
 114 -11 87 9 87 38 c 0xbf80
125 38 m 0
 125 22 137 12 155 12 c 0xbf80
 175 12 219 25 256 84 c 1
 238 91 219 97 200 97 c 0
 154 97 125 62 125 38 c 0
EndSplineSet
EndChar

StartChar: currency
Encoding: 164 164 100
Width: 779
GlyphClass: 2
Flags: MW
TeX: 554 0
ItalicCorrection: 107
HStem: -11 40<358.5 430> 525 40<487.5 557.5 487.5 579.5>
VStem: 162 40<194 262> 714 41<290.5 360 290.5 397.5>
LayerCount: 2
Fore
SplineSet
60 -26 m 0
 60 -11 69 -9 194 91 c 1
 194 92 l 1
 169 133 162 176 162 212 c 0
 162 312 220 412 289 470 c 1
 214 570 212 568 212 580 c 0
 212 591 222 599 231 599 c 0
 244 599 243 596 319 495 c 1
 321 495 l 1
 375 536 450 565 525 565 c 0
 590 565 651 544 698 495 c 1
 760 541 821 599 838 599 c 0
 849 599 856 589 856 580 c 0
 856 565 838 555 722 463 c 1
 722 462 l 1
 747 422 755 378 755 342 c 0
 755 239 694 139 628 84 c 1
 703 -16 705 -15 705 -27 c 0
 705 -38 695 -45 686 -45 c 2
 684 -45 l 2
 678 -45 667 -41 597 59 c 1
 537 17 469 -11 391 -11 c 0
 326 -11 266 10 219 59 c 1
 218 59 l 1
 92 -43 90 -45 79 -45 c 0
 68 -45 60 -35 60 -26 c 0
202 212 m 0
 202 102 281 29 391 29 c 0
 553 29 714 182 714 342 c 0
 714 453 634 525 525 525 c 0
 363 525 202 372 202 212 c 0
EndSplineSet
EndChar

StartChar: yen
Encoding: 165 165 101
Width: 743
GlyphClass: 2
Flags: MW
TeX: 683 0
ItalicCorrection: 193
HStem: 0 31<481 485.5 466 494> 219 23<165.5 392 171 387 471 685 685 687> 413 23<216 217 217 348 216 356 446 557 446 446 612 735> 656 27
VStem: 387 78<219 219> 720 153<613 674>
LayerCount: 2
Fore
SplineSet
147 230 m 0
 147 241 160 242 171 242 c 2
 392 242 l 1
 396 256 399 262 399 270 c 0
 399 291 379 334 356 413 c 1
 217 413 l 2
 208 413 196 414 196 424 c 0
 196 433 204 436 216 436 c 2
 348 436 l 1
 284 635 287 629 282 636 c 0
 262 664 205 640 203 664 c 0
 202 674 209 683 223 683 c 0
 233 683 264 680 324 680 c 0
 391 680 425 683 436 683 c 0
 450 683 454 676 454 670 c 0
 454 664 451 658 448 656 c 0
 440 649 379 656 379 628 c 0
 379 612 421 498 438 436 c 1
 576 436 l 1
 635 514 720 597 720 629 c 0
 720 659 676 642 676 667 c 0
 676 675 682 683 696 683 c 0
 705 683 732 680 786 680 c 0
 817 680 838 682 851 682 c 0
 867 682 873 679 873 669 c 0
 873 652 857 652 847 651 c 0
 771 643 742 595 612 436 c 1
 740 436 l 2
 756 436 760 428 758 422 c 0
 755 414 745 413 735 413 c 2
 612 413 l 2
 598 413 593 413 581 399 c 0
 461 252 482 282 471 242 c 1
 685 242 l 2
 696 242 710 241 710 230 c 0
 710 221 701 219 687 219 c 2
 465 219 l 1
 454 167 425 67 425 51 c 0
 425 33 446 31 466 31 c 2
 477 31 l 2
 494 31 508 32 508 17 c 0
 508 9 501 0 487 0 c 0
 475 0 441 3 372 3 c 0
 294 3 273 0 261 0 c 0
 248 0 242 7 242 14 c 0
 242 46 314 17 338 46 c 0
 348 57 352 80 387 219 c 1
 171 219 l 2
 160 219 147 220 147 230 c 0
446 413 m 1
 477 315 l 1
 557 413 l 1
 446 413 l 1
EndSplineSet
EndChar

StartChar: brokenbar
Encoding: 166 166 102
Width: 204
GlyphClass: 2
Flags: W
TeX: 749 249
ItalicCorrection: 136
LayerCount: 2
Fore
SplineSet
25 -229 m 0
 25 -221 28 -212 30 -204 c 2
 113 130 l 2
 116 142 120 172 140 172 c 0
 154 172 157 162 157 151 c 0
 157 144 156 135 154 128 c 2
 70 -208 l 2
 66 -224 63 -249 44 -249 c 0
 33 -249 25 -239 25 -229 c 0
169 349 m 0
 169 358 172 366 174 374 c 2
 257 707 l 2
 260 719 264 749 284 749 c 0
 295 749 303 739 303 728 c 0
 303 720 300 713 298 705 c 2
 214 369 l 2
 209 351 207 328 188 328 c 0
 177 328 169 338 169 349 c 0
EndSplineSet
EndChar

StartChar: section
Encoding: 167 167 103
Width: 460
GlyphClass: 2
Flags: MW
TeX: 688 194
HStem: -206 23<170.5 218.5 170.5 224> -115 63 552 63 683 23<364 412.5>
VStem: 77 68<-85.5 -84.5> 147 43<200.5 253.5 200.5 256> 221 42<501 557 501 561> 319 43<-57.5 0> 393 43<250 297> 438 68<584.5 587.5>
LayerCount: 2
Fore
SplineSet
77 -109 m 0
 77 -60 104 -52 118 -52 c 0
 132 -52 145 -62 145 -78 c 0
 145 -93 134 -112 108 -115 c 1
 117 -176 161 -183 180 -183 c 0
 257 -183 319 -85 319 -30 c 0
 319 30 246 55 219 73 c 0
 171 106 147 155 147 210 c 0
 147 302 209 367 264 394 c 1
 236 426 221 461 221 506 c 0
 221 616 315 706 403 706 c 0
 460 706 506 667 506 609 c 0
 506 560 479 552 465 552 c 0
 451 552 438 562 438 578 c 0
 438 597 454 613 475 615 c 1
 468 675 422 683 403 683 c 0
 325 683 263 584 263 530 c 0
 263 472 338 444 360 430 c 0
 399 405 436 359 436 290 c 0
 436 210 386 140 320 106 c 1
 347 73 362 39 362 -6 c 0
 362 -116 268 -206 180 -206 c 0
 121 -206 77 -165 77 -109 c 0
190 234 m 0
 190 167 300 128 300 128 c 1
 327 128 393 207 393 266 c 0
 393 328 322 348 284 376 c 1
 225 348 190 273 190 234 c 0
EndSplineSet
EndChar

StartChar: dieresis
Encoding: 168 168 104
Width: 511
GlyphClass: 2
Flags: MW
TeX: 661 0
ItalicCorrection: 102
HStem: 553 105<489 503> 553 106<311 323>
VStem: 264 107<599.5 611> 443 107<600 611>
LayerCount: 2
Fore
SplineSet
264 596 m 0x70
 264 626 294 659 328 659 c 0
 354 659 371 640 371 616 c 0
 371 583 339 553 307 553 c 0
 283 553 264 570 264 596 c 0x70
443 596 m 0x90
 443 626 472 658 506 658 c 0
 530 658 550 641 550 615 c 0
 550 585 520 553 486 553 c 0
 460 553 443 572 443 596 c 0x90
EndSplineSet
EndChar

StartChar: copyright
Encoding: 169 169 105
Width: 1073
GlyphClass: 2
Flags: MW
TeX: 749 249
HStem: -272 40<379.5 611.5 379.5 623> -22 31<528 594 528 620> 469 31<638 692 583.5 699.5> 732 40<587.5 817.5>
VStem: 121 40<11 271 11 276.5> 333 89<116 174.5 93 261.5> 747 34 786 76 1036 40<231 489.5>
LayerCount: 2
Fore
SplineSet
333 179 m 0
 333 344 500 500 667 500 c 0
 717 500 756 482 784 446 c 1
 833 488 l 2
 842 495 848 499 853 499 c 0
 859 499 862 494 862 487 c 0
 862 481 833 367 818 307 c 0
 814 294 808 290 801 290 c 0
 795 290 786 295 786 302 c 0
 786 307 787 319 787 334 c 0
 787 439 724 469 675 469 c 0
 601 469 529 422 488 363 c 0
 446 301 422 203 422 146 c 0
 422 40 500 9 556 9 c 0
 632 9 717 68 747 156 c 0
 750 164 752 174 760 177 c 0
 768 181 781 178 781 166 c 0
 781 130 698 -22 542 -22 c 0
 430 -22 333 53 333 179 c 0
121 111 m 0
 121 442 420 772 724 772 c 0
 935 772 1076 609 1076 388 c 0
 1076 53 773 -272 473 -272 c 0
 262 -272 121 -110 121 111 c 0
161 111 m 0
 161 -89 286 -232 473 -232 c 0
 750 -232 1036 73 1036 389 c 0
 1036 590 911 732 724 732 c 0
 451 732 161 431 161 111 c 0
EndSplineSet
EndChar

StartChar: ordfeminine
Encoding: 170 170 106
Width: 460
GlyphClass: 2
Flags: MW
TeX: 749 0
ItalicCorrection: 131
HStem: 313 22<68 380 74 380 380 382> 364 23<191.5 222 378 387> 738 24<255 312.5>
VStem: 101 67<460 473.5 434.5 565> 451 32
LayerCount: 2
Fore
SplineSet
54 324 m 0
 54 333 65 335 74 335 c 2
 380 335 l 2
 392 335 404 334 404 324 c 0
 404 313 391 313 382 313 c 2
 74 313 l 2
 62 313 54 315 54 324 c 0
101 499 m 0
 101 631 204 762 296 762 c 0
 334 762 352 735 360 721 c 1
 361 721 l 1
 367 730 378 742 395 742 c 0
 410 742 422 733 422 716 c 0
 422 694 357 472 357 427 c 0
 357 393 373 387 383 387 c 0
 424 387 444 484 451 511 c 0
 455 524 462 528 468 528 c 0
 473 528 483 526 483 515 c 1
 483 515 466 411 420 377 c 0
 408 368 394 364 380 364 c 0
 342 364 314 388 302 423 c 1
 273 390 242 364 202 364 c 0
 141 364 101 421 101 499 c 0
168 450 m 0
 168 419 178 387 205 387 c 0
 245 387 289 447 296 464 c 2
 296 464 346 659 346 672 c 0
 346 700 328 738 297 738 c 0
 213 738 168 497 168 450 c 0
EndSplineSet
EndChar

StartChar: guillemotleft
Encoding: 171 171 107
Width: 562
GlyphClass: 2
Flags: MW
TeX: 483 0
ItalicCorrection: 68
HStem: 1 21G<474.5 479.5>
VStem: 463 24
LayerCount: 2
Fore
SplineSet
190 241 m 0
 190 263 284 282 424 471 c 0
 427 476 433 481 439 481 c 0
 442 481 448 479 448 472 c 0
 448 455 361 326 256 240 c 1
 332 119 334 23 334 17 c 0
 334 9 332 2 323 2 c 0
 301 2 313 103 211 213 c 0
 205 219 190 233 190 241 c 0
343 241 m 0
 343 263 437 281 578 471 c 0
 581 476 586 481 592 481 c 0
 595 481 601 479 601 472 c 0
 601 455 514 326 409 240 c 1
 485 119 487 23 487 17 c 0
 487 8 482 1 477 1 c 0
 472 1 466 7 463 21 c 0
 431 167 343 227 343 241 c 0
EndSplineSet
Substitution2: "'locl' +rW2sAAAA,+ycDF7QAA +rODHINYV in +t3zS9AAA +x5AA lookup 11 subtable" guillemotleft.lat
AlternateSubs2: "'salt' +wqTQwMd8ua0A +swDFSNYV in +t3zS9AAA +x5AA lookup 8 subtable" guillemotleft.lat
Substitution2: "'locl' +rW2sAAAA,+ycDF7QAA +rODHINYV in +rfi5rQAA +x5AA lookup 3 subtable" guillemotleft.gr
AlternateSubs2: "'salt' +wqTQwMd8ua0A +swDFSNYV in +rfi5rQAA +x5AA lookup 2 subtable" guillemotleft.gr
EndChar

StartChar: logicalnot
Encoding: 172 172 108
Width: 664
GlyphClass: 2
Flags: MW
TeX: 429 0
ItalicCorrection: 82
HStem: 316 40<178 641 190 625>
LayerCount: 2
Fore
SplineSet
161 336 m 0
 161 355 182 356 190 356 c 2
 641 356 l 2
 657 356 670 352 670 334 c 0
 670 324 671 332 618 120 c 0
 617 116 613 91 594 91 c 0
 586 91 575 96 575 111 c 0
 575 126 601 212 625 316 c 1
 190 316 l 2
 166 316 161 328 161 336 c 0
EndSplineSet
EndChar

StartChar: uni00AD
Encoding: 173 173 109
Width: 204
GlyphClass: 2
Flags: MW
TeX: 430 0
ItalicCorrection: 28
HStem: 187 56<102 315 116 308>
VStem: 86 251<194.5 235.5>
LayerCount: 2
Fore
SplineSet
86 201 m 1
 86 201 90 236 103 241 c 0
 107 243 111 243 116 243 c 2
 315 243 l 2
 326 243 337 242 337 229 c 0
 337 228 334 196 323 190 c 0
 319 188 313 187 308 187 c 2
 108 187 l 2
 96 187 86 188 86 201 c 1
EndSplineSet
EndChar

StartChar: registered
Encoding: 174 174 110
Width: 1073
GlyphClass: 2
Flags: MW
TeX: 749 249
HStem: -272 40<379.5 611.5 379.5 623> -22 23<733 774> 0 31<491.5 493 479 505.5> 228 22<485 553 479 555> 447 31<388 394 552.5 573 573 605> 732 40<587.5 817.5>
VStem: 121 40<11 271 11 276.5> 618 97<50 80> 638 79<151.5 166.5 135 176.5> 725 92<373.5 390 328.5 413.5> 825 25 1036 40<231 489.5>
LayerCount: 2
Fore
SplineSet
253 14 m 0xdef0
 253 48 325 16 350 47 c 0
 360 59 363 78 367 95 c 2
 445 408 l 2
 447 416 449 423 449 428 c 0
 449 444 436 446 394 447 c 0
 380 447 365 448 365 461 c 0
 365 469 372 478 388 478 c 2
 620 478 l 2
 772 478 817 412 817 368 c 0
 817 289 704 247 653 237 c 1
 703 211 717 189 717 144 c 0xdef0
 717 126 715 102 715 65 c 0
 715 35 718 1 748 1 c 0
 800 1 817 84 825 93 c 0
 827 96 832 97 837 97 c 0
 844 97 850 93 850 84 c 0
 850 74 823 -22 743 -22 c 0
 690 -22 618 -5 618 63 c 0xdf70
 618 97 638 135 638 168 c 0
 638 185 632 200 616 213 c 0
 597 227 578 228 553 228 c 2
 479 228 l 1
 479 228 436 61 436 50 c 0
 436 32 458 31 479 31 c 2
 485 31 l 2
 501 31 514 31 518 23 c 0
 519 21 520 19 520 17 c 0
 520 8 513 0 498 0 c 0xbef0
 485 0 458 3 382 3 c 0
 316 3 294 1 272 1 c 0
 262 1 253 4 253 14 c 0xdef0
485 250 m 1
 555 250 l 2
 597 250 657 255 691 290 c 0
 716 316 725 364 725 383 c 0
 725 444 656 447 605 447 c 2
 573 447 l 2
 532 447 532 442 518 384 c 0
 491 277 488 263 485 250 c 1
121 111 m 0x8610
 121 442 420 772 724 772 c 0
 935 772 1076 609 1076 388 c 0
 1076 53 773 -272 473 -272 c 0
 262 -272 121 -110 121 111 c 0x8610
161 111 m 0
 161 -89 286 -232 473 -232 c 0
 750 -232 1036 73 1036 389 c 0
 1036 590 911 732 724 732 c 0
 451 732 161 431 161 111 c 0
EndSplineSet
EndChar

StartChar: macron
Encoding: 175 175 111
Width: 511
GlyphClass: 2
Flags: MW
TeX: 661 0
ItalicCorrection: 126
HStem: 650 31<272.5 564 277 564>
VStem: 256 330<664.5 667>
LayerCount: 2
Fore
SplineSet
256 664 m 0
 256 670 258 681 277 681 c 2
 564 681 l 2
 577 681 586 679 586 668 c 0
 586 661 583 650 564 650 c 2
 277 650 l 2
 268 650 256 652 256 664 c 0
EndSplineSet
EndChar

StartChar: degree
Encoding: 176 176 112
Width: 358
GlyphClass: 2
Flags: MW
TeX: 683 0
HStem: 480 40<290 325 290 335.5> 643 40<322 356.5>
VStem: 219 40<549.5 581.5 549.5 592.5> 387 40<581.5 613.5>
LayerCount: 2
Fore
SplineSet
219 562 m 0
 219 623 278 683 344 683 c 0
 391 683 427 650 427 601 c 0
 427 540 368 480 303 480 c 0
 253 480 219 516 219 562 c 0
259 562 m 0
 259 537 277 520 303 520 c 0
 347 520 387 562 387 601 c 0
 387 626 370 643 343 643 c 0
 301 643 259 601 259 562 c 0
EndSplineSet
EndChar

StartChar: plusminus
Encoding: 177 177 113
Width: 766
GlyphClass: 2
Flags: MW
TeX: 554 56
ItalicCorrection: 36
HStem: 20 40<103.5 377 117 377 418 668 668 670> 307 40<192.5 193 193 439 190 479 490 733>
LayerCount: 2
Fore
SplineSet
87 40 m 0
 87 59 106 60 117 60 c 2
 377 60 l 1
 439 307 l 1
 193 307 l 2
 192 307 190 306 188 306 c 0
 177 306 159 308 159 326 c 0
 159 345 176 347 190 347 c 2
 449 347 l 1
 512 600 l 2
 513 605 517 632 536 632 c 0
 548 632 555 621 555 611 c 0
 555 595 515 457 490 347 c 1
 740 347 l 2
 751 347 769 346 769 327 c 0
 769 308 752 306 739 306 c 0
 737 306 735 307 733 307 c 2
 479 307 l 1
 418 60 l 1
 668 60 l 2
 682 60 698 58 698 40 c 0
 698 32 694 20 670 20 c 2
 116 20 l 2
 91 20 87 32 87 40 c 0
EndSplineSet
EndChar

StartChar: twosuperior
Encoding: 178 178 114
Width: 460
GlyphClass: 2
Flags: MW
TeX: 749 0
ItalicCorrection: 161
HStem: 336 70<377.5 422.5 377.5 434> 393 22<259 277.5> 588 23<272.5 301 272.5 306.5> 749 23<357 408.5>
VStem: 224 31<633 667.5 633 672> 359 24<662 680> 469 74<626 691 626 708.5>
LayerCount: 2
Fore
SplineSet
174 349 m 0xbe
 174 369 210 460 304 508 c 0
 355 534 469 564 469 681 c 0
 469 736 424 749 393 749 c 0
 321 749 255 694 255 641 c 0
 255 625 263 611 282 611 c 0
 320 611 359 650 359 674 c 0
 359 686 346 694 346 704 c 0
 346 709 349 713 355 713 c 0
 367 713 383 694 383 676 c 0
 383 638 334 588 279 588 c 0
 246 588 224 612 224 643 c 0
 224 701 292 772 396 772 c 0
 479 772 543 726 543 656 c 0
 543 596 495 558 373 506 c 0
 323 485 284 472 238 413 c 1
 246 414 255 415 263 415 c 0x7e
 297 415 354 406 401 406 c 0
 444 406 482 418 500 445 c 0
 507 456 509 468 523 468 c 0
 533 468 536 463 536 456 c 0
 536 422 475 336 393 336 c 0xbe
 335 336 298 393 257 393 c 0x7e
 217 393 207 348 201 341 c 0
 198 338 193 336 188 336 c 0
 183 336 174 339 174 349 c 0xbe
EndSplineSet
EndChar

StartChar: threesuperior
Encoding: 179 179 115
Width: 460
GlyphClass: 2
Flags: MW
TeX: 749 0
ItalicCorrection: 161
HStem: 325 23<274 341.5> 451 80<210 243 210 243> 541 31<319 361 332 358> 605 23<294 316.5 294 323.5> 749 23<413 437.5>
VStem: 180 30<421.5 451 406.5 481.5> 241 31<647 670 647 673.5> 368 22<691.5 720.5> 423 73<471.5 494 428 513> 487 62<680.5 705.5 652 712>
LayerCount: 2
Fore
SplineSet
180 446 m 0xff80
 180 517 212 531 233 531 c 0
 253 531 267 517 267 499 c 0
 267 486 257 451 215 451 c 2
 210 451 l 1
 210 362 258 348 290 348 c 0
 397 348 423 452 423 491 c 0xff80
 423 535 386 541 358 541 c 2
 326 541 l 2
 312 541 307 547 307 554 c 0
 307 571 322 572 332 572 c 2
 361 572 l 2
 476 572 487 668 487 693 c 0
 487 731 457 749 418 749 c 0
 408 749 397 748 387 747 c 1
 389 737 390 726 390 716 c 0
 390 658 347 605 300 605 c 0
 267 605 241 625 241 655 c 0
 241 692 278 743 358 764 c 1
 363 770 366 772 371 772 c 0
 376 772 382 770 388 770 c 0
 398 770 405 772 419 772 c 0
 492 772 549 734 549 677 c 0xff40
 549 627 502 574 434 552 c 1
 449 544 496 521 496 467 c 0
 496 389 392 325 291 325 c 0
 202 325 180 397 180 446 c 0xff80
272 655 m 0
 272 639 286 628 302 628 c 0
 331 628 368 667 368 716 c 0
 368 725 367 733 365 742 c 1
 307 726 272 685 272 655 c 0
EndSplineSet
EndChar

StartChar: acute
Encoding: 180 180 116
Width: 511
GlyphClass: 2
Flags: MW
TeX: 641 0
ItalicCorrection: 83
HStem: 499 152<356 524.5>
VStem: 346 199<510.5 630.5>
LayerCount: 2
Fore
SplineSet
346 514 m 0
 346 525 343 519 490 639 c 0
 497 645 506 651 517 651 c 0
 532 651 545 638 545 623 c 0
 545 600 520 589 515 586 c 0
 370 502 367 499 360 499 c 0
 352 499 346 507 346 514 c 0
EndSplineSet
EndChar

StartChar: uni00B5
Encoding: 181 181 117
Width: 511
GlyphClass: 2
Flags: MW
TeX: 429 194
ItalicCorrection: 76
HStem: -11 23<218 256 429 438> 421 20G<195.5 215>
VStem: 24 115 170 67<402 402> 503 31
LayerCount: 2
Fore
SplineSet
24 -189 m 0
 24 -182 26 -175 28 -168 c 2
 170 402 l 2
 173 412 181 441 210 441 c 0
 220 441 237 435 237 413 c 0
 237 381 166 158 166 94 c 0
 166 25 205 12 231 12 c 0
 298 12 342 84 350 103 c 0
 354 112 356 122 358 131 c 2
 420 379 l 2
 423 389 428 430 462 430 c 0
 476 430 489 420 489 404 c 0
 489 395 486 386 484 377 c 2
 418 110 l 2
 413 91 408 72 408 52 c 0
 408 18 424 12 434 12 c 0
 476 12 495 112 503 138 c 0
 506 150 514 153 520 153 c 0
 525 153 534 151 534 140 c 1
 534 140 518 34 471 1 c 0
 459 -7 445 -11 431 -11 c 0
 405 -11 365 2 350 56 c 1
 323 21 285 -11 227 -11 c 0
 174 -11 146 13 139 18 c 1
 85 -200 89 -193 77 -205 c 0
 70 -212 61 -216 51 -216 c 0
 38 -216 24 -206 24 -189 c 0
EndSplineSet
EndChar

StartChar: paragraph
Encoding: 182 182 118
Width: 613
GlyphClass: 2
Flags: MW
TeX: 694 194
HStem: -194 40<238 301 251 301 343 405 446 486 486 487> 654 40<544 607 544 544 648 697 648 648>
LayerCount: 2
Fore
SplineSet
186 417 m 0
 186 527 292 694 490 694 c 2
 698 694 l 2
 707 694 728 694 728 674 c 0
 728 655 711 654 697 654 c 2
 648 654 l 1
 446 -154 l 1
 486 -154 l 2
 497 -154 516 -155 516 -174 c 0
 516 -182 511 -194 487 -194 c 2
 250 -194 l 2
 226 -194 221 -182 221 -174 c 0
 221 -156 239 -154 251 -154 c 2
 301 -154 l 1
 397 231 l 1
 234 246 186 345 186 417 c 0
343 -154 m 1
 405 -154 l 1
 607 654 l 1
 544 654 l 1
 343 -154 l 1
EndSplineSet
EndChar

StartChar: periodcentered
Encoding: 183 183 119
Width: 307
GlyphClass: 2
Flags: MW
TeX: 429 0
HStem: 189 105<207 219>
VStem: 159 108<235.5 247>
LayerCount: 2
Fore
SplineSet
159 232 m 0
 159 262 190 294 224 294 c 0
 250 294 267 276 267 252 c 0
 267 219 235 189 203 189 c 0
 177 189 159 208 159 232 c 0
EndSplineSet
EndChar

StartChar: cedilla
Encoding: 184 184 120
Width: 460
GlyphClass: 2
Flags: MW
TeX: 0 170
HStem: -192 22<87 105 95 105>
VStem: 183 79<-69.5 13.5> 244 65<-135 -91 -144 -85.5>
LayerCount: 2
Fore
SplineSet
77 -181 m 0xa0
 77 -170 91 -170 103 -170 c 2
 105 -170 l 2
 170 -170 244 -161 244 -109 c 0xa0
 244 -62 183 -82 183 -57 c 0
 183 -50 185 -48 196 -2 c 0
 201 20 204 22 227 22 c 2
 238 22 l 2
 256 22 262 19 262 8 c 0xc0
 262 -3 256 -22 248 -53 c 1
 276 -59 309 -73 309 -109 c 0
 309 -179 215 -192 99 -192 c 2
 95 -192 l 2
 79 -192 77 -185 77 -181 c 0xa0
EndSplineSet
EndChar

StartChar: onesuperior
Encoding: 185 185 121
Width: 460
GlyphClass: 2
Flags: MW
TeX: 749 0
ItalicCorrection: 161
HStem: 347 32<207 222 211 222 211 222 426 433.5 426 433.5>
VStem: 193 267
LayerCount: 2
Fore
SplineSet
193 361 m 0
 193 378 208 379 219 379 c 2
 222 379 l 2
 299 379 300 390 311 437 c 2
 373 685 l 1
 349 674 309 661 283 661 c 0
 268 661 258 665 258 676 c 0
 258 710 324 663 431 760 c 0
 435 764 443 770 449 770 c 0
 456 770 460 764 460 757 c 0
 460 752 458 747 454 732 c 2
 380 436 l 2
 376 419 373 406 373 398 c 0
 373 380 393 379 414 379 c 2
 424 379 l 2
 443 379 459 378 459 364 c 0
 459 350 447 347 434 347 c 1
 434 348 l 1
 273 349 l 1
 213 347 l 2
 201 347 193 350 193 361 c 0
211 347 m 1
 213 347 l 1
 211 347 l 1
426 347 m 1
 434 347 l 1
 426 347 l 1
EndSplineSet
EndChar

StartChar: ordmasculine
Encoding: 186 186 122
Width: 460
GlyphClass: 2
Flags: MW
TeX: 749 0
ItalicCorrection: 131
HStem: 313 22<73 75 75 356 356 360> 364 23<218.5 245 218.5 283.5> 739 23<307 336>
VStem: 102 70<466.5 484.5 436 571> 380 70<642 659 552.5 687>
LayerCount: 2
Fore
SplineSet
54 324 m 0
 54 329 56 335 73 335 c 2
 356 335 l 2
 367 335 379 334 379 323 c 0
 379 318 374 313 360 313 c 2
 75 313 l 2
 64 313 54 314 54 324 c 0
102 508 m 0
 102 634 213 762 323 762 c 0
 399 762 450 701 450 617 c 0
 450 488 338 364 229 364 c 0
 153 364 102 425 102 508 c 0
172 469 m 0
 172 403 207 387 230 387 c 0
 260 387 289 410 311 437 c 0
 359 497 380 627 380 657 c 0
 380 717 350 739 322 739 c 0
 292 739 261 715 240 688 c 0
 193 628 172 500 172 469 c 0
EndSplineSet
EndChar

StartChar: guillemotright
Encoding: 187 187 123
Width: 562
GlyphClass: 2
Flags: MW
TeX: 483 0
VStem: 273 66<243 244 244 244> 426 66<243 244 244 244>
LayerCount: 2
Fore
SplineSet
81 11 m 0
 81 26 167 156 273 243 c 1
 273 244 l 1
 214 328 196 439 196 467 c 0
 196 474 198 481 206 481 c 0
 228 481 216 380 318 270 c 0
 337 250 339 248 339 242 c 0
 339 223 235 189 105 12 c 0
 102 7 96 2 90 2 c 0
 87 2 81 4 81 11 c 0
234 11 m 0
 234 28 321 158 426 243 c 1
 426 244 l 1
 367 327 349 438 349 467 c 0
 349 474 351 481 359 481 c 0
 381 481 369 380 471 270 c 0
 490 250 492 248 492 242 c 0
 492 223 388 189 258 12 c 0
 255 7 249 2 243 2 c 0
 237 2 234 6 234 11 c 0
EndSplineSet
Substitution2: "'locl' +rW2sAAAA,+ycDF7QAA +rODHINYV in +t3zS9AAA +x5AA lookup 11 subtable" guillemotright.lat
AlternateSubs2: "'salt' +wqTQwMd8ua0A +swDFSNYV in +t3zS9AAA +x5AA lookup 8 subtable" guillemotright.lat
Substitution2: "'locl' +rW2sAAAA,+ycDF7QAA +rODHINYV in +rfi5rQAA +x5AA lookup 3 subtable" guillemotright.gr
AlternateSubs2: "'salt' +wqTQwMd8ua0A +swDFSNYV in +rfi5rQAA +x5AA lookup 2 subtable" guillemotright.gr
EndChar

StartChar: onequarter
Encoding: 188 188 124
Width: 460
GlyphClass: 2
Flags: MW
TeX: 749 194
ItalicCorrection: 161
HStem: -194 21G<245 259> -16 32<325 358 325 358> -9 30<262 270> 2 31<132.5 173 146 173> 258 40<124.5 465 132 465 465 466> 338 31<416 439>
VStem: 224 62
LayerCount: 2
Fore
SplineSet
44 17 m 0x9e
 44 32 66 29 120 54 c 0
 306 140 249 239 311 239 c 0
 319 239 326 236 331 233 c 1
 340 238 348 240 355 240 c 0
 371 240 382 229 382 214 c 0
 382 203 384 218 334 16 c 1
 382 16 387 18 397 18 c 0
 415 18 418 8 418 3 c 0
 418 -6 411 -16 326 -16 c 2
 325 -16 l 1xce
 325 -16 292 -156 286 -170 c 0
 280 -183 266 -194 252 -194 c 0
 238 -194 224 -185 224 -167 c 0
 224 -152 240 -104 262 -9 c 1xae
 262 -9 211 2 154 2 c 2
 146 2 l 2
 119 2 97 1 81 1 c 0
 56 1 44 4 44 17 c 0x9e
101 277 m 0
 101 296 120 298 132 298 c 2
 465 298 l 2
 477 298 496 296 496 277 c 0
 496 269 491 258 466 258 c 2
 130 258 l 2
 119 258 101 260 101 277 c 0
156 33 m 1x9e
 190 33 202 32 270 21 c 1xae
 296 126 l 1
 278 109 247 73 156 34 c 1
 156 33 l 1x9e
191 351 m 0
 191 375 216 367 258 371 c 0
 294 375 299 384 310 428 c 2
 374 685 l 1
 348 674 309 661 283 661 c 0
 269 661 258 665 258 676 c 0
 258 708 328 667 432 760 c 0
 436 764 443 770 449 770 c 0
 455 770 460 765 460 757 c 0
 460 752 458 747 454 731 c 2
 379 427 l 2
 375 409 371 398 371 389 c 0
 371 370 394 369 416 369 c 2
 422 369 l 2
 435 369 448 369 453 365 c 0
 459 360 458 350 453 344 c 0
 449 339 442 338 436 338 c 0
 425 338 391 340 324 340 c 0
 245 340 222 338 210 338 c 0
 199 338 191 340 191 351 c 0
EndSplineSet
EndChar

StartChar: onehalf
Encoding: 189 189 125
Width: 460
GlyphClass: 2
Flags: MW
TeX: 749 194
ItalicCorrection: 161
HStem: -217 70<246 264.5 246 306.5> -169 23<109 123.5 109 137> -27 24<114.5 143.5 114.5 155.5> 217 23<224.5 279.5> 258 40<124.5 465 132 465 465 466> 338 31<416 438>
VStem: 65 33<11.5 20 11.5 28> 210 24<65 90.5> 332 72<60 147.5 38.5 163.5>
LayerCount: 2
Fore
SplineSet
36 -204 m 0x7f80
 36 -184 61 -140 115 -104 c 0
 179 -60 332 -19 332 139 c 0
 332 188 300 217 259 217 c 0
 190 217 129 137 100 31 c 0
 99 27 98 22 98 18 c 0
 98 5 105 -3 124 -3 c 0
 163 -3 210 45 210 83 c 0
 210 98 199 109 199 118 c 0
 199 122 201 127 209 127 c 0
 221 127 234 106 234 84 c 0
 234 46 189 -27 122 -27 c 0
 97 -27 65 -16 65 14 c 0
 65 42 126 240 263 240 c 0
 341 240 404 187 404 108 c 0
 404 -31 207 -67 109 -146 c 1x7f80
 138 -146 239 -147 253 -147 c 0
 276 -147 308 -147 345 -106 c 0
 389 -57 372 -30 398 -30 c 0
 405 -30 412 -33 412 -43 c 0
 412 -66 359 -217 254 -217 c 0xbf80
 200 -217 158 -169 116 -169 c 0
 70 -169 72 -216 49 -216 c 0
 41 -216 36 -211 36 -204 c 0x7f80
101 277 m 0
 101 296 120 298 132 298 c 2
 465 298 l 2
 477 298 495 296 495 277 c 0
 495 269 491 258 466 258 c 2
 130 258 l 2
 119 258 101 260 101 277 c 0
190 351 m 0
 190 375 216 367 258 371 c 0
 294 375 298 384 309 428 c 2
 374 685 l 1
 349 674 308 661 282 661 c 0
 268 661 258 665 258 676 c 0
 258 710 325 664 432 760 c 0
 436 764 443 770 449 770 c 0
 455 770 460 765 460 757 c 0
 460 752 458 747 454 731 c 2
 378 427 l 2
 374 409 370 398 370 389 c 0
 370 370 394 369 416 369 c 2
 422 369 l 2
 435 369 448 369 453 365 c 0
 459 360 458 350 453 344 c 0
 449 339 441 338 435 338 c 0
 424 338 390 340 323 340 c 0
 244 340 222 338 210 338 c 0
 199 338 190 340 190 351 c 0
EndSplineSet
EndChar

StartChar: threequarters
Encoding: 190 190 126
Width: 460
GlyphClass: 2
Flags: MW
TeX: 749 194
ItalicCorrection: 161
HStem: -194 21G<244.5 259> -16 32<334 337.5> -9 30<262 270> 2 31<115 178 146 178> 258 40<124.5 465 132 465 465 466> 315 23<272 307.5 272 334> 441 80<208 240.5 208 240.5> 536 31<325 357 333 355> 579 26<332 333 332 351> 749 23<375 436.5>
VStem: 178 30<411.5 441 396.5 472.5> 224 62 241 32<636 672 636 679.5> 421 73<475 478 417.5 505.5> 486 62<677 704 649.5 710>
LayerCount: 2
Fore
SplineSet
45 17 m 0x9ff0
 45 32 63 28 121 55 c 0
 306 141 250 239 312 239 c 0
 320 239 326 236 331 233 c 2
 332 233 l 1
 341 238 348 240 355 240 c 0
 371 240 382 229 382 214 c 0
 382 200 366 156 334 16 c 1xcff0
 383 16 388 18 395 18 c 0
 409 18 418 10 418 2 c 0x9ff0
 418 -4 414 -9 401 -11 c 0
 377 -14 350 -16 325 -16 c 1xcff0
 325 -16 292 -156 286 -170 c 0
 280 -183 266 -194 252 -194 c 0
 237 -194 224 -183 224 -167 c 0
 224 -152 240 -104 262 -9 c 1xaff0
 262 -9 211 2 152 2 c 2
 146 2 l 2
 84 2 76 1 68 1 c 0
 50 1 45 10 45 17 c 0x9ff0
101 277 m 0
 101 296 120 298 132 298 c 2
 465 298 l 2
 477 298 496 296 496 277 c 0
 496 269 491 258 466 258 c 2
 130 258 l 2
 119 258 101 260 101 277 c 0
155 33 m 1x9fe0
 201 33 213 31 270 21 c 1xafe0
 296 126 l 1
 284 114 247 72 155 34 c 1
 155 33 l 1x9fe0
178 437 m 0
 178 508 210 521 231 521 c 0
 250 521 265 507 265 488 c 0
 265 474 254 441 211 441 c 2
 208 441 l 1
 208 352 256 338 288 338 c 0
 327 338 370 358 393 392 c 0
 413 422 421 465 421 485 c 0x8fe4
 421 526 391 536 355 536 c 2
 331 536 l 2
 319 536 307 536 307 550 c 0
 307 566 323 567 333 567 c 2
 357 567 l 2
 474 567 486 663 486 691 c 0
 486 729 456 749 417 749 c 0
 333 749 273 691 273 653 c 0
 273 619 301 635 332 605 c 1
 333 605 l 1
 342 612 350 615 355 615 c 0
 361 615 365 611 365 603 c 0
 365 598 363 579 339 579 c 0
 312 579 317 592 305 598 c 0
 295 603 241 604 241 652 c 0
 241 707 316 772 419 772 c 0
 493 772 548 733 548 675 c 0x8fea
 548 624 505 574 432 547 c 1
 475 527 494 495 494 461 c 0x8fe4
 494 374 379 315 289 315 c 0
 201 315 178 386 178 437 c 0
EndSplineSet
EndChar

StartChar: questiondown
Encoding: 191 191 127
Width: 511
GlyphClass: 2
Flags: MW
TeX: 499 194
HStem: -216 22<178 242.5 178 280> -11 80 290 23<314 333.5> 394 106<359 372>
VStem: 83 36<-128.5 -64> 219 33 312 108<440.5 452> 353 35<246.5 263.5 227 268.5> 359 82<15.5 33.5>
LayerCount: 2
Fore
SplineSet
83 -93 m 0xfc80
 83 -35 113 18 147 52 c 0
 172 78 316 187 332 204 c 0
 343 216 353 236 353 257 c 0
 353 280 341 290 326 290 c 0
 302 290 267 265 252 229 c 0
 250 224 249 217 245 213 c 0
 237 205 219 206 219 220 c 0
 219 244 263 313 328 313 c 0
 366 313 388 283 388 244 c 0xfd
 388 210 373 177 356 157 c 0
 345 144 329 132 217 43 c 0
 198 28 119 -22 119 -106 c 0
 119 -156 152 -194 204 -194 c 0
 281 -194 353 -123 396 -11 c 1
 364 -10 359 8 359 21 c 0
 359 46 383 69 407 69 c 0
 426 69 441 56 441 37 c 0
 441 -6 357 -216 203 -216 c 0
 131 -216 83 -164 83 -93 c 0xfc80
312 437 m 0xfe
 312 467 342 500 376 500 c 0
 402 500 420 481 420 457 c 0
 420 424 388 394 356 394 c 0
 332 394 312 411 312 437 c 0xfe
EndSplineSet
EndChar

StartChar: Agrave
Encoding: 192 192 128
Width: 743
GlyphClass: 2
Flags: MW
TeX: 855 0
HStem: 0 31<663 669 663 678> 230 30<307 515 307 517 289 515> 696 20<539.5 558.5>
VStem: 59 145<8.5 75.5>
AnchorPoint: "Anchor-5" 580 840 basechar 0
AnchorPoint: "Anchor-4" 370 0 basechar 0
LayerCount: 2
Fore
SplineSet
448 834 m 0
 448 849 464 871 485 871 c 0
 495 871 503 866 511 860 c 0
 622 776 624 777 624 767 c 0
 624 760 618 750 608 750 c 0
 603 750 605 750 474 805 c 0
 462 810 448 817 448 834 c 0
59 14 m 0
 59 54 120 -5 190 113 c 2
 517 689 l 2
 523 698 530 716 549 716 c 0
 568 716 567 700 568 688 c 2
 611 67 l 2
 613 36 623 32 663 31 c 0
 675 31 690 32 690 17 c 0
 690 10 686 0 670 0 c 0
 650 0 629 3 567 3 c 0
 490 3 465 0 455 0 c 0
 445 0 440 7 440 14 c 0
 440 44 488 19 520 46 c 0
 527 52 528 61 528 73 c 0
 528 88 523 135 517 230 c 1
 289 230 l 1
 225 118 204 86 204 65 c 0
 204 23 259 40 259 19 c 0
 259 12 257 0 239 0 c 0
 230 0 203 3 150 3 c 0
 117 3 93 0 81 0 c 0
 65 0 59 3 59 14 c 0
307 260 m 1
 515 260 l 1
 493 587 l 1
 307 260 l 1
EndSplineSet
Substitution2: "'locl' +rW2sAAAA,+ycDF7QAA +rODHINYV in +t3zS9AAA +x5AA lookup 10 subtable" Agrave.vn
AlternateSubs2: "'ss01' +wqTQwMd8wTjSuAAA-1 lookup 9 subtable" Agrave.vn
AlternateSubs2: "'salt' +wqTQwMd8ua0A +swDFSNYV in +t3zS9AAA +x5AA lookup 8 subtable" Agrave.vn
EndChar

StartChar: Aacute
Encoding: 193 193 129
Width: 743
GlyphClass: 2
Flags: MW
TeX: 855 0
HStem: 0 31<663 669 663 678> 230 30<307 515 307 517 289 515> 696 20<539.5 558.5> 750 120
VStem: 59 145<8.5 75.5> 475 211<763 849>
AnchorPoint: "Anchor-5" 580 839 basechar 0
AnchorPoint: "Anchor-4" 370 0 basechar 0
LayerCount: 2
Fore
SplineSet
475 765 m 0
 475 777 471 773 630 860 c 0
 635 863 647 870 659 870 c 0
 676 870 686 856 686 842 c 0
 686 819 666 811 650 805 c 0
 505 755 495 750 488 750 c 0
 477 750 475 761 475 765 c 0
59 14 m 0
 59 54 120 -5 190 113 c 2
 517 689 l 2
 523 698 530 716 549 716 c 0
 568 716 567 700 568 688 c 2
 611 67 l 2
 613 36 623 32 663 31 c 0
 675 31 690 32 690 17 c 0
 690 10 686 0 670 0 c 0
 650 0 629 3 567 3 c 0
 490 3 465 0 455 0 c 0
 445 0 440 7 440 14 c 0
 440 44 488 19 520 46 c 0
 527 52 528 61 528 73 c 0
 528 88 523 135 517 230 c 1
 289 230 l 1
 225 118 204 86 204 65 c 0
 204 23 259 40 259 19 c 0
 259 12 257 0 239 0 c 0
 230 0 203 3 150 3 c 0
 117 3 93 0 81 0 c 0
 65 0 59 3 59 14 c 0
307 260 m 1
 515 260 l 1
 493 587 l 1
 307 260 l 1
EndSplineSet
Substitution2: "'locl' +rW2sAAAA,+ycDF7QAA +rODHINYV in +t3zS9AAA +x5AA lookup 10 subtable" Aacute.vn
AlternateSubs2: "'ss01' +wqTQwMd8wTjSuAAA-1 lookup 9 subtable" Aacute.vn
AlternateSubs2: "'salt' +wqTQwMd8ua0A +swDFSNYV in +t3zS9AAA +x5AA lookup 8 subtable" Aacute.vn
EndChar

StartChar: Acircumflex
Encoding: 194 194 130
Width: 743
GlyphClass: 2
Flags: MW
TeX: 891 0
HStem: 0 31<663 669 663 678> 230 30<307 515 307 517 289 515> 696 20<539.5 558.5>
VStem: 59 145<8.5 75.5>
AnchorPoint: "Anchor-5" 587 869 basechar 0
AnchorPoint: "Anchor-4" 370 0 basechar 0
LayerCount: 2
Fore
SplineSet
433 755 m 0
 433 762 440 768 445 773 c 0
 584 898 584 900 593 900 c 0
 604 900 614 881 621 869 c 0
 686 764 687 762 687 756 c 0
 687 748 678 741 670 741 c 0
 660 741 658 747 585 847 c 1
 573 838 561 828 466 751 c 0
 464 750 455 741 447 741 c 0
 439 741 433 747 433 755 c 0
59 14 m 0
 59 54 120 -5 190 113 c 2
 517 689 l 2
 523 698 530 716 549 716 c 0
 568 716 567 700 568 688 c 2
 611 67 l 2
 613 36 623 32 663 31 c 0
 675 31 690 32 690 17 c 0
 690 10 686 0 670 0 c 0
 650 0 629 3 567 3 c 0
 490 3 465 0 455 0 c 0
 445 0 440 7 440 14 c 0
 440 44 488 19 520 46 c 0
 527 52 528 61 528 73 c 0
 528 88 523 135 517 230 c 1
 289 230 l 1
 225 118 204 86 204 65 c 0
 204 23 259 40 259 19 c 0
 259 12 257 0 239 0 c 0
 230 0 203 3 150 3 c 0
 117 3 93 0 81 0 c 0
 65 0 59 3 59 14 c 0
307 260 m 1
 515 260 l 1
 493 587 l 1
 307 260 l 1
EndSplineSet
Substitution2: "'locl' +rW2sAAAA,+ycDF7QAA +rODHINYV in +t3zS9AAA +x5AA lookup 10 subtable" Acircumflex.vn
AlternateSubs2: "'ss01' +wqTQwMd8wTjSuAAA-1 lookup 9 subtable" Acircumflex.vn
AlternateSubs2: "'salt' +wqTQwMd8ua0A +swDFSNYV in +t3zS9AAA +x5AA lookup 8 subtable" Acircumflex.vn
EndChar

StartChar: Atilde
Encoding: 195 195 131
Width: 743
GlyphClass: 2
Flags: MW
TeX: 891 0
HStem: 0 31<663 669 663 678> 230 30<307 515 307 517 289 515> 696 20<539.5 558.5> 800 36<631.5 669.5> 855 36<499 532>
VStem: 59 145<8.5 75.5>
AnchorPoint: "Anchor-5" 585 860 basechar 0
AnchorPoint: "Anchor-4" 370 0 basechar 0
LayerCount: 2
Fore
SplineSet
397 811 m 0
 397 817 402 823 406 827 c 0
 433 853 476 891 522 891 c 0
 579 891 608 836 655 836 c 0
 690 836 722 864 743 882 c 0
 758 895 767 888 767 880 c 0
 767 867 697 800 642 800 c 0
 586 800 556 855 508 855 c 0
 459 855 423 802 406 802 c 0
 401 802 397 806 397 811 c 0
59 14 m 0
 59 54 120 -5 190 113 c 2
 517 689 l 2
 523 698 530 716 549 716 c 0
 568 716 567 700 568 688 c 2
 611 67 l 2
 613 36 623 32 663 31 c 0
 675 31 690 32 690 17 c 0
 690 10 686 0 670 0 c 0
 650 0 629 3 567 3 c 0
 490 3 465 0 455 0 c 0
 445 0 440 7 440 14 c 0
 440 44 488 19 520 46 c 0
 527 52 528 61 528 73 c 0
 528 88 523 135 517 230 c 1
 289 230 l 1
 225 118 204 86 204 65 c 0
 204 23 259 40 259 19 c 0
 259 12 257 0 239 0 c 0
 230 0 203 3 150 3 c 0
 117 3 93 0 81 0 c 0
 65 0 59 3 59 14 c 0
307 260 m 1
 515 260 l 1
 493 587 l 1
 307 260 l 1
EndSplineSet
Substitution2: "'locl' +rW2sAAAA,+ycDF7QAA +rODHINYV in +t3zS9AAA +x5AA lookup 10 subtable" Atilde.vn
AlternateSubs2: "'ss01' +wqTQwMd8wTjSuAAA-1 lookup 9 subtable" Atilde.vn
AlternateSubs2: "'salt' +wqTQwMd8ua0A +swDFSNYV in +t3zS9AAA +x5AA lookup 8 subtable" Atilde.vn
EndChar

StartChar: Adieresis
Encoding: 196 196 132
Width: 743
GlyphClass: 2
Flags: MW
TeX: 891 0
HStem: 0 31<663 669 663 678> 230 30<307 515 307 517 289 515> 696 20<539.5 558.5> 786 105<484 498> 786 106<663 676>
VStem: 59 145<8.5 75.5> 438 107<833 844> 616 107<834 844>
AnchorPoint: "Anchor-5" 585 861 basechar 0
AnchorPoint: "Anchor-4" 370 0 basechar 0
LayerCount: 2
Fore
SplineSet
438 829 m 0x12
 438 859 467 891 501 891 c 0
 525 891 545 874 545 848 c 0
 545 818 515 786 481 786 c 0
 455 786 438 805 438 829 c 0x12
616 829 m 0x09
 616 859 646 892 680 892 c 0
 706 892 723 873 723 849 c 0
 723 819 693 786 659 786 c 0
 633 786 616 805 616 829 c 0x09
59 14 m 0xe4
 59 54 120 -5 190 113 c 2
 517 689 l 2
 523 698 530 716 549 716 c 0
 568 716 567 700 568 688 c 2
 611 67 l 2
 613 36 623 32 663 31 c 0
 675 31 690 32 690 17 c 0
 690 10 686 0 670 0 c 0
 650 0 629 3 567 3 c 0
 490 3 465 0 455 0 c 0
 445 0 440 7 440 14 c 0
 440 44 488 19 520 46 c 0
 527 52 528 61 528 73 c 0
 528 88 523 135 517 230 c 1
 289 230 l 1
 225 118 204 86 204 65 c 0
 204 23 259 40 259 19 c 0
 259 12 257 0 239 0 c 0
 230 0 203 3 150 3 c 0
 117 3 93 0 81 0 c 0
 65 0 59 3 59 14 c 0xe4
307 260 m 1
 515 260 l 1
 493 587 l 1
 307 260 l 1
EndSplineSet
EndChar

StartChar: Aring
Encoding: 197 197 133
Width: 743
GlyphClass: 2
Flags: MW
TeX: 855 0
HStem: 0 31<667 671 667 676> 1 41 230 30<307 515 307 517 289 515> 890 23<568.5 607>
VStem: 59 145<9 74.5> 475 29<760.5 773.5 749.5 808.5> 639 28<828.5 856 805 858>
LayerCount: 2
Fore
SplineSet
59 14 m 0x7e
 59 38 87 26 122 42 c 0x7e
 157 58 178 92 197 125 c 2
 522 697 l 1
 482 712 475 749 475 772 c 0
 475 845 539 913 598 913 c 0
 643 913 667 877 667 835 c 0
 667 775 623 714 567 697 c 1
 569 678 570 658 571 639 c 2
 607 119 l 2
 613 32 606 33 667 31 c 0
 675 31 690 31 690 17 c 0
 690 6 682 0 670 0 c 0xbe
 659 0 628 3 564 3 c 0
 503 3 470 1 458 1 c 0x7e
 448 1 440 3 440 13 c 0
 440 50 528 8 528 70 c 0
 528 89 523 129 517 230 c 1
 289 230 l 1
 206 84 204 83 204 66 c 0
 204 22 259 42 259 16 c 0
 259 8 253 0 239 0 c 0xbe
 230 0 203 3 149 3 c 0
 116 3 95 1 81 1 c 0
 65 1 59 4 59 14 c 0x7e
307 260 m 1
 515 260 l 1
 493 587 l 1
 307 260 l 1
504 764 m 0
 504 735 521 717 550 717 c 0
 621 717 639 814 639 843 c 0
 639 873 622 890 592 890 c 0
 517 890 504 783 504 764 c 0
EndSplineSet
EndChar

StartChar: AE
Encoding: 198 198 134
Width: 883
GlyphClass: 2
Flags: MW
TeX: 688 0
ItalicCorrection: 120
HStem: 0 31<527 602 602 685.5> 313 31<359 487 341 495 571 641> 652 31<446 926 455 468 685.5 693 693 763>
VStem: 59 146<9 75> 763 33 900 48
AnchorPoint: "Anchor-5" 623 705 basechar 0
AnchorPoint: "Anchor-4" 442 0 basechar 0
LayerCount: 2
Fore
SplineSet
59 14 m 0
 59 47 107 11 162 71 c 0
 175 85 186 102 196 119 c 2
 505 651 l 1
 492 651 481 652 468 652 c 2
 454 652 l 2
 438 652 431 658 431 666 c 0
 431 673 436 683 455 683 c 2
 926 683 l 2
 938 683 948 681 948 666 c 0
 948 657 923 473 923 473 c 2
 921 462 914 458 907 458 c 0
 896 458 893 464 893 476 c 0
 893 492 900 519 900 557 c 0
 900 642 858 652 763 652 c 2
 693 652 l 2
 678 652 665 653 655 646 c 0
 643 637 646 646 591 424 c 0
 584 397 577 371 571 344 c 1
 642 344 l 2
 714 344 740 353 763 437 c 0
 765 447 769 460 782 460 c 0
 793 460 796 453 796 446 c 0
 796 438 740 216 739 213 c 0
 736 201 728 197 722 197 c 0
 718 197 708 200 708 210 c 0
 708 223 718 249 718 271 c 0
 718 310 685 313 641 313 c 2
 564 313 l 1
 564 313 498 55 498 44 c 0
 498 32 506 31 527 31 c 2
 602 31 l 2
 769 31 793 86 858 241 c 0
 863 253 871 257 877 257 c 0
 884 257 891 252 891 245 c 0
 891 238 881 219 800 20 c 0
 793 4 790 0 774 0 c 2
 366 0 l 2
 356 0 347 0 344 8 c 0
 342 14 343 22 348 26 c 0
 358 36 398 24 415 43 c 0
 424 53 422 53 487 313 c 1
 341 313 l 1
 223 109 205 84 205 66 c 0
 205 28 248 34 256 26 c 0
 258 24 260 20 260 17 c 0
 260 9 253 0 240 0 c 0
 222 0 205 3 152 3 c 0
 118 3 96 1 82 1 c 0
 65 1 59 4 59 14 c 0
359 344 m 1
 495 344 l 1
 559 601 l 2
 562 613 564 621 564 628 c 0
 564 642 556 647 536 649 c 1
 359 344 l 1
EndSplineSet
EndChar

StartChar: Ccedilla
Encoding: 199 199 135
Width: 715
GlyphClass: 2
Flags: MW
TeX: 688 170
ItalicCorrection: 145
HStem: -192 22<267 270 270 275> -20 29<425 425> 674 31<527 587 466.5 628>
VStem: 149 88<174.5 246.5 131.5 361.5> 413 65<-136 -99.5> 663 34 719 91
AnchorPoint: "Anchor-5" 569 705 basechar 0
LayerCount: 2
Fore
SplineSet
149 245 m 0
 149 478 364 705 569 705 c 0
 605 705 676 697 719 620 c 1
 791 702 790 704 800 704 c 0
 804 704 810 701 810 692 c 0
 810 687 810 688 748 440 c 0
 744 424 738 419 731 419 c 0
 726 419 715 422 715 433 c 0
 715 441 719 453 719 492 c 0
 719 585 679 674 577 674 c 0
 477 674 380 599 326 513 c 0
 270 424 237 287 237 206 c 0
 237 57 332 9 407 9 c 0
 518 9 625 108 663 228 c 0
 667 240 669 251 683 251 c 0
 690 251 697 247 697 238 c 0
 697 199 602 1 425 -20 c 1
 417 -53 l 1
 445 -60 478 -74 478 -109 c 0
 478 -184 366 -192 275 -192 c 2
 270 -192 l 2
 257 -192 248 -192 246 -184 c 0
 244 -178 247 -170 267 -170 c 2
 286 -170 l 2
 327 -169 413 -164 413 -108 c 0
 413 -91 398 -79 382 -74 c 0
 367 -70 352 -73 352 -57 c 0
 352 -50 357 -31 360 -20 c 1
 229 -1 149 104 149 245 c 0
EndSplineSet
EndChar

StartChar: Egrave
Encoding: 200 200 136
Width: 678
GlyphClass: 2
Flags: MW
TeX: 855 0
ItalicCorrection: 120
HStem: 0 31<81 87 87 123 277 399 399 478.5> 338 31<327 406 319 408> 649 31<251 280 419.5 436 436 561>
AnchorPoint: "Anchor-5" 561 876 basechar 0
AnchorPoint: "Anchor-4" 341 0 basechar 0
LayerCount: 2
Fore
SplineSet
449 834 m 0
 449 852 467 871 486 871 c 0
 501 871 509 862 605 790 c 0
 613 784 625 776 625 767 c 0
 625 760 619 750 609 750 c 0
 604 750 604 750 474 805 c 0
 462 810 449 817 449 834 c 0
62 12 m 0
 62 31 73 31 89 31 c 0
 157 31 163 39 171 73 c 2
 305 609 l 2
 309 624 309 631 309 632 c 0
 309 641 309 649 251 649 c 0
 231 649 224 649 224 662 c 0
 224 680 234 680 251 680 c 2
 718 680 l 2
 739 680 745 680 742 654 c 2
 719 477 l 2
 717 459 716 455 702 455 c 0
 698 455 687 455 687 467 c 0
 687 470 688 479 689 484 c 0
 692 508 694 521 694 548 c 0
 694 619 669 649 561 649 c 2
 436 649 l 2
 403 649 396 648 388 615 c 2
 327 369 l 1
 408 369 l 2
 489 369 508 391 527 462 c 0
 533 483 533 486 546 486 c 0
 550 486 562 486 562 474 c 0
 562 472 560 464 559 461 c 2
 504 241 l 2
 500 223 497 221 486 221 c 0
 480 221 470 221 470 233 c 0
 470 236 472 242 472 244 c 0
 480 273 481 288 481 295 c 0
 481 322 474 338 406 338 c 2
 319 338 l 1
 250 63 l 2
 249 57 246 47 246 41 c 0
 246 34 246 31 277 31 c 2
 399 31 l 2
 558 31 593 96 651 234 c 0
 660 257 661 258 672 258 c 0
 675 258 687 258 687 247 c 0
 687 246 684 237 683 235 c 2
 594 16 l 2
 587 1 586 0 566 0 c 2
 87 0 l 2
 71 0 62 0 62 12 c 0
EndSplineSet
Substitution2: "'locl' +rW2sAAAA,+ycDF7QAA +rODHINYV in +t3zS9AAA +x5AA lookup 10 subtable" Egrave.vn
AlternateSubs2: "'ss01' +wqTQwMd8wTjSuAAA-1 lookup 9 subtable" Egrave.vn
AlternateSubs2: "'salt' +wqTQwMd8ua0A +swDFSNYV in +t3zS9AAA +x5AA lookup 8 subtable" Egrave.vn
EndChar

StartChar: Eacute
Encoding: 201 201 137
Width: 678
GlyphClass: 2
Flags: MW
TeX: 855 0
ItalicCorrection: 120
HStem: 0 31<81 87 87 123 277 399 399 478.5> 338 31<327 406 319 408> 649 31<251 280 419.5 436 436 561>
AnchorPoint: "Anchor-5" 561 876 basechar 0
AnchorPoint: "Anchor-4" 341 0 basechar 0
LayerCount: 2
Fore
SplineSet
487 765 m 0
 487 777 484 774 643 861 c 0
 648 864 660 871 672 871 c 0
 689 871 699 857 699 843 c 0
 699 820 679 811 663 805 c 0
 519 755 508 750 501 750 c 0
 492 750 487 757 487 765 c 0
62 12 m 0
 62 31 73 31 89 31 c 0
 157 31 163 39 171 73 c 2
 305 609 l 2
 309 624 309 631 309 632 c 0
 309 641 309 649 251 649 c 0
 231 649 224 649 224 662 c 0
 224 680 234 680 251 680 c 2
 718 680 l 2
 739 680 745 680 742 654 c 2
 719 477 l 2
 717 459 716 455 702 455 c 0
 698 455 687 455 687 467 c 0
 687 470 688 479 689 484 c 0
 692 508 694 521 694 548 c 0
 694 619 669 649 561 649 c 2
 436 649 l 2
 403 649 396 648 388 615 c 2
 327 369 l 1
 408 369 l 2
 489 369 508 391 527 462 c 0
 533 483 533 486 546 486 c 0
 550 486 562 486 562 474 c 0
 562 472 560 464 559 461 c 2
 504 241 l 2
 500 223 497 221 486 221 c 0
 480 221 470 221 470 233 c 0
 470 236 472 242 472 244 c 0
 480 273 481 288 481 295 c 0
 481 322 474 338 406 338 c 2
 319 338 l 1
 250 63 l 2
 249 57 246 47 246 41 c 0
 246 34 246 31 277 31 c 2
 399 31 l 2
 558 31 593 96 651 234 c 0
 660 257 661 258 672 258 c 0
 675 258 687 258 687 247 c 0
 687 246 684 237 683 235 c 2
 594 16 l 2
 587 1 586 0 566 0 c 2
 87 0 l 2
 71 0 62 0 62 12 c 0
EndSplineSet
Substitution2: "'locl' +rW2sAAAA,+ycDF7QAA +rODHINYV in +t3zS9AAA +x5AA lookup 10 subtable" Eacute.vn
AlternateSubs2: "'ss01' +wqTQwMd8wTjSuAAA-1 lookup 9 subtable" Eacute.vn
AlternateSubs2: "'salt' +wqTQwMd8ua0A +swDFSNYV in +t3zS9AAA +x5AA lookup 8 subtable" Eacute.vn
EndChar

StartChar: Ecircumflex
Encoding: 202 202 138
Width: 678
GlyphClass: 2
Flags: MW
TeX: 891 0
ItalicCorrection: 120
HStem: 0 31<81 87 87 123 277 399 399 478.5> 338 31<327 406 319 408> 649 31<251 280 419.5 436 436 561>
AnchorPoint: "Anchor-5" 568 905 basechar 0
AnchorPoint: "Anchor-4" 341 0 basechar 0
LayerCount: 2
Fore
SplineSet
407 755 m 0
 407 762 415 768 420 773 c 0
 559 898 559 900 568 900 c 0
 579 900 589 881 596 869 c 0
 661 764 661 762 661 756 c 0
 661 748 653 741 645 741 c 0
 635 741 633 747 560 847 c 1
 548 838 536 828 441 751 c 0
 439 750 430 741 422 741 c 0
 414 741 407 747 407 755 c 0
62 12 m 0
 62 31 73 31 89 31 c 0
 157 31 163 39 171 73 c 2
 305 609 l 2
 309 624 309 631 309 632 c 0
 309 641 309 649 251 649 c 0
 231 649 224 649 224 662 c 0
 224 680 234 680 251 680 c 2
 718 680 l 2
 739 680 745 680 742 654 c 2
 719 477 l 2
 717 459 716 455 702 455 c 0
 698 455 687 455 687 467 c 0
 687 470 688 479 689 484 c 0
 692 508 694 521 694 548 c 0
 694 619 669 649 561 649 c 2
 436 649 l 2
 403 649 396 648 388 615 c 2
 327 369 l 1
 408 369 l 2
 489 369 508 391 527 462 c 0
 533 483 533 486 546 486 c 0
 550 486 562 486 562 474 c 0
 562 472 560 464 559 461 c 2
 504 241 l 2
 500 223 497 221 486 221 c 0
 480 221 470 221 470 233 c 0
 470 236 472 242 472 244 c 0
 480 273 481 288 481 295 c 0
 481 322 474 338 406 338 c 2
 319 338 l 1
 250 63 l 2
 249 57 246 47 246 41 c 0
 246 34 246 31 277 31 c 2
 399 31 l 2
 558 31 593 96 651 234 c 0
 660 257 661 258 672 258 c 0
 675 258 687 258 687 247 c 0
 687 246 684 237 683 235 c 2
 594 16 l 2
 587 1 586 0 566 0 c 2
 87 0 l 2
 71 0 62 0 62 12 c 0
EndSplineSet
Substitution2: "'locl' +rW2sAAAA,+ycDF7QAA +rODHINYV in +t3zS9AAA +x5AA lookup 10 subtable" Ecircumflex.vn
AlternateSubs2: "'ss01' +wqTQwMd8wTjSuAAA-1 lookup 9 subtable" Ecircumflex.vn
AlternateSubs2: "'salt' +wqTQwMd8ua0A +swDFSNYV in +t3zS9AAA +x5AA lookup 8 subtable" Ecircumflex.vn
EndChar

StartChar: Edieresis
Encoding: 203 203 139
Width: 678
GlyphClass: 2
Flags: MW
TeX: 891 0
ItalicCorrection: 120
HStem: 0 31<81 87 87 123 277 399 399 478.5> 338 31<327 406 319 408> 649 31<251 280 419.5 436 436 561> 786 105<459 473 638 650>
VStem: 413 107<833 844> 590 108<832.5 844>
AnchorPoint: "Anchor-5" 566 896 basechar 0
AnchorPoint: "Anchor-4" 341 0 basechar 0
LayerCount: 2
Fore
SplineSet
413 829 m 0
 413 859 442 891 476 891 c 0
 500 891 520 874 520 848 c 0
 520 818 490 786 456 786 c 0
 430 786 413 805 413 829 c 0
590 829 m 0
 590 859 621 891 655 891 c 0
 681 891 698 873 698 849 c 0
 698 816 666 786 634 786 c 0
 608 786 590 805 590 829 c 0
62 12 m 0
 62 31 73 31 89 31 c 0
 157 31 163 39 171 73 c 2
 305 609 l 2
 309 624 309 631 309 632 c 0
 309 641 309 649 251 649 c 0
 231 649 224 649 224 662 c 0
 224 680 234 680 251 680 c 2
 718 680 l 2
 739 680 745 680 742 654 c 2
 719 477 l 2
 717 459 716 455 702 455 c 0
 698 455 687 455 687 467 c 0
 687 470 688 479 689 484 c 0
 692 508 694 521 694 548 c 0
 694 619 669 649 561 649 c 2
 436 649 l 2
 403 649 396 648 388 615 c 2
 327 369 l 1
 408 369 l 2
 489 369 508 391 527 462 c 0
 533 483 533 486 546 486 c 0
 550 486 562 486 562 474 c 0
 562 472 560 464 559 461 c 2
 504 241 l 2
 500 223 497 221 486 221 c 0
 480 221 470 221 470 233 c 0
 470 236 472 242 472 244 c 0
 480 273 481 288 481 295 c 0
 481 322 474 338 406 338 c 2
 319 338 l 1
 250 63 l 2
 249 57 246 47 246 41 c 0
 246 34 246 31 277 31 c 2
 399 31 l 2
 558 31 593 96 651 234 c 0
 660 257 661 258 672 258 c 0
 675 258 687 258 687 247 c 0
 687 246 684 237 683 235 c 2
 594 16 l 2
 587 1 586 0 566 0 c 2
 87 0 l 2
 71 0 62 0 62 12 c 0
EndSplineSet
EndChar

StartChar: Igrave
Encoding: 204 204 140
Width: 385
GlyphClass: 2
Flags: MW
TeX: 855 0
ItalicCorrection: 158
HStem: 0 31<76.5 91 298 320> 652 31<237 259.5 235.5 264 467 480.5>
AnchorPoint: "Anchor-5" 412 873 basechar 0
AnchorPoint: "Anchor-4" 193 0 basechar 0
LayerCount: 2
Fore
SplineSet
283 834 m 0
 283 849 299 871 320 871 c 0
 330 871 338 866 346 860 c 0
 457 776 459 777 459 767 c 0
 459 760 453 750 443 750 c 0
 438 750 440 750 309 805 c 0
 297 810 283 817 283 834 c 0
57 13 m 0
 57 31 66 31 87 31 c 0
 154 31 163 39 171 72 c 2
 307 616 l 2
 308 619 310 632 310 635 c 0
 310 652 281 652 247 652 c 0
 227 652 220 652 220 665 c 0
 220 683 232 683 239 683 c 0
 280 683 323 680 364 680 c 0
 405 680 447 683 487 683 c 0
 491 683 501 683 501 671 c 0
 501 652 491 652 470 652 c 0
 401 652 395 643 387 611 c 2
 252 71 l 2
 248 56 248 50 248 49 c 0
 248 38 248 31 310 31 c 0
 330 31 338 31 338 19 c 0
 338 0 325 0 318 0 c 0
 278 0 235 3 194 3 c 0
 153 3 111 0 71 0 c 0
 64 0 57 2 57 13 c 0
EndSplineSet
Substitution2: "'locl' +rW2sAAAA,+ycDF7QAA +rODHINYV in +t3zS9AAA +x5AA lookup 10 subtable" Igrave.vn
AlternateSubs2: "'ss01' +wqTQwMd8wTjSuAAA-1 lookup 9 subtable" Igrave.vn
AlternateSubs2: "'salt' +wqTQwMd8ua0A +swDFSNYV in +t3zS9AAA +x5AA lookup 8 subtable" Igrave.vn
EndChar

StartChar: Iacute
Encoding: 205 205 141
Width: 385
GlyphClass: 2
Flags: MW
TeX: 855 0
ItalicCorrection: 158
HStem: 0 31<76.5 91 298 320> 652 31<237 259.5 235.5 264 467 480.5> 750 120
VStem: 289 211<763 849>
AnchorPoint: "Anchor-5" 412 872 basechar 0
AnchorPoint: "Anchor-4" 193 0 basechar 0
LayerCount: 2
Fore
SplineSet
289 765 m 0
 289 777 285 773 444 860 c 0
 449 863 461 870 473 870 c 0
 490 870 500 856 500 842 c 0
 500 819 480 811 464 805 c 0
 319 755 309 750 302 750 c 0
 291 750 289 761 289 765 c 0
57 13 m 0
 57 31 66 31 87 31 c 0
 154 31 163 39 171 72 c 2
 307 616 l 2
 308 619 310 632 310 635 c 0
 310 652 281 652 247 652 c 0
 227 652 220 652 220 665 c 0
 220 683 232 683 239 683 c 0
 280 683 323 680 364 680 c 0
 405 680 447 683 487 683 c 0
 491 683 501 683 501 671 c 0
 501 652 491 652 470 652 c 0
 401 652 395 643 387 611 c 2
 252 71 l 2
 248 56 248 50 248 49 c 0
 248 38 248 31 310 31 c 0
 330 31 338 31 338 19 c 0
 338 0 325 0 318 0 c 0
 278 0 235 3 194 3 c 0
 153 3 111 0 71 0 c 0
 64 0 57 2 57 13 c 0
EndSplineSet
Substitution2: "'locl' +rW2sAAAA,+ycDF7QAA +rODHINYV in +t3zS9AAA +x5AA lookup 10 subtable" Iacute.vn
AlternateSubs2: "'ss01' +wqTQwMd8wTjSuAAA-1 lookup 9 subtable" Iacute.vn
AlternateSubs2: "'salt' +wqTQwMd8ua0A +swDFSNYV in +t3zS9AAA +x5AA lookup 8 subtable" Iacute.vn
EndChar

StartChar: Icircumflex
Encoding: 206 206 142
Width: 385
GlyphClass: 2
Flags: MW
TeX: 891 0
ItalicCorrection: 158
HStem: 0 31<76.5 91 298 320> 652 31<237 259.5 235.5 264 467 480.5>
AnchorPoint: "Anchor-5" 419 902 basechar 0
AnchorPoint: "Anchor-4" 193 0 basechar 0
LayerCount: 2
Fore
SplineSet
255 755 m 0
 255 762 262 768 267 773 c 0
 406 898 406 900 415 900 c 0
 426 900 436 881 443 869 c 0
 507 764 509 762 509 756 c 0
 509 748 500 741 492 741 c 0
 482 741 480 746 407 847 c 1
 395 838 383 828 288 751 c 0
 286 750 277 741 269 741 c 0
 261 741 255 748 255 755 c 0
57 13 m 0
 57 31 66 31 87 31 c 0
 154 31 163 39 171 72 c 2
 307 616 l 2
 308 619 310 632 310 635 c 0
 310 652 281 652 247 652 c 0
 227 652 220 652 220 665 c 0
 220 683 232 683 239 683 c 0
 280 683 323 680 364 680 c 0
 405 680 447 683 487 683 c 0
 491 683 501 683 501 671 c 0
 501 652 491 652 470 652 c 0
 401 652 395 643 387 611 c 2
 252 71 l 2
 248 56 248 50 248 49 c 0
 248 38 248 31 310 31 c 0
 330 31 338 31 338 19 c 0
 338 0 325 0 318 0 c 0
 278 0 235 3 194 3 c 0
 153 3 111 0 71 0 c 0
 64 0 57 2 57 13 c 0
EndSplineSet
EndChar

StartChar: Idieresis
Encoding: 207 207 143
Width: 385
GlyphClass: 2
Flags: MW
TeX: 891 0
ItalicCorrection: 158
HStem: 0 31<76.5 91 298 320> 652 31<237 259.5 235.5 264 467 480.5> 786 105<307 320> 786 106<484 497>
VStem: 259 108<833 845.5> 437 107<834 844>
AnchorPoint: "Anchor-5" 417 894 basechar 0
AnchorPoint: "Anchor-4" 193 0 basechar 0
LayerCount: 2
Fore
SplineSet
259 829 m 0xec
 259 862 291 891 323 891 c 0
 349 891 367 872 367 848 c 0
 367 818 337 786 303 786 c 0
 277 786 259 805 259 829 c 0xec
437 829 m 0x14
 437 859 467 892 501 892 c 0
 527 892 544 872 544 849 c 0
 544 819 514 786 480 786 c 0
 456 786 437 803 437 829 c 0x14
57 13 m 0xc0
 57 31 66 31 87 31 c 0
 154 31 163 39 171 72 c 2
 307 616 l 2
 308 619 310 632 310 635 c 0
 310 652 281 652 247 652 c 0
 227 652 220 652 220 665 c 0
 220 683 232 683 239 683 c 0
 280 683 323 680 364 680 c 0
 405 680 447 683 487 683 c 0
 491 683 501 683 501 671 c 0
 501 652 491 652 470 652 c 0
 401 652 395 643 387 611 c 2
 252 71 l 2
 248 56 248 50 248 49 c 0
 248 38 248 31 310 31 c 0
 330 31 338 31 338 19 c 0
 338 0 325 0 318 0 c 0
 278 0 235 3 194 3 c 0
 153 3 111 0 71 0 c 0
 64 0 57 2 57 13 c 0xc0
EndSplineSet
EndChar

StartChar: Eth
Encoding: 208 208 144
Width: 755
GlyphClass: 2
Flags: MW
TeX: 688 0
ItalicCorrection: 94
HStem: 0 31<278 375 375 385> 320 30<224.5 232 319 459> 652 31<250.5 257 257 267 409 428 428 525>
VStem: 691 83<435 487 339 517.5>
LayerCount: 2
Fore
SplineSet
63 14 m 0
 63 48 130 18 157 44 c 0
 168 54 164 50 232 320 c 1
 217 320 202 319 187 319 c 2
 169 319 l 2
 153 319 143 320 143 333 c 0
 143 348 158 351 173 351 c 0
 179 351 185 350 189 350 c 2
 240 350 l 1
 262 444 309 614 309 632 c 0
 309 650 288 652 267 652 c 2
 257 652 l 2
 244 652 233 652 229 657 c 0
 227 660 225 663 225 666 c 0
 225 675 234 683 248 683 c 2
 556 683 l 2
 730 683 774 536 774 438 c 0
 774 240 610 0 385 0 c 2
 85 0 l 2
 72 0 63 2 63 14 c 0
244 44 m 0
 244 32 253 31 278 31 c 2
 375 31 l 2
 486 31 560 104 596 157 c 0
 650 236 691 392 691 478 c 0
 691 557 658 652 525 652 c 2
 428 652 l 2
 390 652 391 641 372 565 c 2
 319 350 l 1
 464 350 l 2
 476 350 491 348 491 338 c 0
 491 335 491 332 488 328 c 0
 484 321 475 319 467 319 c 0
 464 319 461 320 459 320 c 2
 311 320 l 1
 290 227 244 60 244 44 c 0
EndSplineSet
EndChar

StartChar: Ntilde
Encoding: 209 209 145
Width: 743
GlyphClass: 2
Flags: MW
TeX: 891 0
ItalicCorrection: 163
HStem: 0 31<77 81 77 90 267 271> 652 31<252 255.5 643.5 646 837 838.5> 800 36<631.5 669.5> 855 36<494 532>
LayerCount: 2
Fore
SplineSet
397 811 m 0
 397 823 466 891 522 891 c 0
 579 891 608 836 655 836 c 0
 690 836 722 864 743 882 c 0
 758 895 767 888 767 880 c 0
 767 867 697 800 642 800 c 0
 586 800 556 855 508 855 c 0
 459 855 423 802 406 802 c 0
 401 802 397 806 397 811 c 0
62 12 m 0
 62 30 73 31 81 31 c 0
 127 33 164 46 178 101 c 2
 310 631 l 2
 313 641 313 643 313 644 c 0
 313 652 259 652 252 652 c 0
 233 652 225 652 225 664 c 0
 225 683 236 683 252 683 c 2
 377 683 l 2
 398 683 399 682 405 666 c 2
 592 146 l 1
 702 585 l 2
 704 593 706 600 706 609 c 0
 706 630 698 650 646 652 c 0
 637 652 628 653 628 664 c 0
 628 683 641 683 646 683 c 0
 677 683 711 680 743 680 c 0
 775 680 808 683 839 683 c 0
 848 683 852 678 852 670 c 0
 852 653 840 652 837 652 c 0
 808 651 752 648 736 584 c 2
 596 20 l 2
 591 1 587 0 576 0 c 0
 562 0 561 2 556 17 c 2
 341 614 l 1
 212 99 l 2
 208 83 208 77 208 74 c 0
 208 59 210 33 267 31 c 0
 279 31 286 30 286 18 c 0
 286 0 274 0 268 0 c 0
 237 0 202 3 170 3 c 0
 139 3 105 0 75 0 c 0
 68 0 62 3 62 12 c 0
EndSplineSet
EndChar

StartChar: Ograve
Encoding: 210 210 146
Width: 766
GlyphClass: 2
Flags: MW
TeX: 855 0
ItalicCorrection: 94
HStem: -22 26<339.5 422.5 339.5 478> 680 25<509.5 592>
VStem: 148 90<160.5 228 145.5 352> 703 85<442 526 323.5 553>
AnchorPoint: "Anchor-5" 597 851 basechar 0
AnchorPoint: "Anchor-4" 384 0 basechar 0
LayerCount: 2
Fore
SplineSet
486 834 m 0
 486 852 503 871 522 871 c 0
 537 871 545 862 641 790 c 0
 649 784 662 776 662 767 c 0
 662 760 655 750 645 750 c 0
 640 750 641 750 511 805 c 0
 499 810 486 817 486 834 c 0
148 236 m 0
 148 468 355 705 560 705 c 0
 686 705 788 608 788 444 c 0
 788 203 578 -22 378 -22 c 0
 242 -22 148 85 148 236 c 0
238 205 m 0
 238 86 294 4 385 4 c 0
 460 4 549 63 614 174 c 0
 667 265 703 398 703 486 c 0
 703 620 631 680 553 680 c 0
 466 680 375 607 322 513 c 0
 252 391 238 251 238 205 c 0
EndSplineSet
Substitution2: "'locl' +rW2sAAAA,+ycDF7QAA +rODHINYV in +t3zS9AAA +x5AA lookup 10 subtable" Ograve.vn
AlternateSubs2: "'ss01' +wqTQwMd8wTjSuAAA-1 lookup 9 subtable" Ograve.vn
AlternateSubs2: "'salt' +wqTQwMd8ua0A +swDFSNYV in +t3zS9AAA +x5AA lookup 8 subtable" Ograve.vn
EndChar

StartChar: Oacute
Encoding: 211 211 147
Width: 766
GlyphClass: 2
Flags: MW
TeX: 855 0
ItalicCorrection: 94
HStem: -22 26<339.5 422.5 339.5 478> 680 25<509.5 592> 750 120
VStem: 148 90<160.5 228 145.5 352> 487 211<763 849> 703 85<442 526 323.5 553>
AnchorPoint: "Anchor-5" 596 850 basechar 0
AnchorPoint: "Anchor-4" 384 0 basechar 0
LayerCount: 2
Fore
SplineSet
487 765 m 0
 487 777 483 773 642 860 c 0
 647 863 659 870 671 870 c 0
 688 870 698 856 698 842 c 0
 698 819 678 811 662 805 c 0
 517 755 507 750 500 750 c 0
 489 750 487 761 487 765 c 0
148 236 m 0
 148 468 355 705 560 705 c 0
 686 705 788 608 788 444 c 0
 788 203 578 -22 378 -22 c 0
 242 -22 148 85 148 236 c 0
238 205 m 0
 238 86 294 4 385 4 c 0
 460 4 549 63 614 174 c 0
 667 265 703 398 703 486 c 0
 703 620 631 680 553 680 c 0
 466 680 375 607 322 513 c 0
 252 391 238 251 238 205 c 0
EndSplineSet
Substitution2: "'locl' +rW2sAAAA,+ycDF7QAA +rODHINYV in +t3zS9AAA +x5AA lookup 10 subtable" Oacute.vn
AlternateSubs2: "'ss01' +wqTQwMd8wTjSuAAA-1 lookup 9 subtable" Oacute.vn
AlternateSubs2: "'salt' +wqTQwMd8ua0A +swDFSNYV in +t3zS9AAA +x5AA lookup 8 subtable" Oacute.vn
EndChar

StartChar: Ocircumflex
Encoding: 212 212 148
Width: 766
GlyphClass: 2
Flags: MW
TeX: 891 0
ItalicCorrection: 94
HStem: -22 26<339.5 422.5 339.5 478> 680 25<509.5 592>
VStem: 148 90<160.5 228 145.5 352> 703 85<442 526 323.5 553>
AnchorPoint: "Anchor-5" 604 880 basechar 0
AnchorPoint: "Anchor-4" 384 0 basechar 0
LayerCount: 2
Fore
SplineSet
444 755 m 0
 444 762 452 768 457 773 c 0
 596 898 596 900 605 900 c 0
 616 900 626 881 633 869 c 0
 697 765 698 763 698 756 c 0
 698 748 690 741 682 741 c 0
 672 741 670 746 597 847 c 1
 585 838 573 828 478 751 c 0
 476 750 467 741 459 741 c 0
 451 741 444 747 444 755 c 0
148 236 m 0
 148 468 355 705 560 705 c 0
 686 705 788 608 788 444 c 0
 788 203 578 -22 378 -22 c 0
 242 -22 148 85 148 236 c 0
238 205 m 0
 238 86 294 4 385 4 c 0
 460 4 549 63 614 174 c 0
 667 265 703 398 703 486 c 0
 703 620 631 680 553 680 c 0
 466 680 375 607 322 513 c 0
 252 391 238 251 238 205 c 0
EndSplineSet
Substitution2: "'locl' +rW2sAAAA,+ycDF7QAA +rODHINYV in +t3zS9AAA +x5AA lookup 10 subtable" Ocircumflex.vn
AlternateSubs2: "'ss01' +wqTQwMd8wTjSuAAA-1 lookup 9 subtable" Ocircumflex.vn
AlternateSubs2: "'salt' +wqTQwMd8ua0A +swDFSNYV in +t3zS9AAA +x5AA lookup 8 subtable" Ocircumflex.vn
EndChar

StartChar: Otilde
Encoding: 213 213 149
Width: 766
GlyphClass: 2
Flags: MW
TeX: 891 0
ItalicCorrection: 94
HStem: -22 26<339.5 422.5 339.5 478> 680 25<509.5 592> 800 36<644 682.5> 855 36<505.5 543>
VStem: 148 90<160.5 228 145.5 352> 703 85<442 526 323.5 553>
AnchorPoint: "Anchor-5" 602 871 basechar 0
AnchorPoint: "Anchor-4" 384 0 basechar 0
LayerCount: 2
Fore
SplineSet
409 811 m 0
 409 823 477 891 534 891 c 0
 590 891 620 836 668 836 c 0
 716 836 753 889 770 889 c 0
 775 889 779 885 779 880 c 0
 779 869 711 800 654 800 c 0
 598 800 567 855 519 855 c 0
 470 855 434 802 417 802 c 0
 412 802 409 806 409 811 c 0
148 236 m 0
 148 468 355 705 560 705 c 0
 686 705 788 608 788 444 c 0
 788 203 578 -22 378 -22 c 0
 242 -22 148 85 148 236 c 0
238 205 m 0
 238 86 294 4 385 4 c 0
 460 4 549 63 614 174 c 0
 667 265 703 398 703 486 c 0
 703 620 631 680 553 680 c 0
 466 680 375 607 322 513 c 0
 252 391 238 251 238 205 c 0
EndSplineSet
Substitution2: "'locl' +rW2sAAAA,+ycDF7QAA +rODHINYV in +t3zS9AAA +x5AA lookup 10 subtable" Otilde.vn
AlternateSubs2: "'ss01' +wqTQwMd8wTjSuAAA-1 lookup 9 subtable" Otilde.vn
AlternateSubs2: "'salt' +wqTQwMd8ua0A +swDFSNYV in +t3zS9AAA +x5AA lookup 8 subtable" Otilde.vn
EndChar

StartChar: Odieresis
Encoding: 214 214 150
Width: 766
GlyphClass: 2
Flags: MW
TeX: 891 0
ItalicCorrection: 94
HStem: -22 26<339.5 422.5 339.5 478> 680 25<509.5 592> 786 105<495 508> 786 106<675 688>
VStem: 148 90<160.5 228 145.5 352> 449 107<831.5 844> 628 107<834 844> 703 85<442 526 323.5 553>
AnchorPoint: "Anchor-5" 602 872 basechar 0
AnchorPoint: "Anchor-4" 384 0 basechar 0
LayerCount: 2
Fore
SplineSet
449 829 m 0xec
 449 859 478 891 512 891 c 0
 538 891 556 872 556 848 c 0
 556 815 524 786 492 786 c 0
 466 786 449 805 449 829 c 0xec
628 829 m 0x12
 628 859 658 892 692 892 c 0
 718 892 735 873 735 849 c 0
 735 819 705 786 671 786 c 0
 645 786 628 805 628 829 c 0x12
148 236 m 0xc9
 148 468 355 705 560 705 c 0
 686 705 788 608 788 444 c 0
 788 203 578 -22 378 -22 c 0
 242 -22 148 85 148 236 c 0xc9
238 205 m 0
 238 86 294 4 385 4 c 0
 460 4 549 63 614 174 c 0
 667 265 703 398 703 486 c 0
 703 620 631 680 553 680 c 0
 466 680 375 607 322 513 c 0
 252 391 238 251 238 205 c 0
EndSplineSet
EndChar

StartChar: multiply
Encoding: 215 215 151
Width: 766
GlyphClass: 2
Flags: W
TeX: 554 56
ItalicCorrection: 36
LayerCount: 2
Fore
SplineSet
173 47 m 0
 173 59 186 69 198 78 c 2
 418 253 l 1
 418 254 l 1
 288 426 l 2
 282 434 275 443 275 453 c 0
 275 462 283 471 294 471 c 0
 307 471 314 459 321 450 c 0
 423 313 437 297 449 279 c 1
 478 301 680 463 685 466 c 0
 689 469 694 471 699 471 c 0
 710 471 717 462 717 452 c 0
 717 441 706 433 695 424 c 2
 473 247 l 1
 473 246 l 1
 487 229 500 212 603 74 c 0
 609 66 616 57 616 47 c 0
 616 36 606 29 597 29 c 2
 596 29 l 2
 583 29 584 31 442 221 c 1
 441 221 l 1
 420 203 397 186 221 45 c 0
 215 40 203 29 192 29 c 0
 183 29 173 36 173 47 c 0
EndSplineSet
EndChar

StartChar: Oslash
Encoding: 216 216 152
Width: 766
GlyphClass: 2
Flags: MW
TeX: 731 48
ItalicCorrection: 94
HStem: -22 23<350.5 399.5 350.5 477> 683 22<512.5 585.5>
VStem: 148 73<183 229.5> 715 73<452 499 324.5 505>
LayerCount: 2
Fore
SplineSet
117 -47 m 0
 117 -40 115 -44 174 24 c 2
 204 58 l 1
 204 59 l 1
 193 72 148 130 148 236 c 0
 148 473 358 705 558 705 c 0
 652 705 704 654 715 643 c 1
 722 652 730 660 789 728 c 0
 794 733 800 741 808 741 c 0
 814 741 819 736 819 730 c 0
 819 722 822 727 762 658 c 2
 732 624 l 1
 742 609 788 553 788 445 c 0
 788 204 577 -22 377 -22 c 0
 284 -22 233 29 222 40 c 1
 221 40 l 1
 138 -56 136 -58 128 -58 c 0
 122 -58 117 -53 117 -47 c 0
221 195 m 0
 221 157 224 135 238 97 c 1
 685 609 l 1
 662 648 618 683 553 683 c 0
 472 683 399 630 352 575 c 0
 252 458 221 264 221 195 c 0
250 73 m 1
 274 34 318 1 383 1 c 0
 416 1 508 11 591 113 c 0
 685 228 715 418 715 486 c 0
 715 524 712 546 698 585 c 1
 250 73 l 1
EndSplineSet
EndChar

StartChar: Ugrave
Encoding: 217 217 153
Width: 743
GlyphClass: 2
Flags: MW
TeX: 855 0
ItalicCorrection: 163
HStem: -22 31<358 431 358 443.5> 652 31<242.5 263.5 241 267.5 463 476.5 646.5 649 837 838.5>
VStem: 202 75<106 145 88.5 171>
AnchorPoint: "Anchor-5" 589 873 basechar 0
AnchorPoint: "Anchor-4" 386 0 basechar 0
LayerCount: 2
Fore
SplineSet
475 834 m 0
 475 849 490 871 511 871 c 0
 521 871 530 866 538 860 c 0
 649 776 650 777 650 767 c 0
 650 760 644 750 634 750 c 0
 629 750 632 750 501 805 c 0
 489 810 475 817 475 834 c 0
202 166 m 0
 202 176 202 198 210 230 c 2
 306 616 l 2
 310 630 310 632 310 635 c 0
 310 652 283 652 252 652 c 0
 233 652 225 652 225 664 c 0
 225 683 238 683 244 683 c 0
 283 683 324 680 364 680 c 0
 403 680 444 683 482 683 c 0
 489 683 496 681 496 670 c 0
 496 652 487 652 466 652 c 0
 403 652 395 644 387 612 c 2
 287 210 l 2
 282 188 277 156 277 134 c 0
 277 43 332 9 384 9 c 0
 478 9 584 100 616 229 c 2
 705 585 l 2
 707 593 709 600 709 609 c 0
 709 630 701 650 649 652 c 0
 640 652 631 653 631 664 c 0
 631 683 644 683 649 683 c 0
 680 683 713 680 745 680 c 0
 776 680 809 683 839 683 c 0
 848 683 852 678 852 670 c 0
 852 653 840 652 837 652 c 0
 808 651 752 648 736 584 c 2
 645 218 l 2
 618 108 507 -22 380 -22 c 0
 286 -22 202 46 202 166 c 0
EndSplineSet
Substitution2: "'locl' +rW2sAAAA,+ycDF7QAA +rODHINYV in +t3zS9AAA +x5AA lookup 10 subtable" Ugrave.vn
AlternateSubs2: "'ss01' +wqTQwMd8wTjSuAAA-1 lookup 9 subtable" Ugrave.vn
AlternateSubs2: "'salt' +wqTQwMd8ua0A +swDFSNYV in +t3zS9AAA +x5AA lookup 8 subtable" Ugrave.vn
EndChar

StartChar: Uacute
Encoding: 218 218 154
Width: 743
GlyphClass: 2
Flags: MW
TeX: 855 0
ItalicCorrection: 163
HStem: -22 31<358 431 358 443.5> 652 31<242.5 263.5 241 267.5 463 476.5 646.5 649 837 838.5> 750 120
VStem: 202 75<106 145 88.5 171> 514 211<763 849>
AnchorPoint: "Anchor-5" 589 872 basechar 0
AnchorPoint: "Anchor-4" 386 0 basechar 0
LayerCount: 2
Fore
SplineSet
514 765 m 0
 514 777 510 773 669 860 c 0
 674 863 686 870 698 870 c 0
 715 870 725 856 725 842 c 0
 725 819 705 811 689 805 c 0
 544 755 534 750 527 750 c 0
 516 750 514 761 514 765 c 0
202 166 m 0
 202 176 202 198 210 230 c 2
 306 616 l 2
 310 630 310 632 310 635 c 0
 310 652 283 652 252 652 c 0
 233 652 225 652 225 664 c 0
 225 683 238 683 244 683 c 0
 283 683 324 680 364 680 c 0
 403 680 444 683 482 683 c 0
 489 683 496 681 496 670 c 0
 496 652 487 652 466 652 c 0
 403 652 395 644 387 612 c 2
 287 210 l 2
 282 188 277 156 277 134 c 0
 277 43 332 9 384 9 c 0
 478 9 584 100 616 229 c 2
 705 585 l 2
 707 593 709 600 709 609 c 0
 709 630 701 650 649 652 c 0
 640 652 631 653 631 664 c 0
 631 683 644 683 649 683 c 0
 680 683 713 680 745 680 c 0
 776 680 809 683 839 683 c 0
 848 683 852 678 852 670 c 0
 852 653 840 652 837 652 c 0
 808 651 752 648 736 584 c 2
 645 218 l 2
 618 108 507 -22 380 -22 c 0
 286 -22 202 46 202 166 c 0
EndSplineSet
Substitution2: "'locl' +rW2sAAAA,+ycDF7QAA +rODHINYV in +t3zS9AAA +x5AA lookup 10 subtable" Uacute.vn
AlternateSubs2: "'ss01' +wqTQwMd8wTjSuAAA-1 lookup 9 subtable" Uacute.vn
AlternateSubs2: "'salt' +wqTQwMd8ua0A +swDFSNYV in +t3zS9AAA +x5AA lookup 8 subtable" Uacute.vn
EndChar

StartChar: Ucircumflex
Encoding: 219 219 155
Width: 743
GlyphClass: 2
Flags: MW
TeX: 891 0
ItalicCorrection: 163
HStem: -22 31<358 431 358 443.5> 652 31<242.5 263.5 241 267.5 463 476.5 646.5 649 837 838.5>
VStem: 202 75<106 145 88.5 171>
AnchorPoint: "Anchor-5" 596 902 basechar 0
AnchorPoint: "Anchor-4" 386 0 basechar 0
LayerCount: 2
Fore
SplineSet
445 755 m 0
 445 762 453 768 458 773 c 0
 597 898 597 900 606 900 c 0
 617 900 627 881 634 869 c 0
 699 764 699 763 699 757 c 0
 699 749 691 741 683 741 c 0
 673 741 671 747 598 847 c 1
 586 838 574 828 479 751 c 0
 477 750 468 741 460 741 c 0
 452 741 445 747 445 755 c 0
202 166 m 0
 202 176 202 198 210 230 c 2
 306 616 l 2
 310 630 310 632 310 635 c 0
 310 652 283 652 252 652 c 0
 233 652 225 652 225 664 c 0
 225 683 238 683 244 683 c 0
 283 683 324 680 364 680 c 0
 403 680 444 683 482 683 c 0
 489 683 496 681 496 670 c 0
 496 652 487 652 466 652 c 0
 403 652 395 644 387 612 c 2
 287 210 l 2
 282 188 277 156 277 134 c 0
 277 43 332 9 384 9 c 0
 478 9 584 100 616 229 c 2
 705 585 l 2
 707 593 709 600 709 609 c 0
 709 630 701 650 649 652 c 0
 640 652 631 653 631 664 c 0
 631 683 644 683 649 683 c 0
 680 683 713 680 745 680 c 0
 776 680 809 683 839 683 c 0
 848 683 852 678 852 670 c 0
 852 653 840 652 837 652 c 0
 808 651 752 648 736 584 c 2
 645 218 l 2
 618 108 507 -22 380 -22 c 0
 286 -22 202 46 202 166 c 0
EndSplineSet
EndChar

StartChar: Udieresis
Encoding: 220 220 156
Width: 743
GlyphClass: 2
Flags: MW
TeX: 891 0
ItalicCorrection: 163
HStem: -22 31<358 431 358 443.5> 652 31<242.5 263.5 241 267.5 463 476.5 646.5 649 837 838.5> 786 105<484 498> 786 106<664 677>
VStem: 202 75<106 145 88.5 171> 438 107<833 844> 617 107<834 844>
AnchorPoint: "Anchor-5" 594 894 basechar 0
AnchorPoint: "Anchor-4" 386 0 basechar 0
LayerCount: 2
Fore
SplineSet
438 829 m 0x24
 438 859 467 891 501 891 c 0
 525 891 545 874 545 848 c 0
 545 818 515 786 481 786 c 0
 455 786 438 805 438 829 c 0x24
617 829 m 0x12
 617 859 647 892 681 892 c 0
 707 892 724 873 724 849 c 0
 724 819 694 786 660 786 c 0
 634 786 617 805 617 829 c 0x12
202 166 m 0xc8
 202 176 202 198 210 230 c 2
 306 616 l 2
 310 630 310 632 310 635 c 0
 310 652 283 652 252 652 c 0
 233 652 225 652 225 664 c 0
 225 683 238 683 244 683 c 0
 283 683 324 680 364 680 c 0
 403 680 444 683 482 683 c 0
 489 683 496 681 496 670 c 0
 496 652 487 652 466 652 c 0
 403 652 395 644 387 612 c 2
 287 210 l 2
 282 188 277 156 277 134 c 0
 277 43 332 9 384 9 c 0
 478 9 584 100 616 229 c 2
 705 585 l 2
 707 593 709 600 709 609 c 0
 709 630 701 650 649 652 c 0
 640 652 631 653 631 664 c 0
 631 683 644 683 649 683 c 0
 680 683 713 680 745 680 c 0
 776 680 809 683 839 683 c 0
 848 683 852 678 852 670 c 0
 852 653 840 652 837 652 c 0
 808 651 752 648 736 584 c 2
 645 218 l 2
 618 108 507 -22 380 -22 c 0
 286 -22 202 46 202 166 c 0xc8
EndSplineSet
EndChar

StartChar: Yacute
Encoding: 221 221 157
Width: 743
GlyphClass: 2
Flags: MW
TeX: 855 0
ItalicCorrection: 193
HStem: 0 31<259 266 259 274 471 491.5> 652 31<219 237.5 218 249.5 427.5 439.5> 750 120
VStem: 514 211<763 849>
AnchorPoint: "Anchor-5" 589 872 basechar 0
AnchorPoint: "Anchor-4" 371 0 basechar 0
LayerCount: 2
Fore
SplineSet
514 765 m 0
 514 777 510 773 669 860 c 0
 674 863 686 870 698 870 c 0
 715 870 725 856 725 842 c 0
 725 819 705 811 689 805 c 0
 544 755 534 750 527 750 c 0
 516 750 514 761 514 765 c 0
202 664 m 0
 202 683 215 683 221 683 c 0
 254 683 291 680 325 680 c 0
 364 680 404 683 442 683 c 0
 446 683 456 683 456 671 c 0
 456 652 445 652 434 652 c 0
 421 652 378 651 378 628 c 0
 378 627 378 625 382 615 c 2
 477 315 l 1
 696 582 l 2
 698 585 721 612 721 629 c 0
 721 645 707 651 690 652 c 0
 684 652 675 653 675 664 c 0
 675 683 687 683 693 683 c 0
 723 683 755 680 786 680 c 0
 811 680 838 683 862 683 c 0
 874 683 874 673 874 672 c 0
 874 653 864 653 855 652 c 0
 807 648 769 627 722 570 c 2
 486 283 l 2
 479 275 479 273 474 256 c 0
 464 214 455 181 443 133 c 0
 436 104 424 56 424 48 c 0
 424 31 451 31 482 31 c 0
 501 31 509 31 509 19 c 0
 509 0 496 0 490 0 c 0
 452 0 410 3 371 3 c 0
 333 3 293 0 255 0 c 0
 252 0 241 0 241 12 c 0
 241 31 252 31 266 31 c 0
 340 32 341 35 354 90 c 0
 359 109 400 268 400 273 c 0
 400 277 398 283 396 288 c 2
 290 622 l 2
 283 645 273 652 226 652 c 0
 212 652 202 652 202 664 c 0
EndSplineSet
Substitution2: "'locl' +rW2sAAAA,+ycDF7QAA +rODHINYV in +t3zS9AAA +x5AA lookup 10 subtable" Yacute.vn
AlternateSubs2: "'ss01' +wqTQwMd8wTjSuAAA-1 lookup 9 subtable" Yacute.vn
AlternateSubs2: "'salt' +wqTQwMd8ua0A +swDFSNYV in +t3zS9AAA +x5AA lookup 8 subtable" Yacute.vn
EndChar

StartChar: Thorn
Encoding: 222 222 158
Width: 627
GlyphClass: 2
Flags: MW
TeX: 688 0
ItalicCorrection: 102
HStem: 0 31<301.5 305.5 285 314> 177 31<282 378 378 382 274 378> 521 31<368 468 360 488> 651 32<249.5 253.5 247 260.5>
VStem: 555 91<369 439.5>
LayerCount: 2
Fore
SplineSet
64 14 m 0
 64 31 81 32 100 32 c 2
 111 32 l 2
 170 32 166 49 187 133 c 2
 305 606 l 2
 308 618 310 627 310 633 c 0
 310 650 293 652 274 652 c 0
 269 652 263 651 258 651 c 0
 241 651 227 652 227 665 c 0
 227 679 237 683 247 683 c 2
 248 683 l 2
 259 683 294 680 362 680 c 0
 428 680 461 682 472 682 c 0
 486 682 490 676 490 670 c 0
 490 636 425 664 398 640 c 0
 384 628 386 620 368 552 c 1
 488 552 l 2
 601 552 646 479 646 409 c 0
 646 314 560 203 440 181 c 0
 421 177 401 177 382 177 c 2
 274 177 l 1
 274 177 244 62 244 50 c 0
 244 33 265 31 285 31 c 2
 297 31 l 2
 314 31 327 31 327 17 c 0
 327 9 321 0 307 0 c 0
 296 0 261 3 193 3 c 0
 127 3 98 1 84 1 c 0
 71 1 64 4 64 14 c 0
282 208 m 1
 378 208 l 2
 480 208 555 321 555 417 c 0
 555 462 538 521 468 521 c 2
 360 521 l 1
 282 208 l 1
EndSplineSet
EndChar

StartChar: germandbls
Encoding: 223 223 159
Width: 537
GlyphClass: 2
Flags: MW
TeX: 688 194
ItalicCorrection: 105
HStem: -205 23<36 50> -165 80 -11 22<332.5 377.5 332.5 394.5> 399 31<148 156 156 170> 683 23<425 470>
VStem: -20 84<-161 -108> 247 63<40.5 91.5> 394 50<309.5 344.5> 444 79<146.5 190> 515 63<581 617>
LayerCount: 2
Fore
SplineSet
-20 -142 m 0xff40
 -20 -112 0 -85 30 -85 c 0
 50 -85 64 -99 64 -117 c 0
 64 -136 50 -162 16 -165 c 1
 18 -168 27 -182 45 -182 c 0
 58 -182 69 -174 78 -165 c 0
 126 -113 142 57 213 400 c 1
 199 400 184 399 170 399 c 2
 156 399 l 2
 140 399 131 400 128 409 c 0
 126 417 130 428 143 430 c 0
 152 431 161 430 170 430 c 2
 219 430 l 1
 246 594 268 706 442 706 c 0
 535 706 578 648 578 592 c 0xff40
 578 481 444 385 444 335 c 0
 444 284 523 247 523 165 c 0xff
 523 91 445 -11 344 -11 c 0
 290 -11 247 18 247 63 c 0
 247 90 264 109 285 109 c 0
 299 109 310 99 310 84 c 0
 310 70 300 54 280 49 c 1
 294 20 322 11 343 11 c 0
 412 11 444 132 444 161 c 0
 444 219 394 226 394 304 c 0
 394 385 440 403 466 439 c 0
 486 467 515 562 515 600 c 0
 515 634 500 683 440 683 c 0
 410 683 365 673 341 644 c 0
 317 615 305 542 280 412 c 0
 199 -10 185 -107 114 -174 c 0
 82 -204 55 -205 45 -205 c 0
 9 -205 -20 -180 -20 -142 c 0xff40
EndSplineSet
EndChar

StartChar: agrave
Encoding: 224 224 160
Width: 511
GlyphClass: 2
Flags: MW
TeX: 641 0
ItalicCorrection: 76
HStem: -11 22<207.5 247 421 450.5> 420 22<316.5 353 281.5 359> 499 152<304.5 403 304.5 404>
VStem: 108 68<101.5 125 85 217> 274 147<510 624.5> 420 67
AnchorPoint: "Anchor-5" 384 631 basechar 0
AnchorPoint: "Anchor-4" 226 0 basechar 0
LayerCount: 2
Fore
SplineSet
274 614 m 0x28
 274 635 297 651 312 651 c 0
 331 651 340 632 347 623 c 0
 408 538 421 524 421 515 c 0
 421 505 411 499 404 499 c 2
 403 499 l 2
 396 499 395 501 290 587 c 0
 283 594 274 601 274 614 c 0x28
108 144 m 0xd4
 108 290 226 442 337 442 c 0
 369 442 401 426 420 383 c 1
 421 388 428 422 460 422 c 0
 470 422 487 417 487 396 c 0
 487 391 487 389 483 375 c 2
 415 103 l 2
 408 75 408 59 408 52 c 0
 408 38 408 11 434 11 c 0
 468 11 487 74 501 130 c 0
 507 152 508 153 520 153 c 0
 527 153 535 153 535 143 c 0
 535 141 523 83 505 45 c 0
 490 14 469 -11 432 -11 c 0
 397 -11 360 10 349 59 c 1
 309 10 265 -11 229 -11 c 0
 154 -11 108 59 108 144 c 0xd4
176 100 m 0
 176 70 184 11 231 11 c 0
 286 11 348 92 356 124 c 2
 403 313 l 2
 405 319 406 324 406 326 c 0
 406 368 381 420 337 420 c 0
 296 420 250 370 225 309 c 0
 207 267 176 150 176 100 c 0
EndSplineSet
Substitution2: "'locl' +rW2sAAAA,+ycDF7QAA +rODHINYV in +t3zS9AAA +x5AA lookup 10 subtable" agrave.vn
AlternateSubs2: "'ss01' +wqTQwMd8wTjSuAAA-1 lookup 9 subtable" agrave.vn
AlternateSubs2: "'salt' +wqTQwMd8ua0A +swDFSNYV in +t3zS9AAA +x5AA lookup 8 subtable" agrave.vn
EndChar

StartChar: aacute
Encoding: 225 225 161
Width: 511
GlyphClass: 2
Flags: MW
TeX: 641 0
ItalicCorrection: 76
HStem: -11 22<207.5 247 421 450.5> 420 22<316.5 353 281.5 359> 499 152<356 524.5>
VStem: 108 68<101.5 125 85 217> 346 199<510.5 630.5> 420 67
AnchorPoint: "Anchor-5" 384 631 basechar 0
AnchorPoint: "Anchor-4" 226 0 basechar 0
LayerCount: 2
Fore
SplineSet
346 514 m 0x28
 346 525 343 519 490 639 c 0
 497 645 506 651 517 651 c 0
 532 651 545 638 545 623 c 0
 545 600 520 589 515 586 c 0
 370 502 367 499 360 499 c 0
 352 499 346 507 346 514 c 0x28
108 144 m 0xd4
 108 290 226 442 337 442 c 0
 369 442 401 426 420 383 c 1
 421 388 428 422 460 422 c 0
 470 422 487 417 487 396 c 0
 487 391 487 389 483 375 c 2
 415 103 l 2
 408 75 408 59 408 52 c 0
 408 38 408 11 434 11 c 0
 468 11 487 74 501 130 c 0
 507 152 508 153 520 153 c 0
 527 153 535 153 535 143 c 0
 535 141 523 83 505 45 c 0
 490 14 469 -11 432 -11 c 0
 397 -11 360 10 349 59 c 1
 309 10 265 -11 229 -11 c 0
 154 -11 108 59 108 144 c 0xd4
176 100 m 0
 176 70 184 11 231 11 c 0
 286 11 348 92 356 124 c 2
 403 313 l 2
 405 319 406 324 406 326 c 0
 406 368 381 420 337 420 c 0
 296 420 250 370 225 309 c 0
 207 267 176 150 176 100 c 0
EndSplineSet
Substitution2: "'locl' +rW2sAAAA,+ycDF7QAA +rODHINYV in +t3zS9AAA +x5AA lookup 10 subtable" aacute.vn
AlternateSubs2: "'ss01' +wqTQwMd8wTjSuAAA-1 lookup 9 subtable" aacute.vn
AlternateSubs2: "'salt' +wqTQwMd8ua0A +swDFSNYV in +t3zS9AAA +x5AA lookup 8 subtable" aacute.vn
EndChar

StartChar: acircumflex
Encoding: 226 226 162
Width: 511
GlyphClass: 2
Flags: MW
TeX: 641 0
ItalicCorrection: 76
HStem: -11 22<207.5 247 421 450.5> 420 22<316.5 353 281.5 359>
VStem: 108 68<101.5 125 85 217> 420 67
AnchorPoint: "Anchor-5" 381 616 basechar 0
AnchorPoint: "Anchor-4" 226 0 basechar 0
LayerCount: 2
Fore
SplineSet
249 484 m 0
 249 493 247 489 369 603 c 0
 393 625 403 636 412 636 c 0
 423 636 421 635 497 502 c 0
 498 500 503 492 503 486 c 0
 503 478 495 470 487 470 c 0
 477 470 472 479 436 533 c 0
 425 549 413 566 403 583 c 1
 284 481 l 2
 282 479 272 470 264 470 c 0
 257 470 249 476 249 484 c 0
108 144 m 0
 108 290 226 442 337 442 c 0
 369 442 401 426 420 383 c 1
 421 388 428 422 460 422 c 0
 470 422 487 417 487 396 c 0
 487 391 487 389 483 375 c 2
 415 103 l 2
 408 75 408 59 408 52 c 0
 408 38 408 11 434 11 c 0
 468 11 487 74 501 130 c 0
 507 152 508 153 520 153 c 0
 527 153 535 153 535 143 c 0
 535 141 523 83 505 45 c 0
 490 14 469 -11 432 -11 c 0
 397 -11 360 10 349 59 c 1
 309 10 265 -11 229 -11 c 0
 154 -11 108 59 108 144 c 0
176 100 m 0
 176 70 184 11 231 11 c 0
 286 11 348 92 356 124 c 2
 403 313 l 2
 405 319 406 324 406 326 c 0
 406 368 381 420 337 420 c 0
 296 420 250 370 225 309 c 0
 207 267 176 150 176 100 c 0
EndSplineSet
Substitution2: "'locl' +rW2sAAAA,+ycDF7QAA +rODHINYV in +t3zS9AAA +x5AA lookup 10 subtable" acircumflex.vn
AlternateSubs2: "'ss01' +wqTQwMd8wTjSuAAA-1 lookup 9 subtable" acircumflex.vn
AlternateSubs2: "'salt' +wqTQwMd8ua0A +swDFSNYV in +t3zS9AAA +x5AA lookup 8 subtable" acircumflex.vn
EndChar

StartChar: atilde
Encoding: 227 227 163
Width: 511
GlyphClass: 2
Flags: MW
TeX: 641 0
ItalicCorrection: 76
HStem: -11 22<207.5 247 421 450.5> 420 22<316.5 353 281.5 359> 525 37<401.5 427.5> 589 36<313 338.5>
VStem: 108 68<101.5 125 85 217> 209 322<533.5 616.5> 420 67
AnchorPoint: "Anchor-5" 378 605 basechar 0
AnchorPoint: "Anchor-4" 226 0 basechar 0
LayerCount: 2
Fore
SplineSet
209 536 m 0x34
 209 549 291 625 335 625 c 0
 386 625 383 562 420 562 c 0
 458 562 506 624 521 624 c 0
 527 624 531 619 531 614 c 0
 531 602 450 525 405 525 c 0
 354 525 357 589 320 589 c 0
 282 589 234 527 219 527 c 0
 213 527 209 531 209 536 c 0x34
108 144 m 0xca
 108 290 226 442 337 442 c 0
 369 442 401 426 420 383 c 1
 421 388 428 422 460 422 c 0
 470 422 487 417 487 396 c 0
 487 391 487 389 483 375 c 2
 415 103 l 2
 408 75 408 59 408 52 c 0
 408 38 408 11 434 11 c 0
 468 11 487 74 501 130 c 0
 507 152 508 153 520 153 c 0
 527 153 535 153 535 143 c 0
 535 141 523 83 505 45 c 0
 490 14 469 -11 432 -11 c 0
 397 -11 360 10 349 59 c 1
 309 10 265 -11 229 -11 c 0
 154 -11 108 59 108 144 c 0xca
176 100 m 0
 176 70 184 11 231 11 c 0
 286 11 348 92 356 124 c 2
 403 313 l 2
 405 319 406 324 406 326 c 0
 406 368 381 420 337 420 c 0
 296 420 250 370 225 309 c 0
 207 267 176 150 176 100 c 0
EndSplineSet
Substitution2: "'locl' +rW2sAAAA,+ycDF7QAA +rODHINYV in +t3zS9AAA +x5AA lookup 10 subtable" atilde.vn
AlternateSubs2: "'ss01' +wqTQwMd8wTjSuAAA-1 lookup 9 subtable" atilde.vn
AlternateSubs2: "'salt' +wqTQwMd8ua0A +swDFSNYV in +t3zS9AAA +x5AA lookup 8 subtable" atilde.vn
EndChar

StartChar: adieresis
Encoding: 228 228 164
Width: 511
GlyphClass: 2
Flags: MW
TeX: 641 0
ItalicCorrection: 76
HStem: -11 22<207.5 247 421 450.5> 420 22<316.5 353 281.5 359> 553 105<489 503> 553 106<311 323>
VStem: 108 68<101.5 125 85 217> 264 107<599.5 611> 420 67 443 107<600 611>
AnchorPoint: "Anchor-5" 386 639 basechar 0
AnchorPoint: "Anchor-4" 226 0 basechar 0
LayerCount: 2
Fore
SplineSet
264 596 m 0x15
 264 626 294 659 328 659 c 0
 354 659 371 640 371 616 c 0
 371 583 339 553 307 553 c 0
 283 553 264 570 264 596 c 0x15
443 596 m 0x21
 443 626 472 658 506 658 c 0
 530 658 550 641 550 615 c 0
 550 585 520 553 486 553 c 0
 460 553 443 572 443 596 c 0x21
108 144 m 0xca
 108 290 226 442 337 442 c 0
 369 442 401 426 420 383 c 1
 421 388 428 422 460 422 c 0
 470 422 487 417 487 396 c 0
 487 391 487 389 483 375 c 2
 415 103 l 2
 408 75 408 59 408 52 c 0
 408 38 408 11 434 11 c 0
 468 11 487 74 501 130 c 0
 507 152 508 153 520 153 c 0
 527 153 535 153 535 143 c 0
 535 141 523 83 505 45 c 0
 490 14 469 -11 432 -11 c 0
 397 -11 360 10 349 59 c 1
 309 10 265 -11 229 -11 c 0
 154 -11 108 59 108 144 c 0xca
176 100 m 0
 176 70 184 11 231 11 c 0
 286 11 348 92 356 124 c 2
 403 313 l 2
 405 319 406 324 406 326 c 0
 406 368 381 420 337 420 c 0
 296 420 250 370 225 309 c 0
 207 267 176 150 176 100 c 0
EndSplineSet
EndChar

StartChar: aring
Encoding: 229 229 165
Width: 511
GlyphClass: 2
Flags: MW
TeX: 641 0
ItalicCorrection: 76
HStem: -11 22<207.5 247 421 450.5> 420 22<316.5 353 281.5 359> 500 22<345.5 384.5> 638 23<364.5 403.5>
VStem: 108 68<101.5 125 85 217> 281 30<546.5 573.5 546.5 588.5> 420 67 438 30<593 614>
LayerCount: 2
Fore
SplineSet
281 564 m 0xfd
 281 613 335 661 394 661 c 0
 435 661 468 635 468 597 c 0
 468 548 414 500 355 500 c 0
 314 500 281 526 281 564 c 0xfd
311 560 m 0
 311 533 331 522 360 522 c 0
 432 522 438 585 438 601 c 0
 438 627 418 638 389 638 c 0
 325 638 311 587 311 560 c 0
108 144 m 0xca
 108 290 226 442 337 442 c 0
 369 442 401 426 420 383 c 1
 421 388 428 422 460 422 c 0
 470 422 487 417 487 396 c 0
 487 391 487 389 483 375 c 2
 415 103 l 2
 408 75 408 59 408 52 c 0
 408 38 408 11 434 11 c 0
 468 11 487 74 501 130 c 0
 507 152 508 153 520 153 c 0
 527 153 535 153 535 143 c 0
 535 141 523 83 505 45 c 0
 490 14 469 -11 432 -11 c 0
 397 -11 360 10 349 59 c 1
 309 10 265 -11 229 -11 c 0
 154 -11 108 59 108 144 c 0xca
176 100 m 0
 176 70 184 11 231 11 c 0
 286 11 348 92 356 124 c 2
 403 313 l 2
 405 319 406 324 406 326 c 0
 406 368 381 420 337 420 c 0
 296 420 250 370 225 309 c 0
 207 267 176 150 176 100 c 0
EndSplineSet
EndChar

StartChar: ae
Encoding: 230 230 166
Width: 715
GlyphClass: 2
Flags: MW
TeX: 430 0
ItalicCorrection: 75
HStem: -11 22<208.5 250 208.5 269 487 527> 230 23<449 456 443 493.5> 419 23<319.5 363 282 366.5 590 635>
VStem: 108 68<101 126.5 84 224.5> 680 37<347 375.5>
AnchorPoint: "Anchor-5" 477 442 basechar 0
AnchorPoint: "Anchor-4" 366 0 basechar 0
LayerCount: 2
Fore
SplineSet
108 147 m 0
 108 302 228 442 336 442 c 0
 390 442 412 405 425 385 c 1
 431 411 436 441 465 441 c 0
 481 441 488 427 488 418 c 0
 488 414 487 407 483 389 c 1
 519 417 563 442 617 442 c 0
 673 442 717 408 717 357 c 0
 717 337 710 267 605 242 c 0
 561 232 508 230 456 230 c 2
 443 230 l 1
 436 200 429 167 429 133 c 0
 429 58 462 11 512 11 c 0
 542 11 605 25 661 98 c 0
 666 104 673 118 682 118 c 0
 688 118 696 112 696 103 c 0
 696 80 611 -11 512 -11 c 0
 435 -11 394 50 383 113 c 1
 371 95 310 -11 228 -11 c 0
 156 -11 108 55 108 147 c 0
176 104 m 0
 176 64 187 11 230 11 c 0
 270 11 325 60 363 136 c 0
 382 174 378 172 381 196 c 0
 388 258 410 310 410 332 c 0
 410 351 396 419 337 419 c 0
 302 419 269 387 249 358 c 0
 205 295 176 149 176 104 c 0
449 253 m 1
 538 253 680 257 680 358 c 0
 680 393 654 419 616 419 c 0
 554 419 480 363 449 253 c 1
EndSplineSet
EndChar

StartChar: ccedilla
Encoding: 231 231 167
Width: 460
GlyphClass: 2
Flags: MW
TeX: 430 170
ItalicCorrection: 56
HStem: -192 22<119 141 124 130> 296 81 419 23<299.5 380.5>
VStem: 109 70<122.5 155 94.5 225.5> 270 65<-120 -91.5 -147 -85> 385 84<318.5 381.5>
AnchorPoint: "Anchor-5" 362 442 basechar 0
LayerCount: 2
Fore
SplineSet
103 -181 m 0
 103 -172 112 -170 124 -170 c 2
 141 -170 l 2
 253 -169 270 -132 270 -108 c 0
 270 -62 209 -81 209 -58 c 0
 209 -51 213 -38 221 -7 c 1
 135 15 109 92 109 153 c 0
 109 298 236 442 363 442 c 0
 422 442 469 407 469 356 c 0
 469 312 439 296 419 296 c 0
 399 296 385 309 385 328 c 0
 385 339 392 373 435 377 c 1
 422 404 396 419 365 419 c 0
 234 419 179 196 179 114 c 0
 179 75 189 39 228 17 c 1
 236 22 238 22 248 22 c 2
 270 22 l 2
 282 22 285 18 289 14 c 1
 408 41 434 118 453 118 c 2
 454 118 l 2
 460 117 466 113 466 105 c 0
 466 99 463 92 455 82 c 0
 415 33 358 1 285 -10 c 1
 274 -53 l 1
 302 -59 335 -74 335 -109 c 0
 335 -185 221 -192 130 -192 c 2
 124 -192 l 2
 114 -192 103 -191 103 -181 c 0
EndSplineSet
EndChar

StartChar: egrave
Encoding: 232 232 168
Width: 460
GlyphClass: 2
Flags: MW
TeX: 641 0
ItalicCorrection: 75
HStem: -11 22<226.5 267.5 226.5 321> 231 22<206 227 227 239 200 227> 420 22<357 382> 499 152<278.5 377 278.5 378>
VStem: 114 69<119 140 101.5 252.5> 248 147<510 624.5> 425 38<353.5 376>
AnchorPoint: "Anchor-5" 409 631 basechar 0
AnchorPoint: "Anchor-4" 260 0 basechar 0
LayerCount: 2
Fore
SplineSet
114 164 m 0
 114 341 257 442 362 442 c 0
 426 442 463 403 463 357 c 0
 463 350 463 285 384 253 c 0
 336 234 269 231 239 231 c 2
 200 231 l 1
 193 204 183 159 183 121 c 0
 183 82 194 11 259 11 c 0
 276 11 365 15 439 109 c 0
 447 119 448 120 452 120 c 0
 460 120 468 109 468 104 c 0
 468 89 385 -11 257 -11 c 0
 162 -11 114 74 114 164 c 0
206 253 m 1
 227 253 l 2
 260 253 425 253 425 359 c 0
 425 393 402 420 362 420 c 0
 352 420 249 417 206 253 c 1
248 614 m 0
 248 635 271 651 286 651 c 0
 305 651 314 632 321 623 c 0
 382 538 395 524 395 515 c 0
 395 505 385 499 378 499 c 2
 377 499 l 2
 370 499 369 501 264 587 c 0
 257 594 248 601 248 614 c 0
EndSplineSet
Substitution2: "'locl' +rW2sAAAA,+ycDF7QAA +rODHINYV in +t3zS9AAA +x5AA lookup 10 subtable" egrave.vn
AlternateSubs2: "'ss01' +wqTQwMd8wTjSuAAA-1 lookup 9 subtable" egrave.vn
AlternateSubs2: "'salt' +wqTQwMd8ua0A +swDFSNYV in +t3zS9AAA +x5AA lookup 8 subtable" egrave.vn
EndChar

StartChar: eacute
Encoding: 233 233 169
Width: 460
GlyphClass: 2
Flags: MW
TeX: 641 0
ItalicCorrection: 75
HStem: -11 22<226.5 267.5 226.5 321> 231 22<206 227 227 239 200 227> 420 22<357 382> 499 152<331 499.5>
VStem: 114 69<119 140 101.5 252.5> 321 199<510.5 630.5> 425 38<353.5 376>
AnchorPoint: "Anchor-5" 409 631 basechar 0
AnchorPoint: "Anchor-4" 260 0 basechar 0
LayerCount: 2
Fore
SplineSet
321 514 m 0x14
 321 525 318 519 465 639 c 0
 472 645 481 651 492 651 c 0
 507 651 520 638 520 623 c 0
 520 600 495 589 490 586 c 0
 345 502 342 499 335 499 c 0
 327 499 321 507 321 514 c 0x14
114 164 m 0xea
 114 341 257 442 362 442 c 0
 426 442 463 403 463 357 c 0
 463 350 463 285 384 253 c 0
 336 234 269 231 239 231 c 2
 200 231 l 1
 193 204 183 159 183 121 c 0
 183 82 194 11 259 11 c 0
 276 11 365 15 439 109 c 0
 447 119 448 120 452 120 c 0
 460 120 468 109 468 104 c 0
 468 89 385 -11 257 -11 c 0
 162 -11 114 74 114 164 c 0xea
206 253 m 1
 227 253 l 2
 260 253 425 253 425 359 c 0
 425 393 402 420 362 420 c 0
 352 420 249 417 206 253 c 1
EndSplineSet
Substitution2: "'locl' +rW2sAAAA,+ycDF7QAA +rODHINYV in +t3zS9AAA +x5AA lookup 10 subtable" eacute.vn
AlternateSubs2: "'ss01' +wqTQwMd8wTjSuAAA-1 lookup 9 subtable" eacute.vn
AlternateSubs2: "'salt' +wqTQwMd8ua0A +swDFSNYV in +t3zS9AAA +x5AA lookup 8 subtable" eacute.vn
EndChar

StartChar: ecircumflex
Encoding: 234 234 170
Width: 460
GlyphClass: 2
Flags: MW
TeX: 641 0
ItalicCorrection: 75
HStem: -11 22<226.5 267.5 226.5 321> 231 22<206 227 227 239 200 227> 420 22<357 382>
VStem: 114 69<119 140 101.5 252.5> 425 38<353.5 376>
AnchorPoint: "Anchor-5" 406 616 basechar 0
AnchorPoint: "Anchor-4" 260 0 basechar 0
LayerCount: 2
Fore
SplineSet
223 484 m 0
 223 493 221 489 343 603 c 0
 367 625 377 636 386 636 c 0
 397 636 405 618 413 603 c 0
 477 492 478 493 478 486 c 0
 478 478 469 470 461 470 c 0
 451 470 446 479 410 533 c 0
 399 549 387 566 377 583 c 1
 257 481 l 2
 255 479 246 470 238 470 c 0
 231 470 223 476 223 484 c 0
114 164 m 0
 114 341 257 442 362 442 c 0
 426 442 463 403 463 357 c 0
 463 350 463 285 384 253 c 0
 336 234 269 231 239 231 c 2
 200 231 l 1
 193 204 183 159 183 121 c 0
 183 82 194 11 259 11 c 0
 276 11 365 15 439 109 c 0
 447 119 448 120 452 120 c 0
 460 120 468 109 468 104 c 0
 468 89 385 -11 257 -11 c 0
 162 -11 114 74 114 164 c 0
206 253 m 1
 227 253 l 2
 260 253 425 253 425 359 c 0
 425 393 402 420 362 420 c 0
 352 420 249 417 206 253 c 1
EndSplineSet
Substitution2: "'locl' +rW2sAAAA,+ycDF7QAA +rODHINYV in +t3zS9AAA +x5AA lookup 10 subtable" ecircumflex.vn
AlternateSubs2: "'ss01' +wqTQwMd8wTjSuAAA-1 lookup 9 subtable" ecircumflex.vn
AlternateSubs2: "'salt' +wqTQwMd8ua0A +swDFSNYV in +t3zS9AAA +x5AA lookup 8 subtable" ecircumflex.vn
EndChar

StartChar: edieresis
Encoding: 235 235 171
Width: 460
GlyphClass: 2
Flags: MW
TeX: 641 0
ItalicCorrection: 75
HStem: -11 22<226.5 267.5 226.5 321> 231 22<206 227 227 239 200 227> 420 22<357 382> 553 106<286 298 464 476>
VStem: 114 69<119 140 101.5 252.5> 238 107<601 612.5> 416 108<599.5 612.5> 425 38<353.5 376>
AnchorPoint: "Anchor-5" 411 639 basechar 0
AnchorPoint: "Anchor-4" 260 0 basechar 0
LayerCount: 2
Fore
SplineSet
238 596 m 0xfc
 238 629 270 659 302 659 c 0
 328 659 345 640 345 616 c 0
 345 586 315 553 281 553 c 0
 255 553 238 572 238 596 c 0xfc
416 596 m 0xfe
 416 629 448 659 480 659 c 0
 506 659 524 640 524 616 c 0
 524 583 492 553 460 553 c 0
 436 553 416 570 416 596 c 0xfe
114 164 m 0xe9
 114 341 257 442 362 442 c 0
 426 442 463 403 463 357 c 0
 463 350 463 285 384 253 c 0
 336 234 269 231 239 231 c 2
 200 231 l 1
 193 204 183 159 183 121 c 0
 183 82 194 11 259 11 c 0
 276 11 365 15 439 109 c 0
 447 119 448 120 452 120 c 0
 460 120 468 109 468 104 c 0
 468 89 385 -11 257 -11 c 0
 162 -11 114 74 114 164 c 0xe9
206 253 m 1
 227 253 l 2
 260 253 425 253 425 359 c 0
 425 393 402 420 362 420 c 0
 352 420 249 417 206 253 c 1
EndSplineSet
EndChar

StartChar: igrave
Encoding: 236 236 172
Width: 306
GlyphClass: 3
Flags: MW
TeX: 641 0
ItalicCorrection: 76
HStem: -11 22<202 235 202 251> 420 22<180 214.5>
VStem: 83 33 128 56<49.5 52 25.5 79> 231 55<380 389.5 352.5 403.5> 299 32
AnchorPoint: "Anchor-5" 311 631 basechar 0
AnchorPoint: "Anchor-4" 154 0 basechar 0
LayerCount: 2
Fore
SplineSet
172 614 m 0
 172 635 193 651 209 651 c 0
 227 651 231 644 289 563 c 0
 302 545 319 525 319 515 c 0
 319 505 309 499 302 499 c 0
 294 499 287 507 189 587 c 0
 181 594 172 601 172 614 c 0
83 288 m 0
 83 293 117 442 211 442 c 0
 248 442 286 417 286 362 c 0
 286 343 284 335 274 306 c 2
 210 135 l 2
 197 98 184 65 184 39 c 0
 184 12 198 11 206 11 c 0
 264 11 291 107 299 136 c 0
 303 151 303 153 316 153 c 0
 323 153 331 153 331 143 c 0
 331 139 298 -11 204 -11 c 0
 152 -11 128 30 128 69 c 0
 128 89 132 100 146 138 c 0
 158 171 170 204 183 237 c 2
 213 320 l 2
 220 339 231 368 231 392 c 0
 231 415 220 420 209 420 c 0
 151 420 125 327 116 294 c 0
 112 280 111 278 98 278 c 0
 93 278 83 278 83 288 c 0
EndSplineSet
Substitution2: "'locl' +rW2sAAAA,+ycDF7QAA +rODHINYV in +t3zS9AAA +x5AA lookup 10 subtable" igrave.vn
AlternateSubs2: "'ss01' +wqTQwMd8wTjSuAAA-1 lookup 9 subtable" igrave.vn
AlternateSubs2: "'salt' +wqTQwMd8ua0A +swDFSNYV in +t3zS9AAA +x5AA lookup 8 subtable" igrave.vn
Ligature2: "'liga' +1FzJAAAA +1WnHTMeQ in +t3zS9AAA +x5AA lookup 5 subtable" i gravecomb
EndChar

StartChar: iacute
Encoding: 237 237 173
Width: 306
GlyphClass: 3
Flags: MW
TeX: 641 0
ItalicCorrection: 76
HStem: -11 22<202 235 202 251> 420 22<180 214.5> 499 152<254 422.5>
VStem: 83 33 128 56<49.5 52 25.5 79> 231 55<380 389.5 352.5 403.5> 244 199<510.5 630.5> 299 32
AnchorPoint: "Anchor-5" 311 631 basechar 0
AnchorPoint: "Anchor-4" 154 0 basechar 0
LayerCount: 2
Fore
SplineSet
244 514 m 0x22
 244 525 241 519 388 639 c 0
 395 645 404 651 415 651 c 0
 430 651 443 638 443 623 c 0
 443 600 418 589 413 586 c 0
 268 502 265 499 258 499 c 0
 250 499 244 507 244 514 c 0x22
83 288 m 0xdd
 83 293 117 442 211 442 c 0
 248 442 286 417 286 362 c 0
 286 343 284 335 274 306 c 2
 210 135 l 2
 197 98 184 65 184 39 c 0
 184 12 198 11 206 11 c 0
 264 11 291 107 299 136 c 0
 303 151 303 153 316 153 c 0
 323 153 331 153 331 143 c 0
 331 139 298 -11 204 -11 c 0
 152 -11 128 30 128 69 c 0
 128 89 132 100 146 138 c 0
 158 171 170 204 183 237 c 2
 213 320 l 2
 220 339 231 368 231 392 c 0
 231 415 220 420 209 420 c 0
 151 420 125 327 116 294 c 0
 112 280 111 278 98 278 c 0
 93 278 83 278 83 288 c 0xdd
EndSplineSet
Substitution2: "'locl' +rW2sAAAA,+ycDF7QAA +rODHINYV in +t3zS9AAA +x5AA lookup 10 subtable" iacute.vn
AlternateSubs2: "'ss01' +wqTQwMd8wTjSuAAA-1 lookup 9 subtable" iacute.vn
AlternateSubs2: "'salt' +wqTQwMd8ua0A +swDFSNYV in +t3zS9AAA +x5AA lookup 8 subtable" iacute.vn
Ligature2: "'liga' +1FzJAAAA +1WnHTMeQ in +0KS5tMeQ lookup 7 subtable" afii10103 acutecomb
Ligature2: "'liga' +1FzJAAAA +1WnHTMeQ in +t3zS9AAA +x5AA lookup 5 subtable" i acutecomb
EndChar

StartChar: icircumflex
Encoding: 238 238 174
Width: 306
GlyphClass: 3
Flags: MW
TeX: 641 0
ItalicCorrection: 76
HStem: -11 22<202 235 202 251> 420 22<180 214.5>
VStem: 83 33 128 56<49.5 52 25.5 79> 231 55<380 389.5 352.5 403.5> 299 32
AnchorPoint: "Anchor-5" 308 616 basechar 0
AnchorPoint: "Anchor-4" 154 0 basechar 0
LayerCount: 2
Fore
SplineSet
117 484 m 0
 117 493 114 489 236 603 c 0
 260 625 270 636 279 636 c 0
 290 636 299 618 307 603 c 0
 370 492 371 492 371 485 c 0
 371 477 362 470 354 470 c 0
 344 470 340 479 304 533 c 0
 293 549 281 566 271 583 c 1
 151 481 l 2
 149 479 139 470 131 470 c 0
 124 470 117 476 117 484 c 0
83 288 m 0
 83 293 117 442 211 442 c 0
 248 442 286 417 286 362 c 0
 286 343 284 335 274 306 c 2
 210 135 l 2
 197 98 184 65 184 39 c 0
 184 12 198 11 206 11 c 0
 264 11 291 107 299 136 c 0
 303 151 303 153 316 153 c 0
 323 153 331 153 331 143 c 0
 331 139 298 -11 204 -11 c 0
 152 -11 128 30 128 69 c 0
 128 89 132 100 146 138 c 0
 158 171 170 204 183 237 c 2
 213 320 l 2
 220 339 231 368 231 392 c 0
 231 415 220 420 209 420 c 0
 151 420 125 327 116 294 c 0
 112 280 111 278 98 278 c 0
 93 278 83 278 83 288 c 0
EndSplineSet
Ligature2: "'liga' +1FzJAAAA +1WnHTMeQ in +t3zS9AAA +x5AA lookup 5 subtable" i uni0302
EndChar

StartChar: idieresis
Encoding: 239 239 175
Width: 306
GlyphClass: 3
Flags: MW
TeX: 641 0
ItalicCorrection: 76
HStem: -11 22<202 235 202 251> 420 22<180 214.5> 553 106<208 219.5 388 400>
VStem: 83 33 128 56<49.5 52 25.5 79> 161 108<598 612> 231 55<380 389.5 352.5 403.5> 299 32 340 107<601 612.5>
AnchorPoint: "Anchor-5" 314 639 basechar 0
LayerCount: 2
Fore
SplineSet
161 597 m 0xf580
 161 627 191 659 225 659 c 0
 251 659 269 640 269 616 c 0
 269 580 234 553 205 553 c 0
 179 553 161 573 161 597 c 0xf580
340 596 m 0
 340 629 372 659 404 659 c 0
 430 659 447 640 447 616 c 0
 447 586 417 553 383 553 c 0
 357 553 340 572 340 596 c 0
83 288 m 0xdb
 83 293 117 442 211 442 c 0
 248 442 286 417 286 362 c 0
 286 343 284 335 274 306 c 2
 210 135 l 2
 197 98 184 65 184 39 c 0
 184 12 198 11 206 11 c 0
 264 11 291 107 299 136 c 0
 303 151 303 153 316 153 c 0
 323 153 331 153 331 143 c 0
 331 139 298 -11 204 -11 c 0
 152 -11 128 30 128 69 c 0
 128 89 132 100 146 138 c 0
 158 171 170 204 183 237 c 2
 213 320 l 2
 220 339 231 368 231 392 c 0
 231 415 220 420 209 420 c 0
 151 420 125 327 116 294 c 0
 112 280 111 278 98 278 c 0
 93 278 83 278 83 288 c 0xdb
EndSplineSet
Ligature2: "'liga' +1FzJAAAA +1WnHTMeQ in +t3zS9AAA +x5AA lookup 5 subtable" i uni0308
EndChar

StartChar: eth
Encoding: 240 240 176
Width: 511
GlyphClass: 2
Flags: MW
TeX: 688 0
ItalicCorrection: 107
HStem: -11 25<240.5 263.5 240.5 303.5> 425 22<335.5 386> 672 20G<283.5 292>
VStem: 96 71<106 134 76.5 226.5> 447 86<323 344.5>
LayerCount: 2
Fore
SplineSet
96 153 m 0
 96 300 235 447 364 447 c 0
 418 447 442 412 453 392 c 1
 445 471 424 521 382 580 c 1
 244 510 l 1
 236 533 l 1
 366 598 l 1
 336 631 299 658 259 677 c 1
 275 688 280 692 287 692 c 0
 297 692 362 670 416 624 c 1
 556 694 l 1
 563 671 l 1
 435 607 l 1
 499 542 533 459 533 357 c 0
 533 289 514 219 503 187 c 0
 462 73 355 -11 252 -11 c 0
 159 -11 96 59 96 153 c 0
167 118 m 0
 167 35 222 14 259 14 c 0
 268 14 310 16 354 55 c 0
 427 121 447 264 447 309 c 0
 447 380 412 425 360 425 c 0
 311 425 267 394 238 355 c 0
 189 289 167 150 167 118 c 0
EndSplineSet
EndChar

StartChar: ntilde
Encoding: 241 241 177
Width: 562
GlyphClass: 2
Flags: MW
TeX: 641 0
ItalicCorrection: 76
HStem: -11 22<450.5 490 450.5 505.5> 420 22<169.5 198 373 433> 525 37<454.5 480.5> 589 36<366 391.5>
VStem: 83 34 262 322<533.5 616.5> 383 56<47 52.5 33 79.5> 457 61<323 364.5> 554 32
AnchorPoint: "Anchor-5" 431 605 basechar 0
AnchorPoint: "Anchor-4" 280 0 basechar 0
LayerCount: 2
Fore
SplineSet
262 536 m 0x34
 262 549 344 625 388 625 c 0
 439 625 436 562 473 562 c 0
 511 562 559 624 574 624 c 0
 580 624 584 619 584 614 c 0
 584 602 503 525 458 525 c 0
 407 525 410 589 373 589 c 0
 335 589 287 527 272 527 c 0
 266 527 262 531 262 536 c 0x34
83 288 m 0xcb80
 83 290 96 349 115 389 c 0
 131 419 151 442 187 442 c 0
 230 442 264 412 271 363 c 1
 284 382 332 442 414 442 c 0
 463 442 518 420 518 338 c 0
 518 280 477 168 457 115 c 0
 449 91 439 65 439 40 c 0
 439 26 440 11 461 11 c 0
 519 11 546 109 554 136 c 0
 558 151 558 153 571 153 c 0
 578 153 586 153 586 143 c 0
 586 138 552 -11 459 -11 c 0
 411 -11 383 25 383 69 c 0
 383 90 386 99 399 133 c 0
 413 173 457 292 457 354 c 0
 457 375 455 420 411 420 c 0
 335 420 290 345 276 321 c 0
 259 292 259 291 246 240 c 0
 241 218 235 197 230 175 c 2
 190 15 l 2
 183 -4 166 -11 154 -11 c 0
 134 -11 126 4 126 15 c 0
 126 18 127 23 129 29 c 2
 204 329 l 2
 208 345 211 364 211 380 c 0
 211 391 211 420 185 420 c 0
 154 420 135 371 117 301 c 0
 112 279 111 278 98 278 c 0
 93 278 83 278 83 288 c 0xcb80
EndSplineSet
EndChar

StartChar: ograve
Encoding: 242 242 178
Width: 511
GlyphClass: 2
Flags: MW
TeX: 641 0
ItalicCorrection: 63
HStem: -11 22<236.5 280.5 236.5 318> 420 22<342.5 386.5>
VStem: 110 70<102.5 139 78 227> 439 70<295.5 325.5 204.5 346.5>
AnchorPoint: "Anchor-5" 409 631 basechar 0
AnchorPoint: "Anchor-4" 259 0 basechar 0
LayerCount: 2
Fore
SplineSet
274 614 m 0
 274 635 296 651 311 651 c 0
 330 651 340 632 347 623 c 0
 408 538 421 524 421 515 c 0
 421 505 411 499 404 499 c 0
 396 499 382 510 290 587 c 0
 283 594 274 601 274 614 c 0
110 154 m 0
 110 300 239 442 363 442 c 0
 450 442 509 373 509 278 c 0
 509 131 380 -11 256 -11 c 0
 173 -11 110 51 110 154 c 0
180 114 m 0
 180 42 217 11 256 11 c 0
 305 11 356 56 385 111 c 0
 417 171 439 274 439 317 c 0
 439 376 411 420 362 420 c 0
 323 420 275 390 238 329 c 0
 206 275 180 164 180 114 c 0
EndSplineSet
Substitution2: "'locl' +rW2sAAAA,+ycDF7QAA +rODHINYV in +t3zS9AAA +x5AA lookup 10 subtable" ograve.vn
AlternateSubs2: "'ss01' +wqTQwMd8wTjSuAAA-1 lookup 9 subtable" ograve.vn
AlternateSubs2: "'salt' +wqTQwMd8ua0A +swDFSNYV in +t3zS9AAA +x5AA lookup 8 subtable" ograve.vn
EndChar

StartChar: oacute
Encoding: 243 243 179
Width: 511
GlyphClass: 2
Flags: MW
TeX: 641 0
ItalicCorrection: 63
HStem: -11 22<236.5 280.5 236.5 318> 420 22<342.5 386.5> 499 152<356 524.5>
VStem: 110 70<102.5 139 78 227> 346 199<510.5 630.5> 439 70<295.5 325.5 204.5 346.5>
AnchorPoint: "Anchor-5" 409 631 basechar 0
AnchorPoint: "Anchor-4" 259 0 basechar 0
LayerCount: 2
Fore
SplineSet
346 514 m 0x28
 346 525 343 519 490 639 c 0
 497 645 506 651 517 651 c 0
 532 651 545 638 545 623 c 0
 545 600 520 589 515 586 c 0
 370 502 367 499 360 499 c 0
 352 499 346 507 346 514 c 0x28
110 154 m 0xd4
 110 300 239 442 363 442 c 0
 450 442 509 373 509 278 c 0
 509 131 380 -11 256 -11 c 0
 173 -11 110 51 110 154 c 0xd4
180 114 m 0
 180 42 217 11 256 11 c 0
 305 11 356 56 385 111 c 0
 417 171 439 274 439 317 c 0
 439 376 411 420 362 420 c 0
 323 420 275 390 238 329 c 0
 206 275 180 164 180 114 c 0
EndSplineSet
Substitution2: "'locl' +rW2sAAAA,+ycDF7QAA +rODHINYV in +t3zS9AAA +x5AA lookup 10 subtable" oacute.vn
AlternateSubs2: "'ss01' +wqTQwMd8wTjSuAAA-1 lookup 9 subtable" oacute.vn
AlternateSubs2: "'salt' +wqTQwMd8ua0A +swDFSNYV in +t3zS9AAA +x5AA lookup 8 subtable" oacute.vn
EndChar

StartChar: ocircumflex
Encoding: 244 244 180
Width: 511
GlyphClass: 2
Flags: MW
TeX: 641 0
ItalicCorrection: 63
HStem: -11 22<236.5 280.5 236.5 318> 420 22<342.5 386.5>
VStem: 110 70<102.5 139 78 227> 439 70<295.5 325.5 204.5 346.5>
AnchorPoint: "Anchor-5" 406 616 basechar 0
AnchorPoint: "Anchor-4" 259 0 basechar 0
LayerCount: 2
Fore
SplineSet
249 484 m 0
 249 493 246 489 368 603 c 0
 392 625 402 636 411 636 c 0
 422 636 421 635 497 502 c 0
 498 500 503 492 503 486 c 0
 503 478 494 470 486 470 c 0
 476 470 472 479 436 533 c 0
 425 549 413 566 403 583 c 1
 283 481 l 2
 281 479 271 470 263 470 c 0
 256 470 249 476 249 484 c 0
110 154 m 0
 110 300 239 442 363 442 c 0
 450 442 509 373 509 278 c 0
 509 131 380 -11 256 -11 c 0
 173 -11 110 51 110 154 c 0
180 114 m 0
 180 42 217 11 256 11 c 0
 305 11 356 56 385 111 c 0
 417 171 439 274 439 317 c 0
 439 376 411 420 362 420 c 0
 323 420 275 390 238 329 c 0
 206 275 180 164 180 114 c 0
EndSplineSet
Substitution2: "'locl' +rW2sAAAA,+ycDF7QAA +rODHINYV in +t3zS9AAA +x5AA lookup 10 subtable" ocircumflex.vn
AlternateSubs2: "'ss01' +wqTQwMd8wTjSuAAA-1 lookup 9 subtable" ocircumflex.vn
AlternateSubs2: "'salt' +wqTQwMd8ua0A +swDFSNYV in +t3zS9AAA +x5AA lookup 8 subtable" ocircumflex.vn
EndChar

StartChar: otilde
Encoding: 245 245 181
Width: 511
GlyphClass: 2
Flags: MW
TeX: 641 0
ItalicCorrection: 63
HStem: -11 22<236.5 280.5 236.5 318> 420 22<342.5 386.5> 525 37<426.5 452.5> 589 36<338 363.5>
VStem: 110 70<102.5 139 78 227> 234 322<533.5 616.5> 439 70<295.5 325.5 204.5 346.5>
AnchorPoint: "Anchor-5" 403 605 basechar 0
AnchorPoint: "Anchor-4" 259 0 basechar 0
LayerCount: 2
Fore
SplineSet
234 536 m 0x34
 234 549 316 625 360 625 c 0
 411 625 408 562 445 562 c 0
 483 562 531 624 546 624 c 0
 552 624 556 619 556 614 c 0
 556 602 475 525 430 525 c 0
 379 525 382 589 345 589 c 0
 307 589 259 527 244 527 c 0
 238 527 234 531 234 536 c 0x34
110 154 m 0xca
 110 300 239 442 363 442 c 0
 450 442 509 373 509 278 c 0
 509 131 380 -11 256 -11 c 0
 173 -11 110 51 110 154 c 0xca
180 114 m 0
 180 42 217 11 256 11 c 0
 305 11 356 56 385 111 c 0
 417 171 439 274 439 317 c 0
 439 376 411 420 362 420 c 0
 323 420 275 390 238 329 c 0
 206 275 180 164 180 114 c 0
EndSplineSet
Substitution2: "'locl' +rW2sAAAA,+ycDF7QAA +rODHINYV in +t3zS9AAA +x5AA lookup 10 subtable" otilde.vn
AlternateSubs2: "'ss01' +wqTQwMd8wTjSuAAA-1 lookup 9 subtable" otilde.vn
AlternateSubs2: "'salt' +wqTQwMd8ua0A +swDFSNYV in +t3zS9AAA +x5AA lookup 8 subtable" otilde.vn
EndChar

StartChar: odieresis
Encoding: 246 246 182
Width: 511
GlyphClass: 2
Flags: MW
TeX: 641 0
ItalicCorrection: 63
HStem: -11 22<236.5 280.5 236.5 318> 420 22<342.5 386.5> 553 105<488 502> 553 106<310 322>
VStem: 110 70<102.5 139 78 227> 263 107<599.5 611> 439 70<295.5 325.5 204.5 346.5> 442 107<600 611>
AnchorPoint: "Anchor-5" 411 639 basechar 0
AnchorPoint: "Anchor-4" 259 0 basechar 0
LayerCount: 2
Fore
SplineSet
263 596 m 0x15
 263 626 293 659 327 659 c 0
 353 659 370 640 370 616 c 0
 370 583 338 553 306 553 c 0
 282 553 263 570 263 596 c 0x15
442 596 m 0x21
 442 626 471 658 505 658 c 0
 529 658 549 641 549 615 c 0
 549 585 519 553 485 553 c 0
 459 553 442 572 442 596 c 0x21
110 154 m 0xca
 110 300 239 442 363 442 c 0
 450 442 509 373 509 278 c 0
 509 131 380 -11 256 -11 c 0
 173 -11 110 51 110 154 c 0xca
180 114 m 0
 180 42 217 11 256 11 c 0
 305 11 356 56 385 111 c 0
 417 171 439 274 439 317 c 0
 439 376 411 420 362 420 c 0
 323 420 275 390 238 329 c 0
 206 275 180 164 180 114 c 0
EndSplineSet
EndChar

StartChar: divide
Encoding: 247 247 183
Width: 766
GlyphClass: 2
Flags: MW
TeX: 554 56
ItalicCorrection: 36
HStem: -28 125<382 401> 230 40<156.5 719 172 719 719 722> 402 126<489 509>
VStem: 327 129<27 43.5> 435 128<457.5 473>
LayerCount: 2
Fore
SplineSet
140 250 m 0xe0
 140 269 158 270 172 270 c 2
 719 270 l 2
 731 270 750 269 750 250 c 0
 750 231 731 230 722 230 c 2
 169 230 l 2
 144 230 140 242 140 250 c 0xe0
327 25 m 0xf0
 327 62 362 97 402 97 c 0
 432 97 456 77 456 45 c 0
 456 9 421 -28 381 -28 c 0
 349 -28 327 -4 327 25 c 0xf0
435 455 m 0xe8
 435 491 469 528 509 528 c 0
 539 528 563 507 563 475 c 0
 563 440 529 402 489 402 c 0
 459 402 435 423 435 455 c 0xe8
EndSplineSet
EndChar

StartChar: oslash
Encoding: 248 248 184
Width: 511
GlyphClass: 2
Flags: MW
TeX: 533 97
ItalicCorrection: 91
HStem: -13 23<240 265 240 315.5> 420 23<363 365 365 370.5 363 377.5>
VStem: 115 58<114 143> 443 59<288.5 315.5>
LayerCount: 2
Fore
SplineSet
68 -97 m 0
 68 -86 157 29 157 29 c 1
 145 42 115 78 115 150 c 0
 115 297 239 443 363 443 c 2
 365 443 l 2
 376 443 407 442 444 417 c 1
 532 536 530 537 540 537 c 0
 545 537 549 533 549 527 c 0
 549 519 541 511 460 401 c 1
 471 387 502 353 502 281 c 0
 502 134 377 -13 254 -13 c 0
 226 -13 200 -6 174 13 c 1
 173 13 l 1
 88 -102 87 -106 77 -106 c 0
 71 -106 68 -102 68 -97 c 0
173 121 m 0
 173 104 176 85 183 64 c 1
 192 75 200 88 209 100 c 2
 408 369 l 2
 413 376 419 382 419 388 c 0
 419 401 393 420 362 420 c 0
 323 420 287 394 263 369 c 0
 194 296 173 165 173 121 c 0
194 41 m 1
 208 25 225 10 255 10 c 0
 275 10 315 18 357 65 c 0
 423 138 443 267 443 310 c 0
 443 321 443 339 435 366 c 1
 434 366 l 1
 194 42 l 1
 194 41 l 1
EndSplineSet
EndChar

StartChar: ugrave
Encoding: 249 249 185
Width: 537
GlyphClass: 2
Flags: MW
TeX: 641 0
ItalicCorrection: 76
HStem: -11 23<259 293.5 450 464> 410 20G<470.5 496.5> 419 22<178 212.5>
VStem: 83 32 152 62<54.5 131.5 51.5 148> 229 57<361.5 383.5 335.5 400> 536 24
AnchorPoint: "Anchor-5" 426 631 basechar 0
AnchorPoint: "Anchor-4" 269 0 basechar 0
LayerCount: 2
Fore
SplineSet
83 291 m 0xbe
 83 298 118 441 211 441 c 0xbe
 256 441 286 406 286 361 c 0
 286 310 214 181 214 82 c 0
 214 21 248 12 270 12 c 0
 332 12 370 81 374 92 c 0
 377 100 377 107 379 115 c 2
 446 383 l 2
 448 389 453 430 488 430 c 0xde
 505 430 514 416 514 407 c 0
 514 389 500 337 446 123 c 0
 444 114 434 80 434 52 c 0
 434 30 440 12 460 12 c 0
 510 12 522 141 536 150 c 0
 539 152 542 153 546 153 c 0
 553 153 560 149 560 140 c 2
 560 140 543 35 497 2 c 0
 485 -7 471 -11 457 -11 c 0
 430 -11 393 2 378 49 c 1
 353 20 321 -11 266 -11 c 0
 213 -11 152 11 152 98 c 0
 152 198 229 333 229 390 c 0
 229 410 219 419 206 419 c 0
 150 419 122 320 115 296 c 0
 111 282 104 277 98 277 c 0
 93 277 83 280 83 291 c 0xbe
287 614 m 0
 287 631 306 651 325 651 c 0
 344 651 353 632 360 623 c 0
 421 538 434 524 434 515 c 0
 434 505 424 499 417 499 c 2
 416 499 l 2
 410 499 408 501 303 587 c 0
 295 593 287 601 287 614 c 0
EndSplineSet
Substitution2: "'locl' +rW2sAAAA,+ycDF7QAA +rODHINYV in +t3zS9AAA +x5AA lookup 10 subtable" ugrave.vn
AlternateSubs2: "'ss01' +wqTQwMd8wTjSuAAA-1 lookup 9 subtable" ugrave.vn
AlternateSubs2: "'salt' +wqTQwMd8ua0A +swDFSNYV in +t3zS9AAA +x5AA lookup 8 subtable" ugrave.vn
EndChar

StartChar: uacute
Encoding: 250 250 186
Width: 537
GlyphClass: 2
Flags: MW
TeX: 641 0
ItalicCorrection: 76
HStem: -11 23<259 293.5 450 464> 410 20G<470.5 496.5> 419 22<178 212.5> 499 152<369 537.5>
VStem: 83 32 152 62<54.5 131.5 51.5 148> 229 57<361.5 383.5 335.5 400> 359 199<510.5 630.5> 536 24
AnchorPoint: "Anchor-5" 426 631 basechar 0
AnchorPoint: "Anchor-4" 269 0 basechar 0
LayerCount: 2
Fore
SplineSet
83 291 m 0xbe80
 83 298 118 441 211 441 c 0xbe80
 256 441 286 406 286 361 c 0
 286 310 214 181 214 82 c 0
 214 21 248 12 270 12 c 0
 332 12 370 81 374 92 c 0
 377 100 377 107 379 115 c 2
 446 383 l 2
 448 389 453 430 488 430 c 0xde80
 505 430 514 416 514 407 c 0
 514 389 500 337 446 123 c 0
 444 114 434 80 434 52 c 0
 434 30 440 12 460 12 c 0
 510 12 522 141 536 150 c 0
 539 152 542 153 546 153 c 0
 553 153 560 149 560 140 c 2
 560 140 543 35 497 2 c 0
 485 -7 471 -11 457 -11 c 0
 430 -11 393 2 378 49 c 1
 353 20 321 -11 266 -11 c 0
 213 -11 152 11 152 98 c 0
 152 198 229 333 229 390 c 0
 229 410 219 419 206 419 c 0
 150 419 122 320 115 296 c 0
 111 282 104 277 98 277 c 0
 93 277 83 280 83 291 c 0xbe80
359 514 m 0x11
 359 525 356 519 503 639 c 0
 510 645 519 651 530 651 c 0
 545 651 558 638 558 623 c 0
 558 600 533 589 528 586 c 0
 383 502 380 499 373 499 c 0
 365 499 359 507 359 514 c 0x11
EndSplineSet
Substitution2: "'locl' +rW2sAAAA,+ycDF7QAA +rODHINYV in +t3zS9AAA +x5AA lookup 10 subtable" uacute.vn
AlternateSubs2: "'ss01' +wqTQwMd8wTjSuAAA-1 lookup 9 subtable" uacute.vn
AlternateSubs2: "'salt' +wqTQwMd8ua0A +swDFSNYV in +t3zS9AAA +x5AA lookup 8 subtable" uacute.vn
EndChar

